<svg width="23" height="23" viewBox="0 0 23 23" fill="none" xmlns="http://www.w3.org/2000/svg">
    <path d="M16.3038 14.8024C14.4311 14.3717 12.6882 13.9949 13.5327 12.4093C16.1019 7.58175 14.2138 5 11.5004 5C8.73348 5 6.89184 7.681 9.46812 12.4093C10.3373 14.0043 8.52924 14.3813 6.6968 14.8024C5.18268 15.1503 4.98764 15.8606 4.96832 17.0639C4.9605 17.5806 5.38968 18 5.90834 18H17.0918C17.6107 18 18.0401 17.5806 18.0321 17.0639C18.013 15.8606 17.8182 15.1503 16.3038 14.8024Z" fill="#2A3747"/>
    <path d="M4.6802 15.2316C5.03625 14.6815 5.6269 14.3276 6.53864 14.1183L6.65318 14.092C6.85259 14.0464 7.04856 14.0012 7.23762 13.9554C6.50897 13.6847 6.09795 13.2895 6.51426 12.5075C8.46837 8.83562 7.03223 6.87203 4.9684 6.87203C2.86386 6.87203 1.46314 8.91126 3.42254 12.5075C4.0838 13.7207 2.70861 14.0074 1.31478 14.3276C0.163154 14.5919 0.0150311 15.1326 8.08382e-05 16.0478C-0.00589927 16.4408 0.320707 16.7597 0.714933 16.7597H4.2731C4.30162 16.1667 4.39638 15.6698 4.6802 15.2316Z" fill="#2A3747"/>
    <path d="M21.6854 14.3276C20.2613 14.0001 18.9355 13.7135 19.5777 12.5075C21.5318 8.83562 20.0959 6.87203 18.0321 6.87203C15.9275 6.87203 14.5268 8.91126 16.4862 12.5075C16.9124 13.2895 16.4922 13.6865 15.7665 13.9558C15.9671 14.0044 16.175 14.0523 16.3875 14.1011L16.4614 14.1181C17.3736 14.3274 17.964 14.6815 18.3203 15.2316C18.6036 15.6698 18.6988 16.1667 18.7271 16.7597H22.2848C22.6795 16.7597 23.0061 16.4406 22.9999 16.0478C22.9857 15.1326 22.8373 14.5919 21.6854 14.3276Z" fill="#2A3747"/>
</svg>
