<svg width="26" height="50" viewBox="0 0 26 50" fill="none" xmlns="http://www.w3.org/2000/svg">
    <path d="M2.0494 0.35516L25.6658 24.173C25.7286 24.2484 25.7809 24.3319 25.8211 24.4211L25.9167 24.5511C26.0278 24.8403 26.0278 25.1597 25.9167 25.449L25.8211 25.5789C25.7809 25.6681 25.7286 25.7516 25.6658 25.827L2.0494 49.6448C1.82763 49.8689 1.52495 49.9966 1.20796 49.9999C0.890966 50.0033 0.585623 49.8819 0.359099 49.6626C0.132575 49.4432 0.00342763 49.1439 6.72968e-05 48.8304C-0.00329304 48.5169 0.119408 48.2149 0.341179 47.9908L23.1334 25L0.341181 2.00917C0.11941 1.78514 -0.00329099 1.48315 6.93802e-05 1.16964C0.00342975 0.856125 0.132577 0.556774 0.359101 0.337437C0.585625 0.118099 0.890968 -0.0032539 1.20796 6.87174e-05C1.52495 0.00339515 1.82763 0.131123 2.0494 0.35516Z" fill="#2A3747"/>
</svg>