<svg width="26" height="50" viewBox="0 0 26 50" fill="none" xmlns="http://www.w3.org/2000/svg">
    <path d="M23.9506 0.355148L0.334182 24.173C0.271378 24.2484 0.219142 24.3319 0.178889 24.4211L0.0833214 24.5511C-0.0277721 24.8403 -0.0277721 25.1597 0.0833215 25.4489L0.178889 25.5789C0.219142 25.6681 0.271378 25.7516 0.334182 25.827L23.9506 49.6448C24.1724 49.8689 24.475 49.9966 24.792 49.9999C25.109 50.0033 25.4144 49.8819 25.6409 49.6626C25.8674 49.4432 25.9966 49.1439 25.9999 48.8304C26.0033 48.5169 25.8806 48.2149 25.6588 47.9908L2.86664 25L25.6588 2.00917C25.8806 1.78513 26.0033 1.48314 25.9999 1.16963C25.9966 0.856117 25.8674 0.556767 25.6409 0.337429C25.4144 0.118092 25.109 -0.00326153 24.792 6.1088e-05C24.475 0.0033837 24.1724 0.131115 23.9506 0.355148Z" fill="#2A3747"/>
</svg>
