<svg width="30" height="24" viewBox="0 0 30 24" fill="none" xmlns="http://www.w3.org/2000/svg">
    <path d="M19.9775 9.66983L20.137 9.94896L20.2965 10.1882C20.4161 10.3477 20.5358 10.4673 20.6953 10.5471C20.8149 10.6268 20.9744 10.6667 21.1339 10.6667C21.2934 10.6667 21.413 10.6268 21.5725 10.5471C21.6124 10.5471 21.6523 10.5072 21.6523 10.5072C21.8517 10.3876 22.0112 10.1882 22.0909 9.94896C22.1308 9.86921 22.1308 9.74959 22.1308 9.66983C22.1308 9.47045 22.0909 9.31094 21.9713 9.15144L17.0267 1.17629C16.7476 0.697782 16.1095 0.578153 15.6709 0.857284C15.1924 1.13641 15.0728 1.77442 15.3519 2.21306L19.9775 9.66983Z" fill="#2A3747"/>
    <path d="M28.4314 9.66952H23.3273C23.3273 9.74927 23.3273 9.86889 23.2875 9.94864C23.2476 10.148 23.2077 10.3474 23.128 10.5468C23.0083 10.7462 22.8887 10.9455 22.7292 11.1449C22.6096 11.2645 22.4501 11.4241 22.2906 11.5038C22.2108 11.5437 22.1311 11.6234 22.0513 11.6234C21.7722 11.7431 21.4532 11.8228 21.174 11.8228C20.855 11.8228 20.536 11.7431 20.2968 11.6234C20.0176 11.5038 19.7784 11.3443 19.579 11.105C19.4594 10.9854 19.3796 10.8658 19.2999 10.7462L19.1404 10.5069L18.7815 9.90877L18.5821 9.62964H10.0088L9.80943 9.90877L9.45055 10.5069L9.29105 10.7462C9.2113 10.8658 9.13154 10.9854 9.01192 11.105C8.81254 11.3044 8.57329 11.5038 8.29416 11.6234C8.01503 11.7431 7.73589 11.8228 7.41689 11.8228C7.09788 11.8228 6.81876 11.7431 6.53963 11.6234C6.45987 11.5836 6.34024 11.5437 6.26049 11.5038C6.10099 11.3842 5.94148 11.2645 5.82185 11.1449C5.66235 10.9854 5.50285 10.7462 5.4231 10.5468C5.38322 10.4271 5.30347 10.2676 5.30347 10.148C5.30347 10.0683 5.2636 10.0284 5.2636 9.94864C5.2636 9.86889 5.22372 9.74927 5.22372 9.66952H0.996895C0.438634 9.66952 0 10.1082 0 10.6664C0 11.2247 0.438634 11.6633 0.996895 11.6633H1.79441C1.79441 11.9823 1.83428 12.3013 1.91403 12.6203L4.82496 22.2703C5.06421 23.1077 5.90161 23.7058 6.739 23.7058H22.6096C23.447 23.7058 24.2844 23.1077 24.5236 22.2703L27.4345 12.6203C27.5542 12.3013 27.5542 11.9823 27.5542 11.6633H28.3517C28.9099 11.6633 29.3486 11.2247 29.3486 10.6664C29.3486 10.1082 28.9498 9.66952 28.4314 9.66952ZM11.6038 21.1537V15.0129C11.6038 14.4546 12.0425 14.016 12.6007 14.016C13.159 14.016 13.5976 14.4546 13.5976 15.0129V21.1537C13.5976 21.712 13.159 22.1506 12.6007 22.1506C12.0425 22.1506 11.6038 21.712 11.6038 21.1537ZM15.9902 21.1936V15.0527C15.9902 14.4945 16.4288 14.0559 16.9871 14.0559C17.5453 14.0559 17.984 14.4945 17.984 15.0527V21.1936C17.984 21.7519 17.5453 22.1905 16.9871 22.1905C16.4288 22.1905 15.9902 21.7519 15.9902 21.1936ZM20.3765 15.1325C20.3765 14.5742 20.8151 14.1356 21.3734 14.1356C21.9317 14.1356 22.3703 14.5742 22.3703 15.1325V21.2734C22.3703 21.8316 21.9317 22.2703 21.3734 22.2703C20.8151 22.2703 20.3765 21.8316 20.3765 21.2734V15.1325ZM7.25738 14.9331C7.25738 14.3749 7.69602 13.9362 8.25428 13.9362C8.81254 13.9362 9.25117 14.3749 9.25117 14.9331V21.074C9.25117 21.6323 8.81254 22.0709 8.25428 22.0709C7.69602 22.0709 7.25738 21.6323 7.25738 21.074V14.9331Z" fill="#2A3747"/>
    <path d="M6.89844 10.5072C6.93831 10.5072 6.97819 10.5471 6.97819 10.5471C7.09782 10.6268 7.25731 10.6667 7.41682 10.6667C7.57632 10.6667 7.69595 10.6268 7.85545 10.5471C8.01496 10.4673 8.17446 10.3477 8.25421 10.1882L8.41371 9.94896L8.57322 9.66983L13.1988 2.21306C13.4779 1.73455 13.3583 1.13641 12.8798 0.857284C12.4013 0.578153 11.8032 0.697782 11.524 1.17629L6.57943 9.15144C6.45981 9.31094 6.41992 9.51033 6.41992 9.66983C6.41992 9.78946 6.41992 9.86921 6.4598 9.94896C6.53955 10.1882 6.69906 10.3876 6.89844 10.5072Z" fill="#2A3747"/>
</svg>