<svg width="40" height="40" viewBox="0 0 40 40" fill="none" xmlns="http://www.w3.org/2000/svg">
    <path d="M19.9985 3.81055C11.068 3.81055 3.81103 11.071 3.81104 20.0015C3.81104 28.932 11.068 36.189 19.9985 36.189C28.929 36.189 36.1894 28.932 36.1894 20.0015C36.1895 11.071 28.929 3.81055 19.9985 3.81055ZM19.9985 5.71578C27.8996 5.71578 34.2842 12.1004 34.2842 20.0015C34.2842 27.9026 27.8996 34.2872 19.9985 34.2872C12.0974 34.2872 5.71276 27.9026 5.71275 20.0015C5.71275 12.1004 12.0974 5.71578 19.9985 5.71578Z" fill="#2A3747"/>
    <path d="M20.0003 9.81763e-05C19.8741 -0.00171472 19.7488 0.0215964 19.6317 0.0686444C19.5145 0.115692 19.4079 0.185557 19.318 0.274173C19.2281 0.36279 19.1567 0.468379 19.108 0.584828C19.0593 0.701277 19.0342 0.826263 19.0342 0.952495C19.0342 1.07873 19.0593 1.20371 19.108 1.32016C19.1567 1.43661 19.2281 1.5422 19.318 1.63082C19.4079 1.71943 19.5145 1.7893 19.6317 1.83635C19.7488 1.88339 19.8741 1.9067 20.0003 1.90489C30.0054 1.90489 38.0956 9.99514 38.0956 20.0002C38.0956 30.0052 30.0054 38.0954 20.0003 38.0954C19.8741 38.0936 19.7488 38.1169 19.6317 38.1639C19.5145 38.211 19.4079 38.2808 19.318 38.3694C19.2281 38.4581 19.1567 38.5637 19.108 38.6801C19.0593 38.7966 19.0342 38.9215 19.0342 39.0478C19.0342 39.174 19.0593 39.299 19.108 39.4154C19.1567 39.5319 19.2281 39.6375 19.318 39.7261C19.4079 39.8147 19.5145 39.8846 19.6317 39.9316C19.7488 39.9787 19.8741 40.002 20.0003 40.0002C31.0348 40.0002 40.0004 31.0346 40.0004 20.0002C40.0004 8.96572 31.0348 9.81763e-05 20.0003 9.81763e-05Z" fill="#2A3747"/>
    <path d="M1.90476 20.0002C1.90476 20.2528 1.80442 20.4951 1.62581 20.6737C1.44721 20.8523 1.20497 20.9526 0.952382 20.9526C0.699797 20.9526 0.457556 20.8523 0.278951 20.6737C0.100345 20.4951 3.16947e-06 20.2528 0 20.0002C-7.9412e-07 19.8752 0.0246328 19.7513 0.0724941 19.6358C0.120355 19.5202 0.190507 19.4153 0.278944 19.3268C0.367381 19.2384 0.472371 19.1682 0.58792 19.1204C0.703469 19.0725 0.827313 19.0479 0.952382 19.0479C1.07745 19.0479 1.2013 19.0725 1.31684 19.1204C1.43239 19.1682 1.53738 19.2384 1.62582 19.3268C1.71426 19.4153 1.78441 19.5202 1.83227 19.6358C1.88013 19.7513 1.90476 19.8752 1.90476 20.0002Z" fill="#2A3747"/>
    <path d="M15.3177 2.51998C15.1969 2.55235 15.0709 2.5606 14.9469 2.54428C14.8229 2.52795 14.7033 2.48735 14.595 2.42482C14.4867 2.36228 14.3918 2.27905 14.3156 2.17983C14.2395 2.0806 14.1836 1.96734 14.1513 1.84653C14.0859 1.60255 14.1201 1.34259 14.2464 1.12384C14.3727 0.905099 14.5807 0.745462 14.8247 0.680089C15.0687 0.614715 15.3286 0.648958 15.5474 0.775249C15.7661 0.90154 15.9258 1.10956 15.9911 1.35354C16.0235 1.47435 16.0318 1.60036 16.0154 1.72436C15.9991 1.84836 15.9585 1.96791 15.896 2.07622C15.8335 2.18453 15.7502 2.27948 15.651 2.35562C15.5517 2.43176 15.4385 2.48761 15.3177 2.51998Z" fill="#2A3747"/>
    <path d="M10.9538 4.32743C10.735 4.45373 10.4751 4.48796 10.2311 4.42259C9.9871 4.35721 9.77907 4.1976 9.65277 3.97886C9.59024 3.87054 9.54966 3.75098 9.53333 3.62698C9.51701 3.50298 9.52527 3.37697 9.55764 3.25616C9.59001 3.13536 9.64586 3.0221 9.722 2.92287C9.79813 2.82365 9.89306 2.74039 10.0014 2.67786C10.1097 2.61532 10.2292 2.57474 10.3532 2.55842C10.4772 2.54209 10.6033 2.55036 10.7241 2.58273C10.8449 2.6151 10.9581 2.67095 11.0574 2.74708C11.1566 2.82322 11.2398 2.91815 11.3024 3.02646C11.4287 3.24521 11.4629 3.50517 11.3975 3.74915C11.3321 3.99313 11.1725 4.20114 10.9538 4.32743Z" fill="#2A3747"/>
    <path d="M7.20567 7.2034C7.02707 7.38201 6.78483 7.48235 6.53225 7.48236C6.27966 7.48236 6.03743 7.38201 5.85882 7.2034C5.77038 7.11497 5.70022 7.01 5.65236 6.89445C5.6045 6.7789 5.57987 6.65505 5.57987 6.52998C5.57987 6.40491 5.6045 6.28105 5.65236 6.16551C5.70022 6.04996 5.77036 5.94497 5.8588 5.85653C6.03741 5.67793 6.27966 5.5776 6.53225 5.5776C6.78483 5.5776 7.02707 5.67794 7.20567 5.85655C7.38427 6.03516 7.48462 6.2774 7.48462 6.52998C7.48462 6.78256 7.38427 7.0248 7.20567 7.2034Z" fill="#2A3747"/>
    <path d="M4.32914 10.9515C4.20285 11.1702 3.99484 11.3299 3.75086 11.3952C3.50688 11.4606 3.24691 11.4264 3.02816 11.3001C2.91985 11.2376 2.82493 11.1543 2.74879 11.0551C2.67265 10.9559 2.61681 10.8426 2.58444 10.7218C2.55207 10.601 2.5438 10.475 2.56012 10.351C2.57645 10.227 2.61703 10.1074 2.67956 9.99912C2.7421 9.8908 2.82535 9.79588 2.92458 9.71974C3.0238 9.6436 3.13706 9.58776 3.25787 9.55539C3.37868 9.52302 3.50469 9.51475 3.62868 9.53108C3.75268 9.5474 3.87225 9.58798 3.98056 9.65051C4.19931 9.77681 4.35892 9.98484 4.42429 10.2288C4.48966 10.4728 4.45543 10.7328 4.32914 10.9515Z" fill="#2A3747"/>
    <path d="M2.52159 15.3163C2.48922 15.4371 2.43336 15.5503 2.35722 15.6496C2.28109 15.7488 2.18616 15.832 2.07784 15.8945C1.96953 15.9571 1.84997 15.9977 1.72597 16.014C1.60197 16.0303 1.47596 16.0221 1.35516 15.9897C1.23435 15.9573 1.1211 15.9015 1.02187 15.8253C0.922649 15.7492 0.839406 15.6543 0.776871 15.5459C0.714337 15.4376 0.673744 15.3181 0.65742 15.1941C0.641096 15.0701 0.649353 14.9441 0.681724 14.8233C0.714094 14.7025 0.769953 14.5892 0.846089 14.49C0.922226 14.3907 1.01715 14.3075 1.12547 14.245C1.23378 14.1824 1.35334 14.1418 1.47734 14.1255C1.60134 14.1092 1.72735 14.1174 1.84815 14.1498C1.96896 14.1822 2.08221 14.238 2.18144 14.3142C2.28066 14.3903 2.36391 14.4853 2.42644 14.5936C2.48897 14.7019 2.52957 14.8214 2.54589 14.9454C2.56222 15.0694 2.55396 15.1954 2.52159 15.3163Z" fill="#2A3747"/>
    <path d="M2.52093 24.6838C2.5533 24.8046 2.56156 24.9306 2.54524 25.0546C2.52891 25.1786 2.48832 25.2982 2.42578 25.4065C2.36325 25.5148 2.28001 25.6097 2.18078 25.6859C2.08156 25.762 1.96831 25.8179 1.8475 25.8502C1.72669 25.8826 1.60068 25.8909 1.47669 25.8745C1.35269 25.8582 1.23312 25.8176 1.12481 25.7551C1.0165 25.6925 0.92157 25.6093 0.845434 25.5101C0.769297 25.4109 0.713438 25.2976 0.681069 25.1768C0.615698 24.9328 0.649922 24.6728 0.776216 24.4541C0.90251 24.2354 1.11052 24.0757 1.3545 24.0103C1.59848 23.945 1.85844 23.9792 2.07719 24.1055C2.29594 24.2318 2.45555 24.4398 2.52093 24.6838Z" fill="#2A3747"/>
    <path d="M4.32886 29.0487C4.45515 29.2674 4.48939 29.5274 4.42401 29.7714C4.35864 30.0153 4.19901 30.2233 3.98027 30.3496C3.76152 30.4759 3.50157 30.5102 3.25759 30.4448C3.01361 30.3794 2.80561 30.2198 2.67931 30.001C2.61677 29.8927 2.57617 29.7732 2.55985 29.6492C2.54352 29.5252 2.55179 29.3992 2.58416 29.2784C2.61653 29.1576 2.67237 29.0443 2.74851 28.9451C2.82465 28.8459 2.91959 28.7626 3.0279 28.7001C3.24665 28.5738 3.5066 28.5396 3.75058 28.6049C3.99456 28.6703 4.20257 28.8299 4.32886 29.0487Z" fill="#2A3747"/>
    <path d="M7.20491 32.7963C7.38351 32.9749 7.48384 33.2171 7.48384 33.4697C7.48384 33.7223 7.3835 33.9645 7.20489 34.1432C7.02628 34.3218 6.78405 34.4221 6.53146 34.4221C6.27888 34.4221 6.03662 34.3218 5.85802 34.1432C5.76958 34.0547 5.69944 33.9497 5.65157 33.8342C5.60371 33.7187 5.57908 33.5948 5.57908 33.4697C5.57908 33.3447 5.60371 33.2208 5.65157 33.1053C5.69944 32.9897 5.76958 32.8847 5.85802 32.7963C5.94645 32.7078 6.05144 32.6377 6.16699 32.5898C6.28254 32.542 6.40639 32.5173 6.53146 32.5173C6.65653 32.5173 6.78039 32.542 6.89594 32.5898C7.01148 32.6377 7.11647 32.7078 7.20491 32.7963Z" fill="#2A3747"/>
    <path d="M10.9539 35.6723C11.1727 35.7986 11.3323 36.0067 11.3977 36.2506C11.463 36.4946 11.4288 36.7546 11.3025 36.9733C11.1762 37.1921 10.9682 37.3517 10.7242 37.4171C10.4803 37.4824 10.2203 37.4482 10.0016 37.3219C9.89324 37.2594 9.79831 37.1761 9.72217 37.0769C9.64603 36.9777 9.59019 36.8644 9.55781 36.7436C9.52544 36.6228 9.51718 36.4968 9.5335 36.3728C9.54983 36.2488 9.59041 36.1292 9.65294 36.0209C9.77924 35.8022 9.98727 35.6426 10.2312 35.5772C10.4752 35.5118 10.7352 35.5461 10.9539 35.6723Z" fill="#2A3747"/>
    <path d="M15.3182 37.4803C15.439 37.5127 15.5523 37.5686 15.6515 37.6447C15.7507 37.7208 15.834 37.8158 15.8965 37.9241C15.959 38.0324 15.9996 38.152 16.0159 38.2759C16.0323 38.3999 16.024 38.526 15.9916 38.6468C15.9593 38.7676 15.9034 38.8808 15.8273 38.9801C15.7511 39.0793 15.6562 39.1625 15.5479 39.2251C15.4396 39.2876 15.32 39.3282 15.196 39.3445C15.072 39.3609 14.946 39.3526 14.8252 39.3202C14.7044 39.2879 14.5911 39.232 14.4919 39.1559C14.3927 39.0797 14.3095 38.9848 14.2469 38.8765C14.1844 38.7682 14.1438 38.6486 14.1275 38.5246C14.1111 38.4006 14.1194 38.2746 14.1518 38.1538C14.1841 38.033 14.24 37.9197 14.3161 37.8205C14.3923 37.7213 14.4872 37.638 14.5955 37.5755C14.7038 37.513 14.8234 37.4724 14.9474 37.456C15.0714 37.4397 15.1974 37.448 15.3182 37.4803Z" fill="#2A3747"/>
    <path d="M19.9845 7.60704C19.7325 7.61071 19.4921 7.71414 19.3162 7.89468C19.1403 8.07522 19.0431 8.31814 19.046 8.5702V20.0016C19.0471 20.2538 19.1482 20.4953 19.3272 20.673L25.0394 26.3887C25.1278 26.4773 25.2327 26.5477 25.3483 26.5958C25.4639 26.6438 25.5879 26.6687 25.7131 26.6689C25.8383 26.669 25.9622 26.6446 26.078 26.5968C26.1937 26.5491 26.2989 26.479 26.3875 26.3906C26.4762 26.3022 26.5465 26.1971 26.5946 26.0815C26.6426 25.9659 26.6674 25.842 26.6676 25.7168C26.6678 25.5916 26.6432 25.4676 26.5955 25.3519C26.5477 25.2362 26.4776 25.131 26.3892 25.0424L20.9512 19.6044V8.5702C20.9526 8.44302 20.9286 8.31681 20.8805 8.19908C20.8324 8.08134 20.7612 7.97446 20.6711 7.88469C20.581 7.79491 20.4738 7.7241 20.3559 7.67641C20.238 7.62873 20.1117 7.60514 19.9845 7.60704Z" fill="#2A3747"/>
</svg>