<svg width="20" height="20" viewBox="0 0 20 20" fill="none" xmlns="http://www.w3.org/2000/svg">
    <path d="M1.22707 20C0.913179 20 0.599286 19.8801 0.359423 19.6407C-0.119808 19.162 -0.119808 18.3846 0.359423 17.9054L17.9054 0.359423C18.3846 -0.119808 19.161 -0.119808 19.6407 0.359423C20.1199 0.838161 20.1199 1.61549 19.6407 2.09472L2.09472 19.6407C1.85486 19.8806 1.54097 20 1.22707 20Z" fill="#2A3747"/>
    <path d="M18.773 20C18.4592 20 18.1453 19.8801 17.9054 19.6407L0.359423 2.09472C-0.119808 1.61599 -0.119808 0.838654 0.359423 0.359423C0.838654 -0.119808 1.615 -0.119808 2.09472 0.359423L19.6407 17.9054C20.1199 18.3841 20.1199 19.1615 19.6407 19.6407C19.4008 19.8806 19.0869 20 18.773 20Z" fill="#2A3747"/>
</svg>