<svg width="23" height="23" viewBox="0 0 23 23" fill="none" xmlns="http://www.w3.org/2000/svg">
    <path fill-rule="evenodd" clip-rule="evenodd" d="M3 4H3.85V18.1176H20V19H3V4Z" fill="#2A3747"/>
    <path fill-rule="evenodd" clip-rule="evenodd" d="M7.24995 13.2304C7.24995 13.103 7.15475 13 7.03745 13C6.71084 13 6.08907 13 5.76245 13C5.64515 13 5.54995 13.103 5.54995 13.2304C5.54995 14.0462 5.54995 16.75 5.54995 16.75H7.24995V13.2304Z" fill="#2A3747"/>
    <path fill-rule="evenodd" clip-rule="evenodd" d="M10.6499 8.73852C10.6499 8.67508 10.6276 8.61449 10.5876 8.56989C10.5479 8.52505 10.4937 8.50001 10.4374 8.50001C10.1108 8.50001 9.489 8.50001 9.16239 8.50001C9.10608 8.50001 9.05189 8.52505 9.01215 8.56989C8.9722 8.61449 8.94989 8.67508 8.94989 8.73852C8.94989 10.0923 8.94989 16.75 8.94989 16.75H10.6499V8.73852Z" fill="#2A3747"/>
    <path fill-rule="evenodd" clip-rule="evenodd" d="M14.0498 10.9766C14.0498 10.9165 14.0275 10.8589 13.9876 10.8162C13.9478 10.7738 13.8936 10.7498 13.8373 10.7498C13.5107 10.7498 12.8889 10.7498 12.5623 10.7498C12.506 10.7498 12.4518 10.7738 12.4121 10.8162C12.3721 10.8589 12.3498 10.9165 12.3498 10.9766C12.3498 12.0706 12.3498 16.7498 12.3498 16.7498H14.0498V10.9766Z" fill="#2A3747"/>
    <path fill-rule="evenodd" clip-rule="evenodd" d="M17.4498 7.22804C17.4498 7.10208 17.3546 6.99986 17.2373 6.99986C16.9107 6.99986 16.2889 6.99986 15.9623 6.99986C15.845 6.99986 15.7498 7.10208 15.7498 7.22804C15.7498 8.69597 15.7498 16.7499 15.7498 16.7499H17.4498V7.22804Z" fill="#2A3747"/>
</svg>
