<svg width="23" height="23" viewBox="0 0 23 23" fill="none" xmlns="http://www.w3.org/2000/svg">
    <path d="M17.1999 19C15.9407 19 14.9199 17.9927 14.9199 16.75C14.9199 15.5074 15.9407 14.5 17.1999 14.5C18.4591 14.5 19.4799 15.5074 19.4799 16.75C19.4799 17.9927 18.4591 19 17.1999 19Z" fill="#CA0D0D"/>
    <path d="M5.79993 19C4.54072 19 3.51993 17.9927 3.51993 16.75C3.51993 15.5074 4.54072 14.5 5.79993 14.5C7.05914 14.5 8.07993 15.5074 8.07993 16.75C8.07993 17.9927 7.05914 19 5.79993 19Z" fill="#CA0D0D"/>
    <path d="M13.4 7.75004C13.4 7.54292 13.5701 7.37504 13.78 7.37504H16.82C16.9328 7.37504 17.0399 7.4245 17.1121 7.51005L20.9118 12.0097C20.9688 12.0771 21 12.1622 21 12.25V16.75C21 16.957 20.8299 17.1249 20.62 17.1249H20.2136C20.2293 17.0018 20.24 16.8772 20.24 16.75C20.24 15.0958 18.8762 13.75 17.2 13.75C15.5238 13.75 14.16 15.0958 14.16 16.75C14.16 16.8772 14.1707 17.0018 14.1864 17.1249H8.81361C8.82926 17.0018 8.84 16.8772 8.84 16.75C8.84 15.0958 7.47623 13.75 5.8 13.75C4.12377 13.75 2.76 15.0958 2.76 16.75C2.76 16.8772 2.77074 17.0018 2.78639 17.1249H2.38C2.17012 17.1249 2 16.957 2 16.75V13.375H13.4V7.75004ZM14.16 11.875H19.8087L16.6419 8.12503H14.16V11.875Z" fill="#CA0D0D"/>
    <path d="M3.52014 4H12.6401V12.6249H2.00014V5.49999C2.00014 4.67124 2.68033 4 3.52014 4ZM4.28014 11.8749H6.56014C6.76914 11.8749 6.94014 11.7062 6.94014 11.4999C6.94014 11.2937 6.76914 11.1249 6.56014 11.1249H4.28014C4.07115 11.1249 3.90014 11.2937 3.90014 11.4999C3.90014 11.7062 4.07115 11.8749 4.28014 11.8749ZM4.28014 10.3749H8.08014C8.28914 10.3749 8.46014 10.2062 8.46014 9.99994C8.46014 9.7937 8.28914 9.62495 8.08014 9.62495H4.28014C4.07115 9.62495 3.90014 9.7937 3.90014 9.99994C3.90014 10.2062 4.07115 10.3749 4.28014 10.3749ZM4.28014 8.87495H9.60014C9.80914 8.87495 9.98014 8.7062 9.98014 8.49996C9.98014 8.29371 9.80914 8.12496 9.60014 8.12496H4.28014C4.07115 8.12496 3.90014 8.29371 3.90014 8.49996C3.90014 8.7062 4.07115 8.87495 4.28014 8.87495Z" fill="#CA0D0D"/>
</svg>
