<svg width="23" height="23" viewBox="0 0 23 23" fill="none" xmlns="http://www.w3.org/2000/svg">
    <path d="M10.1431 8.9553C10.1431 9.12307 10.0933 9.28706 10.0001 9.42655C9.90692 9.56604 9.77444 9.67475 9.61945 9.73895C9.46446 9.80315 9.29391 9.81995 9.12938 9.78722C8.96484 9.75449 8.8137 9.67371 8.69508 9.55508C8.57645 9.43646 8.49567 9.28532 8.46294 9.12078C8.43021 8.95625 8.44701 8.7857 8.51121 8.63071C8.57541 8.47572 8.68412 8.34324 8.82361 8.25004C8.9631 8.15684 9.12709 8.10709 9.29486 8.10709C9.51982 8.10709 9.73556 8.19646 9.89463 8.35553C10.0537 8.5146 10.1431 8.73034 10.1431 8.9553Z" fill="#2A3747"/>
    <path d="M19.6395 13.6816C19.8363 12.942 21 12.3041 21 11.5C21 10.6959 19.8363 10.058 19.6395 9.31839C19.4359 8.55161 20.1179 7.41839 19.7277 6.75C19.3341 6.06804 18.0075 6.09518 17.4579 5.54214C16.9082 4.98911 16.932 3.66589 16.25 3.27232C15.5816 2.88554 14.4484 3.56411 13.6816 3.36054C12.942 3.16375 12.3041 2 11.5 2C10.6959 2 10.058 3.16375 9.31839 3.36054C8.55161 3.56411 7.41839 2.88214 6.75 3.27232C6.06804 3.66589 6.09518 4.9925 5.54214 5.54214C4.98911 6.09179 3.66589 6.06804 3.27232 6.75C2.88554 7.41839 3.56411 8.55161 3.36054 9.31839C3.16375 10.058 2 10.6959 2 11.5C2 12.3041 3.16375 12.942 3.36054 13.6816C3.56411 14.4484 2.88214 15.5816 3.27232 16.25C3.66589 16.932 4.9925 16.9048 5.54214 17.4579C6.09179 18.0109 6.06804 19.3341 6.75 19.7277C7.41839 20.1145 8.55161 19.4359 9.31839 19.6395C10.058 19.8363 10.6959 21 11.5 21C12.3041 21 12.942 19.8363 13.6816 19.6395C14.4484 19.4359 15.5816 20.1179 16.25 19.7277C16.932 19.3341 16.9048 18.0075 17.4579 17.4579C18.0109 16.9082 19.3341 16.932 19.7277 16.25C20.1145 15.5816 19.4359 14.4484 19.6395 13.6816ZM9.29464 7.08929C9.66372 7.08929 10.0245 7.19873 10.3314 7.40378C10.6383 7.60882 10.8774 7.90026 11.0187 8.24124C11.1599 8.58222 11.1969 8.95743 11.1249 9.31941C11.0529 9.68139 10.8751 10.0139 10.6142 10.2749C10.3532 10.5358 10.0207 10.7136 9.6587 10.7856C9.29671 10.8576 8.92151 10.8206 8.58053 10.6794C8.23955 10.5381 7.94811 10.299 7.74306 9.99209C7.53801 9.68522 7.42857 9.32443 7.42857 8.95536C7.42947 8.46072 7.62636 7.9866 7.97612 7.63684C8.32588 7.28707 8.80001 7.09018 9.29464 7.08929ZM8.31411 15.7445C8.22322 15.8443 8.09638 15.904 7.96149 15.9104C7.8266 15.9168 7.6947 15.8693 7.59482 15.7784C7.49494 15.6875 7.43525 15.5607 7.42889 15.4258C7.42253 15.2909 7.47001 15.159 7.56089 15.0591L14.6859 7.25554C14.7309 7.20608 14.7852 7.16597 14.8457 7.1375C14.9062 7.10903 14.9717 7.09275 15.0385 7.0896C15.1053 7.08645 15.1721 7.09649 15.235 7.11914C15.2979 7.14179 15.3557 7.17661 15.4052 7.22161C15.4546 7.26661 15.4947 7.32091 15.5232 7.38141C15.5517 7.44191 15.568 7.50743 15.5711 7.57422C15.5743 7.64101 15.5642 7.70777 15.5416 7.77069C15.5189 7.8336 15.4841 7.89144 15.4391 7.94089L8.31411 15.7445ZM13.7054 15.9107C13.3363 15.9107 12.9755 15.8013 12.6686 15.5962C12.3617 15.3912 12.1226 15.0997 11.9813 14.7588C11.8401 14.4178 11.8031 14.0426 11.8751 13.6806C11.9471 13.3186 12.1249 12.9861 12.3858 12.7251C12.6468 12.4642 12.9793 12.2864 13.3413 12.2144C13.7033 12.1424 14.0785 12.1794 14.4195 12.3206C14.7605 12.4619 15.0519 12.701 15.2569 13.0079C15.462 13.3148 15.5714 13.6756 15.5714 14.0446C15.5705 14.5393 15.3736 15.0134 15.0239 15.3632C14.6741 15.7129 14.2 15.9098 13.7054 15.9107Z" fill="#2A3747"/>
    <path d="M14.5535 14.0447C14.5535 14.2124 14.5038 14.3764 14.4106 14.5159C14.3174 14.6554 14.1849 14.7641 14.0299 14.8283C13.8749 14.8925 13.7044 14.9093 13.5398 14.8766C13.3753 14.8439 13.2242 14.7631 13.1055 14.6444C12.9869 14.5258 12.9061 14.3747 12.8734 14.2101C12.8407 14.0456 12.8575 13.8751 12.9217 13.7201C12.9859 13.5651 13.0946 13.4326 13.2341 13.3394C13.3735 13.2462 13.5375 13.1965 13.7053 13.1965C13.8167 13.1965 13.927 13.2184 14.0299 13.261C14.1328 13.3036 14.2263 13.3661 14.3051 13.4449C14.3838 13.5237 14.4463 13.6172 14.489 13.7201C14.5316 13.823 14.5535 13.9333 14.5535 14.0447Z" fill="#2A3747"/>
</svg>
