<svg width="23" height="23" viewBox="0 0 23 23" fill="none" xmlns="http://www.w3.org/2000/svg">
    <path d="M18.4545 1H4.54545C3.69581 1 3 1.63032 3 2.4V20.6C3 21.3697 3.69581 22 4.54545 22H18.4545C19.3042 22 20 21.3697 20 20.6V2.4C20 1.63032 19.3042 1 18.4545 1ZM9.18182 3.8H13.8182C14.243 3.8 14.5909 4.11516 14.5909 4.5C14.5909 4.88484 14.243 5.2 13.8182 5.2H9.18182C8.75699 5.2 8.40909 4.88484 8.40909 4.5C8.40909 4.11516 8.75699 3.8 9.18182 3.8ZM6.86364 7.3H16.1364C16.5612 7.3 16.9091 7.61516 16.9091 8C16.9091 8.38484 16.5612 8.7 16.1364 8.7H6.86364C6.43881 8.7 6.09091 8.38484 6.09091 8C6.09091 7.61516 6.43881 7.3 6.86364 7.3ZM11.1136 13.3103C11.1136 11.9595 12.0711 10.4138 13.8182 10.4138C15.9348 10.4138 16.5227 11.9595 16.5227 13.3103C16.5227 14.6611 15.5652 16.05 13.8182 16.05C12.2391 16.05 11.1136 14.6611 11.1136 13.3103ZM8.40909 19.2H6.86364C6.43881 19.2 6.09091 18.8848 6.09091 18.5C6.09091 18.1152 6.43881 17.8 6.86364 17.8H8.40909C8.83392 17.8 9.18182 18.1152 9.18182 18.5C9.18182 18.8848 8.83392 19.2 8.40909 19.2ZM8.40909 15.7H6.86364C6.43881 15.7 6.09091 15.3848 6.09091 15C6.09091 14.6152 6.43881 14.3 6.86364 14.3H8.40909C8.83392 14.3 9.18182 14.6152 9.18182 15C9.18182 15.3848 8.83392 15.7 8.40909 15.7ZM8.40909 12.2H6.86364C6.43881 12.2 6.09091 11.8848 6.09091 11.5C6.09091 11.1152 6.43881 10.8 6.86364 10.8H8.40909C8.83392 10.8 9.18182 11.1152 9.18182 11.5C9.18182 11.8848 8.83392 12.2 8.40909 12.2ZM13.8182 18.5L12.2727 19.2V16.4069C12.7407 16.6194 13.2605 16.75 13.8182 16.75C14.3758 16.75 14.8958 16.6194 15.3636 16.4069V19.2L13.8182 18.5Z" fill="#2A3747"/>
</svg>
