<svg width="14" height="14" viewBox="0 0 14 14" fill="none" xmlns="http://www.w3.org/2000/svg">
    <circle cx="7" cy="7" r="7" fill="#CA0D0D"/>
    <path d="M7.00671 9.39276C6.65772 9.39276 6.4698 9.20056 6.44295 8.81616L6.04027 4.02786C6.01342 3.71866 6.08501 3.47214 6.25503 3.2883C6.42506 3.0961 6.67562 3 7.00671 3C7.32886 3 7.57047 3.0961 7.73154 3.2883C7.90157 3.47214 7.97315 3.71866 7.94631 4.02786L7.54362 8.81616C7.51678 9.20056 7.33781 9.39276 7.00671 9.39276ZM7.00671 12C6.70246 12 6.45638 11.9123 6.26846 11.7368C6.08949 11.5613 6 11.3357 6 11.0599C6 10.7925 6.08949 10.5752 6.26846 10.4081C6.45638 10.2326 6.70246 10.1448 7.00671 10.1448C7.31991 10.1448 7.56152 10.2326 7.73154 10.4081C7.91051 10.5752 8 10.7925 8 11.0599C8 11.3357 7.91051 11.5613 7.73154 11.7368C7.56152 11.9123 7.31991 12 7.00671 12Z" fill="white"/>
</svg>