<svg width="31" height="13" viewBox="0 0 31 13" fill="none" xmlns="http://www.w3.org/2000/svg">
    <path d="M12.7525 0C11.9328 0 11.2729 0.621212 11.2729 1.39286V11.6071C11.2729 12.3788 11.9328 13 12.7525 13H29.5207C30.3403 13 31.0002 12.3788 31.0002 11.6071V1.39286C31.0002 0.621212 30.3403 0 29.5207 0H12.7525ZM13.9238 2.08203C13.9985 2.07418 14.0742 2.08251 14.145 2.1064C14.2158 2.13029 14.2798 2.1691 14.3322 2.21987L20.4353 7.8566C20.8172 8.20934 21.4395 8.20941 21.8224 7.8566L27.941 2.21987C27.9867 2.1756 28.0413 2.14036 28.1017 2.11621C28.162 2.09206 28.2269 2.07949 28.2925 2.07923C28.3581 2.07896 28.423 2.09101 28.4836 2.11468C28.5442 2.13834 28.5992 2.17315 28.6453 2.21705C28.6914 2.26094 28.7277 2.31305 28.7522 2.37034C28.7767 2.42762 28.7888 2.48893 28.7878 2.55067C28.7868 2.6124 28.7727 2.67332 28.7464 2.72987C28.72 2.78643 28.682 2.83747 28.6345 2.88002L24.6351 6.57254L28.6268 10.1055C28.7212 10.1903 28.776 10.3068 28.7794 10.4296C28.7827 10.5524 28.7342 10.6714 28.6445 10.7607C28.5548 10.8499 28.4313 10.902 28.3009 10.9057C28.1705 10.9093 28.0438 10.8642 27.9487 10.7801L23.9339 7.21821L22.516 8.52401C21.7516 9.2284 20.5058 9.22979 19.7418 8.52401L18.3393 7.22545L14.3245 10.7801C14.2294 10.8642 14.1027 10.9093 13.9723 10.9057C13.8419 10.902 13.7183 10.8499 13.6286 10.7607C13.539 10.6714 13.4905 10.5524 13.4938 10.4296C13.4971 10.3068 13.552 10.1903 13.6464 10.1055L17.6304 6.57254L13.6387 2.88002C13.5706 2.81908 13.5224 2.74112 13.4998 2.65528C13.4772 2.56943 13.4811 2.47929 13.511 2.39546C13.541 2.31163 13.5957 2.2376 13.6689 2.18208C13.742 2.12655 13.8304 2.09184 13.9238 2.08203Z" fill="white"/>
    <path d="M8.45455 2.6001H0.939394C0.690251 2.6001 0.451313 2.68228 0.275142 2.82855C0.0989715 2.97483 0 3.17323 0 3.3801C0 3.58697 0.0989715 3.78536 0.275142 3.93164C0.451313 4.07792 0.690251 4.1601 0.939394 4.1601H8.45455C8.70369 4.1601 8.94263 4.07792 9.1188 3.93164C9.29497 3.78536 9.39394 3.58697 9.39394 3.3801C9.39394 3.17323 9.29497 2.97483 9.1188 2.82855C8.94263 2.68228 8.70369 2.6001 8.45455 2.6001Z" fill="white"/>
    <path d="M8.45466 5.71997H2.8183C2.56916 5.71997 2.33022 5.80215 2.15405 5.94843C1.97788 6.09471 1.87891 6.2931 1.87891 6.49997C1.87891 6.70684 1.97788 6.90524 2.15405 7.05151C2.33022 7.19779 2.56916 7.27997 2.8183 7.27997H8.45466C8.70381 7.27997 8.94274 7.19779 9.11892 7.05151C9.29509 6.90524 9.39406 6.70684 9.39406 6.49997C9.39406 6.2931 9.29509 6.09471 9.11892 5.94843C8.94274 5.80215 8.70381 5.71997 8.45466 5.71997Z" fill="white"/>
    <path d="M8.45478 8.84009H4.69721C4.44806 8.84009 4.20913 8.92227 4.03295 9.06854C3.85678 9.21482 3.75781 9.41322 3.75781 9.62009C3.75781 9.82696 3.85678 10.0254 4.03295 10.1716C4.20913 10.3179 4.44806 10.4001 4.69721 10.4001H8.45478C8.70393 10.4001 8.94286 10.3179 9.11903 10.1716C9.2952 10.0254 9.39418 9.82696 9.39418 9.62009C9.39418 9.41322 9.2952 9.21482 9.11903 9.06854C8.94286 8.92227 8.70393 8.84009 8.45478 8.84009Z" fill="white"/>
</svg>