<svg width="23" height="23" viewBox="0 0 23 23" fill="none" xmlns="http://www.w3.org/2000/svg">
    <path d="M11.8843 0C5.73752 0 0.768577 4.9656 0.768577 11.1082C0.768577 13.2048 1.35749 15.1543 2.35128 16.8095L0.0692444 21.8486C-0.225212 22.5475 0.474121 23.2463 1.13665 22.9153L6.1792 20.598C7.83552 21.5911 9.78629 22.1797 11.8843 22.1797C18.0311 22.2164 23 17.2508 23 11.1082C23 4.9656 18.0311 0 11.8843 0ZM11.8107 17.9865C11.0009 17.9865 10.3016 17.3244 10.3016 16.4784C10.3016 15.6692 10.9641 14.9704 11.8107 14.9704C12.6204 14.9704 13.3198 15.6324 13.3198 16.4784C13.283 17.3244 12.6204 17.9865 11.8107 17.9865ZM13.651 11.9174C12.9517 12.5059 12.9517 12.8002 12.9517 12.9105V13.4255C12.9517 13.7198 12.7308 13.9404 12.4364 13.9404H11.0745C10.7801 13.9404 10.5592 13.7198 10.5592 13.4255V12.9105C10.5592 11.8806 11.0745 10.9611 12.1419 10.0783C12.8781 9.45302 13.6878 8.75416 13.6878 8.0553C13.6878 7.0254 13.2093 6.58401 11.9947 6.58401C10.1544 6.58401 10.1176 7.94495 10.1176 8.01852V8.27599C10.1176 8.57025 9.89671 8.79094 9.60225 8.79094H8.2404C7.94594 8.79094 7.7251 8.57025 7.7251 8.27599V8.01852C7.7251 6.51045 8.86612 4.22995 11.9579 4.22995C14.9761 4.22995 16.0435 6.21619 16.0435 8.09208C16.0435 9.93119 14.5344 11.1818 13.651 11.9174Z" fill="white"/>
</svg>