<svg width="19" height="18" viewBox="0 0 19 18" fill="none" xmlns="http://www.w3.org/2000/svg">
<path d="M11.8958 8.99759L18.2688 15.4082C18.8606 16.0062 18.8606 16.9488 18.2688 17.5516C17.6747 18.1495 16.7379 18.1495 16.1437 17.5516L9.77059 11.1337L3.3999 17.5492C2.80572 18.1471 1.87132 18.1471 1.27474 17.5492C0.680556 16.9464 0.680556 16.0037 1.27474 15.4058L7.64783 8.99518L1.27474 2.58452C0.680556 1.9842 0.680556 1.04634 1.27474 0.448433C1.87132 -0.149478 2.80572 -0.149478 3.3999 0.448433L9.77059 6.86151L16.1461 0.448433C16.7403 -0.149478 17.6771 -0.149478 18.2712 0.448433C18.863 1.04875 18.863 1.98661 18.2712 2.58452L11.8958 8.99759Z" fill="white"/>
</svg>
