<svg width="27" height="18" viewBox="0 0 27 18" fill="none" xmlns="http://www.w3.org/2000/svg">
<path d="M27 1.89625C27 2.94265 26.1532 3.79249 25.1105 3.79249H1.88948C0.84681 3.79249 0 2.94265 0 1.89625C0 0.849842 0.84681 0 1.88948 0H25.1105C26.1532 0 27 0.849842 27 1.89625Z" fill="white"/>
<path d="M27 9.00147C27 10.0479 26.1532 10.8977 25.1105 10.8977H1.88948C0.84681 10.8977 0 10.0479 0 9.00147C0 7.95507 0.84681 7.10522 1.88948 7.10522H25.1105C26.1532 7.10522 27 7.95507 27 9.00147Z" fill="white"/>
<path d="M27 16.1038C27 17.1502 26.1532 18 25.1105 18H1.88948C0.84681 18 0 17.1502 0 16.1038C0 15.0574 0.84681 14.2075 1.88948 14.2075H25.1105C26.1532 14.2075 27 15.0574 27 16.1038Z" fill="white"/>
</svg>
