<svg width="22" height="18" viewBox="0 0 22 18" fill="none" xmlns="http://www.w3.org/2000/svg">
    <path d="M11.4948 16.9887C11.4721 17.0019 11.4502 17.0147 11.4291 17.0269C11.4064 17.0131 11.3828 16.9988 11.3582 16.9837C11.0777 16.8125 10.6748 16.5597 10.1904 16.2365C9.22028 15.5891 7.9304 14.6637 6.64408 13.549C5.35459 12.4317 4.08918 11.1416 3.15107 9.76802C2.20972 8.38975 1.63574 6.98322 1.63574 5.61706V5.61701C1.63568 4.64281 1.97838 3.68857 2.62208 2.90055C3.26664 2.11146 4.17907 1.53157 5.2258 1.26027C6.27279 0.988901 7.38707 1.04395 8.39549 1.41562C9.40351 1.78715 10.2421 2.45121 10.7914 3.29563L11.4206 4.26288L12.0491 3.29516C12.4812 2.62979 13.0948 2.07298 13.8355 1.68365C14.5762 1.2943 15.416 1.08735 16.2733 1.08594C17.598 1.08608 18.8584 1.57579 19.7797 2.43209L20.2903 1.88274L19.7797 2.43209C20.6992 3.28678 21.2044 4.43376 21.2044 5.61706C21.2044 7.06686 20.625 8.51378 19.6872 9.90053C18.7508 11.2852 17.488 12.5636 16.2009 13.6602C14.9168 14.7542 13.6291 15.6498 12.6604 16.2727C12.1769 16.5836 11.7747 16.8254 11.4948 16.9887Z" stroke="white" stroke-width="1.5"/>
</svg>