<svg width="25" height="25" viewBox="0 0 25 25" fill="none" xmlns="http://www.w3.org/2000/svg">
<path d="M17.5115 0.596387C17.8488 0.88181 18.2343 1.2148 18.6679 1.5478C19.1498 1.88079 19.5835 2.21378 20.0653 2.54677C20.2099 2.68949 20.4026 2.8322 20.5953 2.87977C21.2699 3.02248 21.0772 3.54575 21.1736 3.97389C21.1736 4.02146 21.1254 4.1166 21.1254 4.1166C20.6917 4.25931 20.258 4.54473 19.8244 4.54473C19.3425 4.54473 18.957 4.44959 18.5716 4.87772C18.4752 4.97286 18.2825 5.02043 17.9933 5.11558C18.3306 5.44857 18.5716 5.68642 18.9089 5.97184C18.5234 6.44755 18.7643 6.87568 19.0534 7.35138C19.198 7.58924 19.3907 7.82709 19.4871 8.11251C19.7762 8.87364 20.0171 9.63476 20.258 10.491C20.8844 10.4435 21.6554 10.3959 22.4264 10.3483C23.0046 10.3007 23.3419 10.4435 23.6792 10.9667C23.9201 11.3473 24.2574 11.7279 24.6429 12.0133C25.2693 12.5366 25.0283 14.2015 24.2574 14.6772C24.1128 14.7724 23.7273 14.6772 23.6792 14.5821C23.5828 14.2967 23.4382 13.8685 23.5828 13.6307C23.9683 12.822 24.0165 12.822 23.3901 12.156C22.9082 11.5851 22.3782 11.2046 21.559 11.3473C21.0772 11.4424 20.9326 11.6327 20.9808 12.1084C21.029 12.7744 21.1254 13.488 21.029 14.1539C20.9808 14.5821 20.6917 15.0578 20.4026 15.3908C20.2099 15.6286 19.728 15.6762 19.3425 15.7713C19.3425 15.6286 19.2943 15.4384 19.2943 15.2481C19.2943 14.9151 19.1498 14.7724 18.8607 14.5821C18.4752 14.2967 18.2343 13.821 17.9933 13.4404C17.8488 13.2025 17.7042 12.9647 17.5115 12.6793C17.2706 12.8696 17.0297 12.9647 16.8851 13.155C16.0178 14.2491 14.8132 14.8675 13.464 15.1529C13.3194 15.2005 13.1749 15.3908 13.1267 15.5335C13.0303 15.8665 12.9821 16.247 12.8858 16.58C12.693 17.3887 12.2594 18.0547 11.4884 18.5304C10.8138 18.911 10.862 19.9575 11.5848 20.3381C11.8257 20.4808 12.1148 20.5284 12.4039 20.6235C12.8376 20.8138 13.3676 20.9089 13.7049 21.1944C14.5722 21.9555 15.5841 22.3361 16.6442 22.7642C18.1379 23.3826 19.5835 24.1913 21.029 25C20.8363 25 20.6435 25 20.499 25C13.8976 25 7.29631 25 0.743173 25C-0.0277846 25 -0.124154 24.8097 0.11677 24.0962C0.357694 23.4302 0.405879 22.6215 1.22502 22.3361C1.27321 22.3361 1.27321 22.1933 1.32139 22.1458C1.41776 21.0992 1.70687 20.0527 1.80324 19.0061C1.99598 17.246 3.00786 15.8189 3.73063 14.2967C3.77882 14.2015 3.827 14.154 3.92337 14.1064C4.54978 13.6307 4.93526 13.0598 5.27255 12.3938C5.70621 11.5851 6.47717 10.8716 7.24813 10.3007C8.16364 9.63476 8.5973 8.77849 8.40457 7.73195C8.16364 6.25726 8.69367 4.97286 9.27189 3.68846C9.36826 3.49818 9.51282 3.26033 9.65737 3.16519C10.1874 2.87977 10.091 2.54677 9.8983 2.11864C9.80193 1.83322 9.70556 1.50022 9.70556 1.2148C9.75374 0.92938 9.85011 0.596387 10.0429 0.453676C11.0547 -0.30745 11.5848 -0.117169 11.9221 1.07209C12.0184 1.35751 11.8739 1.78565 11.7293 2.07107C11.6811 2.35649 11.633 2.59434 11.9702 2.8322C12.3075 3.07005 12.5966 3.40304 12.9821 3.64089C13.0785 3.73603 13.3676 3.68846 13.4158 3.64089C13.6085 3.35547 13.9458 2.97491 13.8976 2.64191C13.8976 2.07107 14.2349 1.88079 14.6204 1.64294C14.9577 1.45265 15.3432 1.30994 15.7287 1.16723C16.3069 0.97695 16.8369 0.786669 17.5115 0.596387ZM12.5003 22.0506C12.2594 21.9555 11.9221 21.9079 11.8257 21.7176C11.4402 21.0992 10.8138 20.9565 10.2356 20.6235C8.74186 19.8148 8.64549 20.0051 9.60919 18.578C9.85011 18.1974 9.94648 17.7217 9.60919 17.4839C9.32008 17.246 8.88641 17.246 8.45275 17.579C7.9709 18.0072 7.39268 18.2926 6.86265 18.7207C6.71809 18.8158 6.62173 19.0061 6.62173 19.1488C6.66991 20.5284 7.29631 21.2419 8.64549 21.6701C9.94648 22.0982 11.1993 22.1933 12.5003 22.0506ZM6.09169 20.9089C6.13988 20.9089 6.18806 20.8614 6.28443 20.8614C6.09169 20.5284 5.94714 20.1478 5.70621 19.8148C5.03163 18.911 5.03163 18.7207 5.85077 17.9596C5.94714 17.8644 6.09169 17.7693 6.18806 17.6742C6.47717 17.3887 6.42899 16.9606 6.09169 16.7228C5.80258 16.5325 5.51347 16.3422 5.07981 16.0092C4.83889 16.3898 4.50159 16.8179 4.30885 17.2936C4.06793 17.912 4.01974 18.5304 3.77882 19.1488C3.63426 19.6245 3.77882 19.8624 4.1643 20.0527C4.83889 20.3381 5.46529 20.6235 6.09169 20.9089ZM19.9207 14.0112C20.2099 13.2977 20.258 12.6793 19.8244 12.0133C19.3425 12.2036 18.8607 12.3938 18.1861 12.6317C18.8607 13.155 19.3425 13.5355 19.9207 14.0112Z" fill="#CA0D0D"/>
</svg>
