<svg width="42" height="50" viewBox="0 0 42 50" fill="none" xmlns="http://www.w3.org/2000/svg">
    <path d="M18.4843 0H18.0349C14.4966 0.00540068 11.1049 1.39629 8.60343 3.86768C6.10197 6.33908 4.69493 9.68927 4.69083 13.1837V18.7959C4.22588 18.8725 3.76093 18.9541 3.29598 19.0408L3.07384 19.0816C2.20973 19.2432 1.42983 19.6976 0.868667 20.3664C0.307508 21.0351 0.000285654 21.8763 0 22.7449V39.4745C0.000285654 40.343 0.307508 41.1843 0.868667 41.853C1.42983 42.5218 2.20973 42.9762 3.07384 43.1378L4.58234 43.4184C9.0908 44.2593 13.6689 44.6829 18.257 44.6837C18.5996 44.6837 18.9281 44.5493 19.1703 44.3101C19.4125 44.0709 19.5486 43.7465 19.5486 43.4082C19.5486 43.0699 19.4125 42.7455 19.1703 42.5062C18.9281 42.267 18.5996 42.1327 18.257 42.1327C13.83 42.1308 9.41272 41.7208 5.06279 40.9082L3.55428 40.6276C3.28202 40.5766 3.03619 40.4337 2.85898 40.2233C2.68176 40.0129 2.58421 39.7482 2.58305 39.4745V22.7194C2.58421 22.4457 2.68176 22.181 2.85898 21.9706C3.03619 21.7602 3.28202 21.6173 3.55428 21.5663L3.77643 21.5255C13.3495 19.7452 23.1749 19.7452 32.748 21.5255L32.9649 21.5663C33.2353 21.6194 33.4787 21.7632 33.6539 21.9734C33.8291 22.1836 33.9252 22.4472 33.9258 22.7194V26.352C33.9258 26.6903 34.0619 27.0148 34.3041 27.254C34.5463 27.4932 34.8748 27.6276 35.2174 27.6276C35.5599 27.6276 35.8884 27.4932 36.1306 27.254C36.3728 27.0148 36.5089 26.6903 36.5089 26.352V22.7194C36.5086 21.8508 36.2014 21.0096 35.6402 20.3409C35.0791 19.6721 34.2992 19.2177 33.4351 19.0561L33.2181 19.0153C32.7531 18.9286 32.2882 18.852 31.8232 18.7704V13.1582C31.8123 9.66907 30.403 6.32618 27.9034 3.86044C25.4038 1.3947 22.0173 0.00672689 18.4843 0V0ZM7.27388 13.1837C7.27662 10.3645 8.41179 7.66166 10.4302 5.66824C12.4487 3.67481 15.1855 2.55372 18.0401 2.55102H18.4895C19.9047 2.54968 21.3063 2.82364 22.6143 3.35725C23.9223 3.89087 25.111 4.67369 26.1127 5.66102C27.1143 6.64836 27.9093 7.82087 28.4521 9.1116C28.9949 10.4023 29.275 11.786 29.2763 13.1837V18.3673C28.2431 18.2245 27.1961 18.1037 26.1353 18.0051V13.199C26.134 12.2063 25.9346 11.2235 25.5485 10.307C25.1624 9.3904 24.5973 8.55794 23.8853 7.85717C23.1733 7.1564 22.3285 6.60106 21.3991 6.22286C20.4698 5.84467 19.474 5.65105 18.4688 5.65306H18.0556C16.03 5.65576 14.0881 6.45164 12.6558 7.86619C11.2235 9.28074 10.4176 11.1985 10.4149 13.199V18.0153C9.38166 18.1173 8.33466 18.2381 7.27388 18.3776V13.1837ZM12.9979 17.8112V13.2194C12.9993 11.8951 13.5326 10.6254 14.4808 9.68895C15.429 8.75252 16.7146 8.22584 18.0556 8.22449H18.4688C19.8098 8.22584 21.0954 8.75252 22.0436 9.68895C22.9918 10.6254 23.5251 11.8951 23.5265 13.2194V17.8112C20.0206 17.5863 16.5037 17.5863 12.9979 17.8112V17.8112Z" fill="#2A3747"/>
    <path d="M41.1582 40.306L29.5913 36.0969C29.3576 36.0099 29.1034 35.9917 28.8595 36.0444C28.6156 36.0972 28.3924 36.2186 28.2169 36.3941C28.0414 36.5695 27.9212 36.7915 27.8708 37.033C27.8204 37.2746 27.842 37.5254 27.933 37.755L32.1847 49.1887C32.2738 49.4154 32.4267 49.6122 32.6253 49.7559C32.8239 49.8997 33.06 49.9843 33.3057 49.9999H33.409C33.6424 49.9996 33.8713 49.9367 34.0715 49.8182C34.2716 49.6996 34.4354 49.5297 34.5456 49.3265L36.2814 46.1326L39.3811 49.1938C39.5012 49.3124 39.6437 49.4065 39.8006 49.4707C39.9575 49.5348 40.1257 49.5679 40.2955 49.5679C40.4653 49.5679 40.6334 49.5348 40.7903 49.4707C40.9472 49.4065 41.0898 49.3124 41.2099 49.1938C41.33 49.0752 41.4252 48.9344 41.4902 48.7795C41.5552 48.6245 41.5886 48.4585 41.5886 48.2907C41.5886 48.123 41.5552 47.957 41.4902 47.802C41.4252 47.6471 41.33 47.5063 41.2099 47.3877L38.1102 44.3265L41.3442 42.6122C41.5585 42.4926 41.7337 42.315 41.8492 42.1003C41.9647 41.8856 42.0156 41.6428 41.9961 41.4005C41.9765 41.1582 41.8873 40.9264 41.7389 40.7325C41.5904 40.5386 41.389 40.3907 41.1582 40.306V40.306ZM33.6209 45.6224L31.3426 39.4387L37.6039 41.7091L35.3722 42.8928C35.154 43.0104 34.9747 43.1875 34.8556 43.403L33.6209 45.6224Z" fill="#2A3747"/>
    <path d="M37.1959 30.8011L35.3309 32.6532C35.2108 32.7718 35.1156 32.9126 35.0506 33.0675C34.9856 33.2225 34.9521 33.3885 34.9521 33.5562C34.9521 33.724 34.9856 33.89 35.0506 34.045C35.1156 34.1999 35.2108 34.3407 35.3309 34.4593C35.451 34.5779 35.5935 34.672 35.7504 34.7361C35.9073 34.8003 36.0755 34.8334 36.2453 34.8334C36.4151 34.8334 36.5833 34.8003 36.7402 34.7361C36.8971 34.672 37.0396 34.5779 37.1597 34.4593L39.0195 32.6226C39.1396 32.504 39.2348 32.3632 39.2998 32.2082C39.3648 32.0533 39.3983 31.8872 39.3983 31.7195C39.3983 31.5518 39.3648 31.3857 39.2998 31.2308C39.2348 31.0758 39.1396 30.935 39.0195 30.8164C38.8994 30.6979 38.7569 30.6038 38.6 30.5396C38.4431 30.4754 38.2749 30.4424 38.1051 30.4424C37.9353 30.4424 37.7671 30.4754 37.6102 30.5396C37.4533 30.6038 37.3108 30.6979 37.1907 30.8164L37.1959 30.8011Z" fill="#2A3747"/>
    <path d="M23.4905 47.413C23.6603 47.4136 23.8284 47.381 23.9854 47.3171C24.1423 47.2532 24.2849 47.1592 24.4049 47.0406L26.2647 45.2039C26.5072 44.9644 26.6434 44.6395 26.6434 44.3008C26.6434 43.9621 26.5072 43.6372 26.2647 43.3977C26.0222 43.1582 25.6933 43.0237 25.3503 43.0237C25.0073 43.0237 24.6784 43.1582 24.4359 43.3977L22.5606 45.2396C22.3795 45.418 22.2561 45.6454 22.2061 45.8932C22.1561 46.1409 22.1817 46.3977 22.2796 46.6311C22.3775 46.8644 22.5434 47.0638 22.7562 47.2039C22.9691 47.344 23.2192 47.4186 23.475 47.4182L23.4905 47.413Z" fill="#2A3747"/>
    <path d="M26.2641 32.6531L24.4043 30.8163C24.1639 30.5748 23.8361 30.4375 23.4931 30.4346C23.1502 30.4317 22.8201 30.5635 22.5755 30.801C22.3309 31.0385 22.1919 31.3622 22.189 31.7009C22.1861 32.0396 22.3196 32.3656 22.56 32.6071L24.4198 34.4439C24.5389 34.5635 24.6806 34.6587 24.837 34.7242C24.9933 34.7897 25.1612 34.8242 25.331 34.8256C25.5008 34.827 25.6693 34.7954 25.8267 34.7325C25.9842 34.6697 26.1275 34.5768 26.2486 34.4592C26.3697 34.3416 26.4662 34.2016 26.5325 34.0472C26.5988 33.8928 26.6337 33.727 26.6351 33.5593C26.6366 33.3916 26.6045 33.2252 26.5409 33.0697C26.4772 32.9142 26.3832 32.7727 26.2641 32.6531Z" fill="#2A3747"/>
    <path d="M30.8003 32.5867C31.1429 32.5867 31.4714 32.4523 31.7136 32.2131C31.9558 31.9739 32.0918 31.6495 32.0918 31.3112V28.7142C32.0918 28.3759 31.9558 28.0515 31.7136 27.8123C31.4714 27.5731 31.1429 27.4387 30.8003 27.4387C30.4578 27.4387 30.1293 27.5731 29.8871 27.8123C29.6449 28.0515 29.5088 28.3759 29.5088 28.7142V31.3112C29.5088 31.6495 29.6449 31.9739 29.8871 32.2131C30.1293 32.4523 30.4578 32.5867 30.8003 32.5867V32.5867Z" fill="#2A3747"/>
    <path d="M24.384 38.9235C24.384 38.5852 24.2479 38.2607 24.0057 38.0215C23.7635 37.7823 23.435 37.6479 23.0925 37.6479H20.4629C20.1204 37.6479 19.7919 37.7823 19.5497 38.0215C19.3075 38.2607 19.1714 38.5852 19.1714 38.9235C19.1714 39.2617 19.3075 39.5862 19.5497 39.8254C19.7919 40.0646 20.1204 40.199 20.4629 40.199H23.077C23.2479 40.201 23.4175 40.1695 23.576 40.1063C23.7345 40.0431 23.8787 39.9495 24.0003 39.8308C24.1218 39.7122 24.2183 39.5709 24.2842 39.4151C24.3501 39.2594 24.384 39.0923 24.384 38.9235V38.9235Z" fill="#2A3747"/>
</svg>
