<svg width="35" height="21" viewBox="0 0 35 21" fill="none" xmlns="http://www.w3.org/2000/svg">
    <path d="M3.8147e-06 10.4972C0.0144157 10.1219 0.165894 9.688 0.418201 9.41437L8.6535 0.488962C9.21154 -0.022545 10.2816 -0.2337 10.9053 0.357712C11.5197 0.940199 11.5014 2.06989 10.8894 2.65468L5.09894 8.92219H33.4559C34.3086 8.92219 35 9.62738 35 10.4972C35 11.3671 34.3086 12.0723 33.4559 12.0723H5.09894L10.8894 18.3398C11.4163 18.8782 11.5137 20.0476 10.9053 20.6368C10.2972 21.2259 9.18864 21.0377 8.6535 20.5055L0.418201 11.5801C0.136398 11.2747 -0.000923157 10.9163 3.8147e-06 10.4972Z" fill="#2A3747"/>
</svg>
