<svg width="17" height="10" viewBox="0 0 17 10" fill="none" xmlns="http://www.w3.org/2000/svg">
    <path d="M17 4.99869C16.993 4.81994 16.9194 4.61334 16.7969 4.48304L12.7969 0.232839C12.5258 -0.0107357 12.0061 -0.111286 11.7031 0.170339C11.4047 0.447714 11.4136 0.98566 11.7109 1.26414L14.5234 4.24866H0.75C0.3358 4.24866 0 4.58447 0 4.99869C0 5.41292 0.3358 5.74872 0.75 5.74872H14.5234L11.7109 8.73325C11.4549 8.98963 11.4076 9.5465 11.7031 9.82705C11.9985 10.1076 12.5369 10.0179 12.7969 9.76452L16.7969 5.51435C16.9337 5.3689 17.0004 5.19824 17 4.99869Z" fill="#CA0D0D"/>
</svg>