<svg width="25" height="25" viewBox="0 0 25 25" fill="none" xmlns="http://www.w3.org/2000/svg">
<path d="M16.0262 24.9571C16.0262 23.0888 16.0371 21.2735 16.0262 19.4583C16.0153 18.2587 15.4694 17.3033 14.4323 16.6558C13.3188 15.9657 12.1288 15.9127 10.9716 16.5178C9.80349 17.1228 9.15939 18.1101 9.13755 19.4158C9.11572 21.1143 9.12664 22.8128 9.12664 24.5112C9.12664 24.6492 9.12664 24.7979 9.12664 24.9571C8.95196 24.9677 8.82096 24.9783 8.67904 24.9783C5.94978 24.9783 3.22052 24.9783 0.491266 24.9889C0.131004 24.9889 0 24.904 0 24.5325C0.010917 20.488 0.010917 16.4434 0.010917 12.3989C0.010917 12.2609 0.0327511 12.1123 0.0436681 11.8575C0.556769 12.2079 0.99345 12.5157 1.44105 12.8236C1.86681 12.5157 2.29258 12.2185 2.81659 11.8469C2.81659 12.6749 2.81659 13.3862 2.81659 14.108C3.35153 14.108 3.82096 14.108 4.3559 14.108C4.3559 13.3968 4.3559 12.6962 4.3559 11.9849C4.38865 11.9637 4.43231 11.9425 4.46507 11.9106C4.74891 12.1017 5.02183 12.2928 5.30568 12.4839C5.90611 12.8872 5.66594 12.9085 6.27729 12.4732C6.50655 12.314 6.73581 12.1442 6.96507 11.9849C6.99782 11.9637 7.04148 11.9743 7.15065 11.9637C7.15065 12.6749 7.15065 13.3756 7.15065 14.108C7.71834 14.108 8.20961 14.108 8.76637 14.108C8.77729 13.9594 8.78821 13.8002 8.78821 13.6516C8.78821 12.0911 8.78821 10.52 8.79913 8.9595C8.79913 8.80027 8.9083 8.64104 8.96288 8.47119C9.11572 8.56673 9.30131 8.61981 9.41048 8.74719C9.83624 9.22489 10.2402 9.73444 10.6987 10.2864C11.179 9.69197 11.6266 9.13997 12.0633 8.58796C12.5764 7.95103 12.5764 7.95103 13.0786 8.56673C13.5371 9.12935 13.9956 9.68136 14.4978 10.2864C14.869 9.82998 15.1965 9.38412 15.5677 8.9595C15.7424 8.76842 15.8297 8.35442 16.1681 8.50303C16.31 8.55611 16.3319 8.9595 16.3428 9.20366C16.3537 10.6792 16.3537 12.1442 16.3537 13.6197C16.3537 13.7789 16.3537 13.9276 16.3537 14.108C16.9432 14.108 17.4782 14.108 18.0677 14.108C18.0677 13.4074 18.0677 12.6962 18.0677 11.9955C18.1114 11.9637 18.1441 11.9425 18.1878 11.9106C18.6135 12.2079 19.0502 12.5051 19.5087 12.8236C19.9236 12.5263 20.3384 12.2185 20.8624 11.8363C20.8624 12.6643 20.8624 13.3649 20.8624 14.0974C21.321 14.0974 21.714 14.0974 22.1725 14.0974C22.1725 13.3862 22.1725 12.6856 22.1725 11.9849C22.2162 11.9637 22.2489 11.9318 22.2926 11.9106C22.7183 12.2185 23.155 12.5157 23.6026 12.8342C24.0284 12.5263 24.4432 12.2185 24.9454 11.8575C24.9672 12.1123 25 12.2503 25 12.3883C25 16.4434 25 20.5092 25 24.5643C25 24.8297 25 25.0102 24.6288 24.9996C21.8777 24.9889 19.1157 24.9889 16.3646 24.9889C16.2555 24.9889 16.1681 24.9677 16.0262 24.9571ZM12.4672 14.1399C13.2096 14.1505 13.8319 13.5666 13.8537 12.8554C13.8755 12.1335 13.2424 11.5072 12.4891 11.5072C11.7576 11.5072 11.1354 12.1017 11.1245 12.8236C11.1245 13.5348 11.7249 14.1293 12.4672 14.1399ZM5.41485 18.2905C5.41485 18.6302 5.40393 18.9806 5.41485 19.3203C5.42576 19.6493 5.60044 19.851 5.93886 19.8616C6.27729 19.8723 6.48472 19.6706 6.49563 19.3521C6.51747 18.6621 6.51747 17.9721 6.49563 17.2821C6.48472 16.9636 6.28821 16.7513 5.94978 16.7513C5.62227 16.7513 5.42576 16.953 5.41485 17.2821C5.40393 17.6218 5.41485 17.9508 5.41485 18.2905ZM18.3079 18.3967C18.3079 18.7258 18.2969 19.0549 18.3079 19.3946C18.3188 19.713 18.4935 19.9147 18.8428 19.9359C19.1703 19.9572 19.3886 19.7449 19.3996 19.3839C19.4105 18.7258 19.4105 18.057 19.3996 17.3988C19.3886 17.0485 19.1594 16.8256 18.8537 16.8256C18.559 16.8256 18.3188 17.0698 18.3079 17.4095C18.2969 17.7385 18.3079 18.0676 18.3079 18.3967ZM24.1157 18.4179C24.1157 18.0888 24.1266 17.7598 24.1157 17.4201C24.1048 17.0485 23.8646 16.7938 23.548 16.8256C23.1987 16.8575 23.024 17.0698 23.024 17.4201C23.024 18.0676 23.024 18.7152 23.024 19.3627C23.024 19.7024 23.1987 19.9147 23.5699 19.9359C23.8865 19.9466 24.1048 19.7236 24.1266 19.3733C24.1266 19.0549 24.1157 18.7364 24.1157 18.4179ZM1.79039 18.333C1.79039 17.9933 1.80131 17.643 1.79039 17.3033C1.77948 16.9742 1.59389 16.7725 1.25546 16.7619C0.927948 16.7513 0.709607 16.953 0.69869 17.2821C0.676856 17.9721 0.676856 18.6621 0.69869 19.3521C0.709607 19.6706 0.906114 19.8723 1.24454 19.8723C1.58297 19.8616 1.76856 19.6706 1.77948 19.3415C1.80131 19.0018 1.79039 18.6621 1.79039 18.333Z" fill="#2A3747"/>
<path d="M14.9347 24.904C13.3408 24.904 11.8124 24.904 10.2404 24.904C10.2295 24.766 10.2185 24.6387 10.2185 24.5007C10.2185 22.8659 10.2185 21.2417 10.2185 19.6069C10.2185 18.2057 11.2229 17.1972 12.5985 17.1972C13.9413 17.1972 14.9347 18.2163 14.9347 19.5963C14.9347 21.3585 14.9347 23.11 14.9347 24.904Z" fill="#2A3747"/>
<path d="M14.4549 8.52426C14.2147 8.23764 13.9855 7.95102 13.7453 7.66441C13.0248 6.79393 12.0859 6.80455 11.3872 7.68564C11.1689 7.96164 10.9396 8.24826 10.7104 8.53488C10.361 8.25887 10.23 8.0041 10.4156 7.56887C11.0051 6.16762 11.5292 4.75575 12.0859 3.34389C12.1296 3.23773 12.1514 3.12096 12.2278 2.88742C11.8894 3.11035 11.6602 3.26958 11.3217 3.50312C11.4636 3.0785 11.551 2.76004 11.6711 2.45218C11.7475 2.25049 11.7257 2.11249 11.5182 1.9851C11.2235 1.80464 10.9615 1.59233 10.7104 1.31632C11.0597 1.31632 11.4091 1.33756 11.7584 1.30571C11.8894 1.29509 12.0641 1.16771 12.1187 1.05094C12.2606 0.753702 12.337 0.435236 12.4898 0C12.6209 0.360928 12.7519 0.6157 12.7955 0.870473C12.861 1.26325 13.0794 1.35879 13.4505 1.32694C13.7235 1.29509 13.9964 1.31632 14.4112 1.31632C14.051 1.58171 13.789 1.79402 13.5051 1.97449C13.2977 2.10187 13.2431 2.23987 13.3305 2.4628C13.4505 2.77065 13.5379 3.08912 13.6798 3.50312C13.3523 3.29081 13.123 3.13158 12.8829 2.98296C12.861 2.99358 12.8392 3.01481 12.8174 3.02542C12.9374 3.31204 13.0466 3.60928 13.1667 3.8959C13.6798 5.13791 14.182 6.37993 14.7278 7.61133C14.9134 8.0041 14.8152 8.26949 14.4549 8.52426Z" fill="#2A3747"/>
</svg>
