<svg width="25" height="23" viewBox="0 0 25 23" fill="none" xmlns="http://www.w3.org/2000/svg">
    <path d="M9.16667 9.58337H7.5C7.16848 9.58337 6.85054 9.71507 6.61612 9.94949C6.3817 10.1839 6.25 10.5019 6.25 10.8334V11.6667C6.25 11.9982 6.3817 12.3162 6.61612 12.5506C6.85054 12.785 7.16848 12.9167 7.5 12.9167H9.16667C9.49819 12.9167 9.81613 12.785 10.0506 12.5506C10.285 12.3162 10.4167 11.9982 10.4167 11.6667V10.8334C10.4167 10.5019 10.285 10.1839 10.0506 9.94949C9.81613 9.71507 9.49819 9.58337 9.16667 9.58337ZM9.58333 11.6667C9.58333 11.7772 9.53944 11.8832 9.46129 11.9613C9.38315 12.0395 9.27717 12.0834 9.16667 12.0834H7.5C7.38949 12.0834 7.28351 12.0395 7.20537 11.9613C7.12723 11.8832 7.08333 11.7772 7.08333 11.6667V10.8334C7.08333 10.7229 7.12723 10.6169 7.20537 10.5387C7.28351 10.4606 7.38949 10.4167 7.5 10.4167H9.16667C9.27717 10.4167 9.38315 10.4606 9.46129 10.5387C9.53944 10.6169 9.58333 10.7229 9.58333 10.8334V11.6667Z" fill="white"/>
    <path d="M23.3337 7.5H5.83366C5.39163 7.5 4.96771 7.6756 4.65515 7.98816C4.34259 8.30072 4.16699 8.72464 4.16699 9.16667V20.8333C4.16699 21.2754 4.34259 21.6993 4.65515 22.0118C4.96771 22.3244 5.39163 22.5 5.83366 22.5H23.3337C23.7757 22.5 24.1996 22.3244 24.5122 22.0118C24.8247 21.6993 25.0003 21.2754 25.0003 20.8333V9.16667C25.0003 8.72464 24.8247 8.30072 24.5122 7.98816C24.1996 7.6756 23.7757 7.5 23.3337 7.5ZM24.167 20.8333C24.167 21.0543 24.0792 21.2663 23.9229 21.4226C23.7666 21.5789 23.5547 21.6667 23.3337 21.6667H5.83366C5.61264 21.6667 5.40068 21.5789 5.2444 21.4226C5.08812 21.2663 5.00033 21.0543 5.00033 20.8333V9.16667C5.00033 8.94565 5.08812 8.73369 5.2444 8.57741C5.40068 8.42113 5.61264 8.33333 5.83366 8.33333H23.3337C23.5547 8.33333 23.7666 8.42113 23.9229 8.57741C24.0792 8.73369 24.167 8.94565 24.167 9.16667V20.8333Z" fill="white"/>
    <path d="M21.6667 19.1666H11.6667C11.5562 19.1666 11.4502 19.2105 11.372 19.2887C11.2939 19.3668 11.25 19.4728 11.25 19.5833C11.25 19.6938 11.2939 19.7998 11.372 19.8779C11.4502 19.9561 11.5562 20 11.6667 20H21.6667C21.7772 20 21.8832 19.9561 21.9613 19.8779C22.0394 19.7998 22.0833 19.6938 22.0833 19.5833C22.0833 19.4728 22.0394 19.3668 21.9613 19.2887C21.8832 19.2105 21.7772 19.1666 21.6667 19.1666Z" fill="white"/>
    <path d="M21.6665 17.0834H15.8332C15.7227 17.0834 15.6167 17.1273 15.5385 17.2054C15.4604 17.2836 15.4165 17.3895 15.4165 17.5C15.4165 17.6105 15.4604 17.7165 15.5385 17.7947C15.6167 17.8728 15.7227 17.9167 15.8332 17.9167H21.6665C21.777 17.9167 21.883 17.8728 21.9611 17.7947C22.0393 17.7165 22.0832 17.6105 22.0832 17.5C22.0832 17.3895 22.0393 17.2836 21.9611 17.2054C21.883 17.1273 21.777 17.0834 21.6665 17.0834Z" fill="white"/>
    <path d="M2.91667 14.1667H1.66667C1.44565 14.1667 1.23369 14.0789 1.07741 13.9226C0.921131 13.7663 0.833333 13.5543 0.833333 13.3333V5.83333H20V6.04167C20 6.15217 20.0439 6.25815 20.122 6.33629C20.2002 6.41443 20.3062 6.45833 20.4167 6.45833C20.5272 6.45833 20.6332 6.41443 20.7113 6.33629C20.7894 6.25815 20.8333 6.15217 20.8333 6.04167V1.66667C20.8333 1.22464 20.6577 0.800716 20.3452 0.488155C20.0326 0.175595 19.6087 0 19.1667 0H1.66667C1.22464 0 0.800716 0.175595 0.488155 0.488155C0.175595 0.800716 0 1.22464 0 1.66667V13.3333C0 13.7754 0.175595 14.1993 0.488155 14.5118C0.800716 14.8244 1.22464 15 1.66667 15H2.91667C3.02717 15 3.13315 14.9561 3.21129 14.878C3.28943 14.7998 3.33333 14.6938 3.33333 14.5833C3.33333 14.4728 3.28943 14.3668 3.21129 14.2887C3.13315 14.2106 3.02717 14.1667 2.91667 14.1667ZM1.66667 0.833333H19.1667C19.3877 0.833333 19.5996 0.921131 19.7559 1.07741C19.9122 1.23369 20 1.44565 20 1.66667V2.91667H0.833333V1.66667C0.833333 1.44565 0.921131 1.23369 1.07741 1.07741C1.23369 0.921131 1.44565 0.833333 1.66667 0.833333Z" fill="white"/>
</svg>