<svg width="23" height="26" viewBox="0 0 23 26" fill="none" xmlns="http://www.w3.org/2000/svg">
    <path d="M10.9684 11.8341C11.0464 11.8789 11.1423 11.8793 11.2205 11.835L21.5565 5.98382L11.2042 0.0338907H11.2044C11.1257 -0.0112969 11.0292 -0.0112969 10.9505 0.0338907L0.679479 5.93634L10.9684 11.8341ZM10.4404 13.1469C10.4404 13.0557 10.3916 12.9715 10.3125 12.9261L0 7.01548V18.9121C0 19.0033 0.0488112 19.0875 0.127674 19.1329L10.4402 25.0599L10.4404 13.1469ZM8.15544 14.5224C8.15544 14.7185 7.94314 14.8411 7.77347 14.743L3.43118 12.236C3.35232 12.1903 3.30393 12.1064 3.30393 12.0153V11.2463C3.30393 11.0502 3.51623 10.9276 3.6859 11.0257L8.02819 13.5327C8.10684 13.5783 8.15544 13.6623 8.15544 13.7533V14.5224ZM11.8427 12.9459C11.763 12.9911 11.7138 13.0757 11.7138 13.1674V25.0596L22.0263 19.1326H22.0261C22.1051 19.0872 22.1537 19.003 22.1537 18.912V7.10652L11.8427 12.9459Z" fill="#2A3747"/>
</svg>