<svg width="23" height="23" viewBox="0 0 23 23" fill="none" xmlns="http://www.w3.org/2000/svg">
    <path d="M19.3924 12.2921H18.9929V10.8735L19.5318 10.34C20.1561 9.72194 20.1561 8.71939 19.5318 8.101L15.5058 4.11523V4.08336H15.473L14.4423 3.06285C14.1301 2.7538 13.7207 2.59928 13.3119 2.59928C12.9025 2.59928 12.4931 2.7538 12.181 3.06285L11.9456 3.29593L10.0497 2.21253C9.7979 2.06843 9.52293 2 9.25148 2C8.6989 2 8.16125 2.28411 7.86521 2.79206L5.09526 7.54176H4.19945C3.53676 7.54176 3 8.07347 3 8.72926V20.2079C3 20.6451 3.35785 21 3.79944 21H18.1929C18.6345 21 18.9929 20.6452 18.9929 20.2079V17.8329H19.3923C19.6131 17.8329 19.7923 17.6561 19.7923 17.4375V12.6875C19.7923 12.4689 19.6131 12.2921 19.3924 12.2921ZM15.5058 5.2349L16.139 5.86197L15.5058 6.48879V5.2349ZM16.7041 6.42151L18.966 8.66084C19.1171 8.81042 19.2003 9.00903 19.2003 9.22067C19.2003 9.42622 19.1218 9.61959 18.9783 9.76773C18.9074 9.40158 18.583 9.125 18.1929 9.125H13.9737L16.7041 6.42151ZM11.5075 9.125H10.5812L11.5075 8.20799V9.125ZM13.1069 8.86379L12.8428 9.125H12.3069V7.41622L13.1069 6.62476V8.86379ZM14.7058 5.04122V7.28055L13.9064 8.07202V5.83299L14.7058 5.04122ZM12.7462 3.62268C12.8973 3.47309 13.0982 3.39075 13.3119 3.39075C13.5251 3.39075 13.726 3.47309 13.8771 3.62268L14.4423 4.18251L9.45028 9.125H7.18842L12.7462 3.62268ZM8.55744 3.1878C8.70006 2.94339 8.96593 2.79177 9.25148 2.79177C9.39234 2.79177 9.52645 2.82743 9.64973 2.89786L11.3599 3.87547L6.05782 9.125H5.09526L8.55744 3.1878ZM4.19945 8.33323H4.63343L4.1725 9.12355C3.96459 9.10993 3.79944 8.9386 3.79944 8.72926C3.79947 8.51095 3.97898 8.33323 4.19945 8.33323ZM18.9929 17.0421H14.5793C14.4387 16.8612 14.249 16.6118 14.0604 16.337C13.4331 15.4232 13.3962 15.0851 13.3945 15.0625C13.3962 15.0399 13.4331 14.7018 14.0604 13.788C14.249 13.5132 14.4387 13.2638 14.5793 13.0829H18.9929V17.0421Z" fill="#2A3747"/>
    <path d="M15.7941 16.2502C16.4565 16.2502 16.9935 15.7185 16.9935 15.0627C16.9935 14.4069 16.4565 13.8752 15.7941 13.8752C15.1317 13.8752 14.5946 14.4069 14.5946 15.0627C14.5946 15.7185 15.1317 16.2502 15.7941 16.2502ZM15.7941 14.6673C16.0143 14.6673 16.1941 14.8447 16.1941 15.0627C16.1941 15.2807 16.0143 15.4581 15.7941 15.4581C15.5739 15.4581 15.3946 15.2807 15.3946 15.0627C15.3946 14.8447 15.5739 14.6673 15.7941 14.6673Z" fill="#2A3747"/>
</svg>
