<svg width="15" height="15" viewBox="0 0 15 15" fill="none" xmlns="http://www.w3.org/2000/svg">
    <path d="M0.130607 4.51989C0.501161 3.14511 1.82473 1.67895 2.38106 1.6669C3.29391 1.64381 4.34331 3.24955 4.89865 4.23268C5.01886 4.44706 5.07201 4.69255 5.05125 4.93745C5.03048 5.18234 4.93675 5.41538 4.78216 5.60645L3.95268 6.63076C3.84328 6.76611 3.77838 6.93197 3.76687 7.10562C3.75537 7.27928 3.79781 7.45225 3.88839 7.60085C4.31912 8.31812 4.83873 8.97809 5.4349 9.5651C6.02191 10.1613 6.68188 10.6809 7.39914 11.1116C7.54775 11.2022 7.72072 11.2446 7.89438 11.2331C8.06803 11.2216 8.23389 11.1567 8.36924 11.0473L9.39355 10.2178C9.58462 10.0633 9.81766 9.96952 10.0626 9.94876C10.3075 9.92799 10.5529 9.98114 10.7673 10.1014C11.7505 10.6567 13.3562 11.7061 13.3331 12.6189C13.3211 13.1753 11.8549 14.4988 10.4801 14.8694C8.16839 15.494 5.77633 13.7969 3.48972 11.5103C1.2031 9.22367 -0.494029 6.83162 0.130607 4.51989ZM14.3351 7.49821H14.8351C14.857 7.49836 14.8786 7.49414 14.8988 7.4858C14.919 7.47746 14.9373 7.46517 14.9526 7.44966C14.968 7.43414 14.9801 7.41571 14.9882 7.39544C14.9964 7.37518 15.0003 7.3535 15 7.33167C14.9548 5.40139 14.1679 3.56267 12.8026 2.19738C11.4373 0.832094 9.59862 0.0451637 7.66834 2.3548e-05C7.64651 -0.000346666 7.62483 0.00365173 7.60456 0.0117836C7.5843 0.0199155 7.56587 0.0320168 7.55035 0.0473758C7.53484 0.0627347 7.52255 0.0810413 7.51421 0.101219C7.50587 0.121397 7.50165 0.143038 7.50179 0.16487V0.664871C7.50208 0.709158 7.51966 0.751581 7.55077 0.783096C7.58189 0.814612 7.62408 0.832728 7.66836 0.833583C9.3776 0.878336 11.0045 1.57729 12.2136 2.7863C13.4226 3.99531 14.1216 5.62218 14.1664 7.33142C14.1673 7.37573 14.1854 7.41795 14.2169 7.4491C14.2484 7.48025 14.2908 7.49787 14.3351 7.49821H14.3351ZM12.3351 7.49821H12.8351C12.857 7.49838 12.8786 7.49416 12.8988 7.48581C12.9189 7.47746 12.9372 7.46514 12.9525 7.44958C12.9678 7.43403 12.9799 7.41555 12.9879 7.39526C12.9959 7.37497 12.9998 7.35326 12.9993 7.33144C12.9552 5.93161 12.3793 4.60117 11.389 3.61087C10.3986 2.62056 9.06818 2.04478 7.66834 2.00069C7.64653 2.00018 7.62484 2.00406 7.60456 2.01211C7.58428 2.02015 7.56582 2.03218 7.55028 2.0475C7.53475 2.06281 7.52245 2.0811 7.51411 2.10126C7.50578 2.12142 7.50159 2.14306 7.50178 2.16487V2.66487C7.50222 2.70921 7.51982 2.75165 7.5509 2.78327C7.58197 2.8149 7.62409 2.83325 7.66841 2.83447C8.84724 2.87801 9.96599 3.3658 10.8001 4.19993C11.6342 5.03406 12.122 6.15281 12.1655 7.33164C12.1667 7.37596 12.1851 7.41807 12.2167 7.44914C12.2484 7.4802 12.2908 7.49779 12.3351 7.49821H12.3351ZM7.66836 4.00211C7.64659 4.00132 7.62489 4.00495 7.60457 4.0128C7.58426 4.02065 7.56575 4.03255 7.55017 4.04777C7.53459 4.06299 7.52227 4.08122 7.51395 4.10135C7.50564 4.12148 7.5015 4.1431 7.50179 4.16488V4.66488C7.50257 4.70931 7.52021 4.75179 7.55115 4.78369C7.58209 4.8156 7.624 4.83454 7.66839 4.83669C8.31651 4.87811 8.92734 5.15428 9.38656 5.61352C9.84578 6.07276 10.1219 6.68359 10.1633 7.33172C10.1655 7.3761 10.1844 7.418 10.2163 7.44892C10.2482 7.47984 10.2907 7.49747 10.3351 7.49822H10.8351C10.8569 7.49852 10.8785 7.49438 10.8987 7.48607C10.9188 7.47776 10.937 7.46544 10.9522 7.44986C10.9675 7.43429 10.9794 7.41578 10.9872 7.39546C10.9951 7.37515 10.9987 7.35345 10.9979 7.33168C10.9554 6.46236 10.591 5.63995 9.97552 5.02451C9.36009 4.40907 8.53768 4.04463 7.66836 4.00211Z" fill="white"/>
</svg>