<svg width="31" height="31" viewBox="0 0 31 31" fill="none" xmlns="http://www.w3.org/2000/svg">
    <path d="M3.58868 23.0893C2.18695 23.9968 1.66779 25.7108 2.44653 26.8703C2.86185 27.5257 3.64059 27.8786 4.52316 27.8786C5.19807 27.8786 5.87298 27.677 6.49597 27.2737C7.11896 26.8703 7.63812 26.215 7.8977 25.5092C8.10536 24.8034 8.05344 24.0472 7.63812 23.4926C6.80746 22.3331 5.04232 22.1819 3.58868 23.0893ZM6.75555 24.0472C6.96321 24.3497 7.01513 24.753 6.85938 25.2067C6.70363 25.6604 6.34022 26.1141 5.87298 26.4166C4.93849 27.0216 3.74442 26.9712 3.27718 26.2654C2.80994 25.5596 3.22526 24.5009 4.15975 23.896C4.57508 23.6439 5.04232 23.4926 5.50956 23.4926C6.02872 23.4926 6.49597 23.6943 6.75555 24.0472Z" fill="white"/>
    <path d="M9.19554 18.653C9.76899 18.653 10.2339 18.2016 10.2339 17.6447C10.2339 17.0879 9.76899 16.6365 9.19554 16.6365C8.6221 16.6365 8.15723 17.0879 8.15723 17.6447C8.15723 18.2016 8.6221 18.653 9.19554 18.653Z" fill="white"/>
    <path d="M7.6382 11.7967C8.05353 11.2422 8.15736 10.486 7.89778 9.78019C7.69012 9.0744 7.17096 8.46944 6.49605 8.01572C5.04241 7.05786 3.22535 7.25951 2.44661 8.41902C1.66787 9.57853 2.13512 11.2422 3.58876 12.1496C4.21175 12.5529 4.88666 12.7546 5.50965 12.7546C6.39222 12.7546 7.17096 12.4521 7.6382 11.7967ZM6.75563 11.1918C6.28839 11.8976 5.09432 11.948 4.15984 11.343C3.17343 10.738 2.81002 9.67936 3.27727 8.97357C3.53685 8.62068 4.00409 8.41902 4.52325 8.41902C4.99049 8.41902 5.45773 8.57026 5.87306 8.82233C6.3403 9.12481 6.70371 9.57853 6.85946 10.0323C7.01521 10.4356 6.96329 10.8893 6.75563 11.1918Z" fill="white"/>
    <path d="M22.1743 3.02478C21.0321 3.02478 20.0977 3.93222 20.0977 5.04132C20.0977 6.15041 21.0321 7.05785 22.1743 7.05785C23.3164 7.05785 24.2509 6.15041 24.2509 5.04132C24.2509 3.93222 23.3164 3.02478 22.1743 3.02478ZM22.1743 6.04958C21.6032 6.04958 21.136 5.59586 21.136 5.04132C21.136 4.48677 21.6032 4.03305 22.1743 4.03305C22.7454 4.03305 23.2126 4.48677 23.2126 5.04132C23.2126 5.59586 22.7454 6.04958 22.1743 6.04958Z" fill="white"/>
    <path d="M30.6366 8.97359L24.0952 0.857028C23.6279 0.30248 22.9011 0 22.1743 0C21.4475 0 20.7207 0.30248 20.2015 0.857028L13.712 8.92317C13.4524 9.17524 13.2967 9.57855 13.2967 9.93144V11.948L9.14341 14.6199L8.26084 14.0149C8.67617 13.7124 9.03958 13.3596 9.35107 12.9058C10.0779 11.8976 10.2336 10.6372 9.92215 9.37689C9.61065 8.11656 8.78 7.05788 7.63785 6.30168C5.24972 4.73886 2.18668 5.19258 0.733035 7.25953C-0.668694 9.32648 0.0581285 12.3009 2.44626 13.8133C2.60201 13.9141 4.78247 15.6786 6.28803 16.8885L6.44378 17.5943L6.28803 18.2497C4.78247 19.4596 2.60201 21.224 2.44626 21.3249C0.0581285 22.8877 -0.72061 25.8117 0.733035 27.8786C1.56369 29.1389 3.01733 29.7943 4.57481 29.7943C5.61313 29.7943 6.70336 29.4918 7.63785 28.8869C8.78 28.1307 9.61065 27.072 9.92215 25.8117C10.2336 24.5513 10.0779 23.291 9.35107 22.2827C9.03958 21.8794 8.62425 21.5265 8.15701 21.224L9.19532 20.4174L13.3486 22.6356V30.1976H31V9.98185C31 9.57855 30.8443 9.22565 30.6366 8.97359ZM13.2967 13.1579V16.1323L12.466 16.7877L10.1298 15.2753L13.2967 13.1579ZM3.01733 13.0571C1.09645 11.7967 0.473456 9.47772 1.56369 7.86449C2.65392 6.25126 5.09397 5.89837 7.01486 7.1587C7.94934 7.76366 8.62425 8.62069 8.88383 9.62896C9.14341 10.6372 8.98766 11.5951 8.4685 12.3513C8.10509 12.8554 7.63785 13.2587 7.01486 13.5108L6.13229 13.8637L24.3028 25.6604C23.6799 26.3158 22.5896 26.5175 21.759 26.0637L7.63785 18.4513L7.22252 16.3844L7.06677 16.2835C5.61313 15.124 3.17308 13.1579 3.01733 13.0571ZM6.1842 21.4257L7.01486 21.7786C7.63785 22.0307 8.10509 22.434 8.4685 22.9381C8.98766 23.6943 9.14341 24.6522 8.88383 25.6604C8.62425 26.6687 7.94934 27.5257 7.01486 28.1307C5.09397 29.3406 2.65392 29.0381 1.56369 27.4249C0.473456 25.8117 1.09645 23.4926 3.01733 22.2323C3.17308 22.1315 5.35355 20.367 6.85911 19.2075L8.20892 19.9133L6.1842 21.4257ZM29.9617 29.2398H14.3869V23.2406L17.0346 24.6522L16.5674 25.4588L17.398 25.9629L17.9172 25.1563L21.2398 26.9208C21.7071 27.1728 22.2262 27.2737 22.7454 27.2737C23.7318 27.2737 24.7701 26.8199 25.3412 26.0133L25.7565 25.4084L20.1496 21.7786L26.7429 11.343L25.9122 10.8389L19.267 21.1736L14.335 17.9976V9.98185C14.335 9.88103 14.3869 9.72979 14.4907 9.62896L21.0321 1.5124C21.3436 1.20992 21.759 1.00827 22.1743 1.00827C22.5896 1.00827 23.0569 1.20992 23.3164 1.5124L29.8059 9.62896C29.9098 9.72979 29.9617 9.83061 29.9617 9.98185V29.2398Z" fill="white"/>
    <path d="M19.0595 12.0992C17.9174 12.0992 16.9829 13.0067 16.9829 14.1158C16.9829 15.2249 17.9174 16.1323 19.0595 16.1323C20.2017 16.1323 21.1362 15.2249 21.1362 14.1158C21.1362 13.0067 20.2017 12.0992 19.0595 12.0992ZM19.0595 15.124C18.4885 15.124 18.0212 14.6703 18.0212 14.1158C18.0212 13.5612 18.4885 13.1075 19.0595 13.1075C19.6306 13.1075 20.0979 13.5612 20.0979 14.1158C20.0979 14.6703 19.6306 15.124 19.0595 15.124Z" fill="white"/>
    <path d="M25.289 20.1653C24.1469 20.1653 23.2124 21.0727 23.2124 22.1818C23.2124 23.2909 24.1469 24.1984 25.289 24.1984C26.4312 24.1984 27.3657 23.2909 27.3657 22.1818C27.3657 21.0727 26.4312 20.1653 25.289 20.1653ZM25.289 23.1901C24.718 23.1901 24.2507 22.7364 24.2507 22.1818C24.2507 21.6273 24.718 21.1736 25.289 21.1736C25.8601 21.1736 26.3274 21.6273 26.3274 22.1818C26.3274 22.7364 25.8601 23.1901 25.289 23.1901Z" fill="white"/>
</svg>