<svg width="35" height="50" viewBox="0 0 35 50" fill="none" xmlns="http://www.w3.org/2000/svg">
    <path d="M17.5 35.2754C27.125 35.2754 35 27.4119 35 17.6377C35 7.86347 27.1979 0 17.5 0C7.80208 0 0 7.86347 0 17.6377C0 27.4119 7.875 35.2754 17.5 35.2754ZM8.38542 29.3961C12.25 27.9998 13.8542 26.383 14.5833 25.2072C15.3854 25.5011 16.2604 25.7216 17.2812 25.7216H17.3542H17.4271H17.5H17.5729C18.6667 25.7216 19.6146 25.5012 20.4167 25.1337C21.0729 26.383 22.75 27.9998 26.6875 29.3961C24.1354 31.3804 21 32.5562 17.5729 32.5562C14.0729 32.6297 10.8646 31.4539 8.38542 29.3961ZM20.7813 21.6797C19.9792 22.635 18.8854 23.076 17.4271 23.076H17.3542C15.8958 23.076 14.8021 22.635 14 21.6797C11.8854 19.2545 12.3229 14.5511 12.3229 14.4776V14.4041C12.5417 9.48026 16.1146 9.0393 17.2083 9.0393C17.2813 9.0393 17.3542 9.0393 17.3542 9.0393H17.4271C18.2292 9.0393 22.2396 9.1128 22.4583 14.3306V14.4041C22.6042 15.8004 22.5313 19.6219 20.7813 21.6797ZM17.5 2.71915C25.6667 2.71915 32.375 9.40677 32.375 17.7112C32.375 21.3857 30.9896 24.7662 28.8021 27.4119C23.6979 25.8686 22.75 24.1048 22.6042 23.6639C22.6771 23.5904 22.75 23.5169 22.75 23.5169C25.5937 20.3568 25.1562 14.9185 25.0833 14.3306C24.7917 8.01045 20.125 6.39366 17.4271 6.54064C14.6562 6.46715 10.0625 8.01045 9.77083 14.3306C9.69791 14.9185 9.26042 20.2833 12.1042 23.5169C12.25 23.6639 12.3229 23.8109 12.4688 23.8844C12.1771 24.4723 10.9375 26.0156 6.34375 27.4119C4.15625 24.7662 2.77084 21.3857 2.77084 17.7112C2.625 9.40677 9.33333 2.71915 17.5 2.71915Z" fill="#2A3747"/>
    <path d="M30.0417 40.2727H5.03124C4.30207 40.2727 3.71875 40.8606 3.71875 41.5955C3.71875 42.3304 4.30207 42.9184 5.03124 42.9184H30.0417C30.7708 42.9184 31.3542 42.3304 31.3542 41.5955C31.3542 40.8606 30.7708 40.2727 30.0417 40.2727Z" fill="#2A3747"/>
    <path d="M25.5939 47.2544H9.3335C8.60433 47.2544 8.021 47.8423 8.021 48.5772C8.021 49.3121 8.60433 49.9001 9.3335 49.9001H25.5939C26.3231 49.9001 26.9064 49.3121 26.9064 48.5772C26.9064 47.8423 26.3231 47.2544 25.5939 47.2544Z" fill="#2A3747"/>
</svg>