<svg width="78" height="36" viewBox="0 0 78 36" fill="none" xmlns="http://www.w3.org/2000/svg">
    <path d="M74.1342 14.6355V8.24299C74.1342 3.70094 70.5179 0 66.0797 0C61.6416 0 57.9431 3.70094 57.9431 8.24299V14.6355C55.5596 16.9065 53.998 20.1028 53.998 23.7196C53.998 30.5327 59.4225 36 65.9975 36C72.5726 36 77.997 30.4486 77.997 23.7196C78.0792 20.1028 76.5176 16.9065 74.1342 14.6355ZM60.4087 8.24299C60.4087 5.04673 62.9566 2.43925 66.0797 2.43925C69.2029 2.43925 71.7507 5.04673 71.7507 8.24299V12.8692C70.0248 11.9439 68.1344 11.3551 66.0797 11.3551C64.025 11.3551 62.1347 11.9439 60.4087 12.8692V8.24299ZM66.0797 33.5607C60.7375 33.5607 56.4637 29.1028 56.4637 23.7196C56.4637 18.2523 60.8197 13.8785 66.0797 13.8785C71.422 13.8785 75.6957 18.3364 75.6957 23.7196C75.6957 29.1028 71.3398 33.5607 66.0797 33.5607Z" fill="#2A3747"/>
    <path d="M68.7912 20.5235L65.1749 24.2245L63.3668 22.374C62.8737 21.8693 62.134 21.8693 61.6408 22.374C61.1477 22.8787 61.1477 23.6357 61.6408 24.1403L64.3531 26.916C64.5996 27.1684 64.9284 27.2525 65.1749 27.2525C65.4215 27.2525 65.7503 27.1684 65.9968 26.916L70.5172 22.2899C71.0103 21.7852 71.0103 21.0282 70.5172 20.5235C70.024 20.0189 69.2843 20.0189 68.7912 20.5235Z" fill="#2A3747"/>
    <path d="M17.7518 14.9719C17.423 14.3831 16.6833 14.2149 16.108 14.5513L13.8068 15.8971V13.2055C13.8068 12.5326 13.2314 11.9438 12.5739 11.9438C11.9164 11.9438 11.3411 12.5326 11.3411 13.2055V15.8971L9.03983 14.5513C8.46452 14.2149 7.72482 14.3831 7.39607 14.9719C7.06732 15.5607 7.23169 16.3177 7.80701 16.6541L10.1083 17.9999L7.80701 19.3457C7.23169 19.6822 7.06732 20.4392 7.39607 21.028C7.64264 21.4485 8.05358 21.6167 8.46452 21.6167C8.62889 21.6167 8.87546 21.5326 9.03983 21.4485L11.3411 20.1027V22.7943C11.3411 23.4672 11.9164 24.056 12.5739 24.056C13.2314 24.056 13.8068 23.4672 13.8068 22.7943V20.1027L16.108 21.4485C16.2724 21.5326 16.519 21.6167 16.6833 21.6167C17.0943 21.6167 17.5052 21.3644 17.7518 21.028C18.0805 20.4392 17.9162 19.6822 17.3408 19.3457L15.0396 17.9999L17.3408 16.6541C17.9162 16.3177 18.0805 15.5607 17.7518 14.9719Z" fill="#2A3747"/>
    <path d="M33.2039 14.9719C32.8752 14.3831 32.1355 14.2149 31.5602 14.5513L29.2589 15.8971V13.2055C29.2589 12.5326 28.6836 11.9438 28.0261 11.9438C27.3686 11.9438 26.7933 12.5326 26.7933 13.2055V15.8971L24.492 14.5513C23.9167 14.2149 23.177 14.3831 22.8482 14.9719C22.5195 15.5607 22.6838 16.3177 23.2592 16.6541L25.5604 17.9999L23.2592 19.3457C22.6838 19.6822 22.5195 20.4392 22.8482 21.028C23.0948 21.4485 23.5057 21.6167 23.9167 21.6167C24.081 21.6167 24.3276 21.5326 24.492 21.4485L26.7933 20.1027V22.7943C26.7933 23.4672 27.3686 24.056 28.0261 24.056C28.6836 24.056 29.2589 23.4672 29.2589 22.7943V20.1027L31.5602 21.4485C31.7246 21.5326 31.9711 21.6167 32.1355 21.6167C32.5464 21.6167 32.9574 21.3644 33.2039 21.028C33.5327 20.4392 33.3683 19.6822 32.793 19.3457L30.4917 17.9999L32.793 16.6541C33.3683 16.3177 33.6149 15.5607 33.2039 14.9719Z" fill="#2A3747"/>
    <path d="M48.7371 14.9719C48.4084 14.3831 47.6687 14.2149 47.0934 14.5513L44.7921 15.8971V13.2055C44.7921 12.5326 44.2168 11.9438 43.5593 11.9438C42.9018 11.9438 42.3265 12.5326 42.3265 13.2055V15.8971L40.0252 14.5513C39.4499 14.2149 38.7102 14.3831 38.3814 14.9719C38.0527 15.5607 38.217 16.3177 38.7924 16.6541L41.0936 17.9999L38.7924 19.3457C38.217 19.6822 38.0527 20.4392 38.3814 21.028C38.628 21.4485 39.0389 21.6167 39.4499 21.6167C39.6142 21.6167 39.8608 21.5326 40.0252 21.4485L42.3265 20.1027V22.7943C42.3265 23.4672 42.9018 24.056 43.5593 24.056C44.2168 24.056 44.7921 23.4672 44.7921 22.7943V20.1027L47.0934 21.4485C47.2577 21.5326 47.5043 21.6167 47.6687 21.6167C48.0796 21.6167 48.4906 21.3644 48.7371 21.028C49.0659 20.4392 48.9015 19.6822 48.3262 19.3457L45.9427 17.9999L48.244 16.6541C48.8193 16.3177 49.0659 15.5607 48.7371 14.9719Z" fill="#2A3747"/>
    <path d="M54.4908 6.89718C54.4908 6.22428 53.9155 5.6355 53.258 5.6355H6.90381C3.04096 5.6355 0 8.83176 0 12.7009V23.2149C0 27.1682 3.12315 30.2804 6.90381 30.2804H49.9704C50.6279 30.2804 51.2033 29.6916 51.2033 29.0187C51.2033 28.3458 50.6279 27.757 49.9704 27.757H6.90381C4.43816 27.757 2.38346 25.6542 2.38346 23.1308V12.7009C2.38346 10.1776 4.43816 8.07475 6.90381 8.07475H53.258C53.9155 8.07475 54.4908 7.57008 54.4908 6.89718Z" fill="#2A3747"/>
</svg>