<svg width="23" height="23" viewBox="0 0 23 23" fill="none" xmlns="http://www.w3.org/2000/svg">
    <path d="M3 8.48992C3.00151 8.47644 3.00453 8.46727 3.00586 8.45408C3.01794 8.24165 3.06894 8.00498 3.17944 7.8248C3.18473 7.81591 3.19134 7.80789 3.19682 7.79929C3.2414 7.73263 3.29542 7.67572 3.35926 7.63229C3.36474 7.62914 3.36965 7.62469 3.37513 7.62168C3.51377 7.53453 3.69719 7.50901 3.93991 7.59344C4.07761 7.63587 4.23042 7.7054 4.36717 7.81176C4.42497 7.85662 6.18239 9.17639 6.18239 9.17639C6.18239 9.17639 7.31818 8.55485 8.14853 8.17126C8.32495 8.0897 8.52404 8.00771 8.73295 7.92672C9.90443 7.44738 11.6858 7 13.4982 7C14.135 7 14.7301 7.06293 15.2881 7.17846C15.9271 7.29816 16.5518 7.48923 17.1396 7.77334C19.8345 9.07963 20.9637 11.7699 19.033 14.207C18.7724 14.5362 18.3693 14.8872 17.739 15.2652C17.1079 15.6431 14.2566 16.6503 15.5832 15.3719C15.9052 15.0611 16.1751 14.7475 16.3884 14.4373C17.3761 13.0024 17.215 11.8156 15.7481 10.9334C14.7855 10.3541 12.9599 10.5131 11.1022 11.5628C10.9792 11.632 10.1254 12.2113 10.1254 12.2113C10.1254 12.2113 10.7082 12.6584 12.0171 13.6467C13.325 14.6351 12.1309 14.9678 11.4671 14.9678C10.8034 14.9678 5.2285 14.9678 4.29842 14.9678C3.36965 14.9678 3.00283 14.6018 3.00283 13.9639C3.00283 13.5442 3 8.48992 3 8.48992Z" fill="#2A3747"/>
</svg>
