<svg width="22" height="21" viewBox="0 0 22 21" fill="none" xmlns="http://www.w3.org/2000/svg">
    <path d="M10.5987 19.1781C8.6906 19.1781 6.82535 18.6157 5.23883 17.5621C3.6523 16.5084 2.41575 15.0108 1.68555 13.2586C0.955352 11.5065 0.764299 9.57843 1.13655 7.71833C1.5088 5.85824 2.42764 4.14963 3.77687 2.80857C5.1261 1.46752 6.84513 0.554251 8.71657 0.184255C10.588 -0.185741 12.5278 0.00415482 14.2907 0.729928C16.0535 1.4557 17.5602 2.68475 18.6203 4.26167C19.6804 5.83858 20.2462 7.69253 20.2462 9.58906C20.2433 12.1314 19.226 14.5687 17.4173 16.3664C15.6087 18.164 13.1565 19.1752 10.5987 19.1781V19.1781ZM10.5987 1.74347C9.03753 1.74347 7.51142 2.20361 6.21335 3.06569C4.91528 3.92778 3.90356 5.15309 3.30612 6.58668C2.70869 8.02028 2.55237 9.59777 2.85694 11.1197C3.16151 12.6416 3.91329 14.0395 5.0172 15.1367C6.12112 16.234 7.5276 16.9812 9.05877 17.2839C10.5899 17.5866 12.1771 17.4313 13.6194 16.8374C15.0617 16.2436 16.2945 15.238 17.1619 13.9478C18.0292 12.6576 18.4921 11.1408 18.4921 9.58906C18.4898 7.50899 17.6574 5.51477 16.1776 4.04394C14.6978 2.5731 12.6915 1.74578 10.5987 1.74347V1.74347Z" fill="white"/>
    <path d="M21.1234 20.9217C21.0082 20.9218 20.8941 20.8993 20.7877 20.8555C20.6813 20.8116 20.5846 20.7473 20.5033 20.6663L17.8722 18.0511C17.7124 17.8867 17.624 17.6665 17.626 17.4379C17.628 17.2093 17.7202 16.9907 17.8829 16.8291C18.0455 16.6674 18.2654 16.5757 18.4954 16.5738C18.7254 16.5718 18.9469 16.6596 19.1123 16.8184L21.7435 19.4336C21.8661 19.5555 21.9496 19.7109 21.9834 19.8799C22.0172 20.049 21.9999 20.2243 21.9335 20.3835C21.8671 20.5428 21.7548 20.6789 21.6106 20.7747C21.4664 20.8705 21.2968 20.9216 21.1234 20.9217Z" fill="white"/>
    <path d="M14.9848 7.56879C14.84 7.56909 14.6974 7.53367 14.5697 7.46569C14.4421 7.39771 14.3334 7.29931 14.2534 7.1793C13.8536 6.57961 13.3106 6.08771 12.6729 5.7476C12.0351 5.40748 11.3225 5.22975 10.5987 5.23028C10.3661 5.23028 10.143 5.13844 9.97856 4.97496C9.81408 4.81148 9.72168 4.58975 9.72168 4.35855C9.72168 4.12735 9.81408 3.90563 9.97856 3.74214C10.143 3.57866 10.3661 3.48682 10.5987 3.48682C11.6119 3.48585 12.6094 3.73452 13.5022 4.21059C14.395 4.68665 15.1551 5.37527 15.7145 6.21482C15.8023 6.34608 15.8525 6.49852 15.86 6.65592C15.8675 6.81332 15.8319 6.96979 15.757 7.10869C15.6822 7.24759 15.5708 7.36372 15.4349 7.44474C15.2989 7.52576 15.1434 7.56863 14.9848 7.56879V7.56879Z" fill="white"/>
</svg>