<svg width="73" height="73" viewBox="0 0 73 73" fill="none" xmlns="http://www.w3.org/2000/svg">
    <path d="M72.7931 1.66391C72.9575 1.4442 73.0282 1.16802 72.9894 0.896141C72.9506 0.624259 72.8057 0.378942 72.5864 0.214157C72.3672 0.0493714 72.0915 -0.0213833 71.8202 0.017457C71.5489 0.0562972 71.3041 0.201552 71.1396 0.421265L68.1552 4.44123C66.4649 2.79661 64.4266 1.55466 62.1917 0.807626C59.9568 0.0605887 57.5827 -0.172351 55.2456 0.126106C52.9085 0.424563 50.6686 1.24675 48.6921 2.53161C46.7156 3.81646 45.0533 5.53098 43.8287 7.54785C43.2289 6.39224 42.31 5.43393 41.1817 4.78724C40.0533 4.14056 38.7631 3.8328 37.465 3.90068C36.6172 3.97969 35.8302 4.37552 35.2604 5.00945C34.6905 5.64338 34.3797 6.46898 34.3896 7.3221C34.3896 14.8111 28.1891 24.3981 24.0079 28.5175C23.5946 28.9152 23.1523 29.3128 22.6728 29.7374C22.3421 30.0294 21.999 30.3339 21.6394 30.6569C20.3993 31.8022 19.1406 32.7591 17.9336 33.6828C17.6952 33.8623 17.4603 34.0425 17.2288 34.2233C15.193 33.8588 7.32046 32.7736 3.44311 37.0297C0.636368 40.1135 -0.372239 48.3585 0.119663 54.5489C0.382149 57.9123 1.32668 63.9599 4.71006 66.673C6.89858 67.9757 9.4348 68.5702 11.9729 68.3754C13.7717 68.3659 15.5675 68.2275 17.3466 67.9612C18.0059 68.2719 18.7003 68.5825 19.4713 68.858C26.9058 71.1419 34.6548 72.2297 42.4295 72.0806C44.8063 72.0806 46.7987 71.9874 48.1401 71.8548C49.0547 71.8013 49.9483 71.5578 50.7641 71.14C51.5799 70.7221 52.3002 70.139 52.8793 69.4275C54.1545 67.597 54.7631 65.3829 54.603 63.1563C54.9176 62.9233 55.2083 62.6597 55.4711 62.3693C56.3329 61.1955 56.9233 59.8444 57.1997 58.4137C57.476 56.983 57.4313 55.5086 57.0687 54.0974C57.3526 53.9331 57.618 53.7387 57.8603 53.5175C59.1382 51.741 59.6972 49.5455 59.4249 47.3726C59.3781 46.0894 58.9774 44.8442 58.2675 43.7752C59.0411 42.6834 59.51 41.4046 59.6259 40.0707C59.7418 38.7368 59.5005 37.396 58.9268 36.1867C57.4222 32.5851 51.4718 32.0777 47.5345 31.7422C46.6522 31.6944 45.774 31.5886 44.9055 31.4253C44.3382 31.2511 43.8162 30.9534 43.3771 30.5535C42.938 30.1535 42.5925 29.6613 42.3654 29.1119C42.1091 28.296 42.0445 27.4318 42.1768 26.5867C42.3091 25.7417 42.6347 24.9388 43.1281 24.2407C43.2645 24.0067 43.3988 23.7499 43.5414 23.5034C44.8961 25.9476 46.8809 27.9826 49.2883 29.3957C51.6958 30.8089 54.4378 31.5484 57.2279 31.5372C60.1841 31.5432 63.0821 30.7132 65.5885 29.1425C68.095 27.5718 70.1083 25.3243 71.3969 22.6582C72.6856 19.9921 73.1972 17.0157 72.8731 14.0713C72.549 11.1268 71.4023 8.33372 69.5647 6.01318L72.7931 1.66391ZM5.99149 65.0555C3.96394 63.4297 2.57091 59.5423 2.16995 54.3874C1.66151 47.8407 2.9202 40.681 4.97462 38.4276C7.41346 35.7539 12.2085 35.7477 15.0359 36.021C11.7786 38.9102 9.348 42.576 9.348 50.85C9.348 57.757 9.66629 62.682 14.36 66.1946C11.421 66.41 7.60981 66.3541 5.99149 65.0555ZM40.4515 29.8969C40.7983 30.7381 41.3285 31.491 42.0033 32.1002C42.6782 32.7095 43.4806 33.1596 44.3516 33.4177C45.3424 33.6245 46.3479 33.7527 47.3588 33.8008C50.5893 34.0784 56.0002 34.5381 57.0212 36.9841C57.529 37.9499 57.721 39.0513 57.57 40.1324C57.4191 41.2135 56.9328 42.2198 56.18 43.0089C54.6658 43.7638 52.9435 43.9912 51.2858 43.655C51.018 43.6219 50.7479 43.695 50.5332 43.8588C50.3185 44.0226 50.1763 44.2641 50.1368 44.5315C50.0974 44.799 50.164 45.0714 50.3223 45.2903C50.4806 45.5093 50.7181 45.6575 50.984 45.7033C52.9045 46.011 54.8718 45.8126 56.6926 45.1276C57.1034 45.8614 57.3337 46.6829 57.3643 47.5238C57.5682 49.0932 57.2313 50.6853 56.4094 52.0367C55.004 53.4222 51.8624 53.0722 50.7815 52.8175C50.5189 52.7657 50.2464 52.818 50.0216 52.9635C49.7967 53.1089 49.6369 53.3361 49.5758 53.5973C49.5147 53.8584 49.5572 54.1331 49.6942 54.3635C49.8312 54.594 50.052 54.7621 50.3103 54.8326C51.1992 55.0253 52.1062 55.1218 53.0157 55.1205C53.7214 55.1169 54.4247 55.0378 55.1135 54.8844C55.3524 55.9293 55.3699 57.0127 55.1649 58.0648C54.9598 59.1168 54.5367 60.1141 53.923 60.992C53.6727 61.2751 53.3806 61.5181 53.0571 61.7128C53.0405 61.7128 53.0178 61.7252 53.0013 61.7355C51.8753 62.3194 50.5866 62.5083 49.3409 62.272C49.2049 62.2507 49.0661 62.2569 48.9325 62.2902C48.7989 62.3234 48.6733 62.3831 48.563 62.4657C48.4528 62.5483 48.3601 62.6521 48.2904 62.771C48.2208 62.89 48.1755 63.0217 48.1574 63.1584C48.1392 63.2951 48.1484 63.4341 48.1846 63.5672C48.2208 63.7003 48.2831 63.8248 48.3679 63.9334C48.4528 64.042 48.5584 64.1326 48.6786 64.1997C48.7989 64.2668 48.9313 64.3092 49.0681 64.3244C49.5319 64.3877 49.9993 64.4202 50.4673 64.4217C51.1663 64.4213 51.8619 64.3238 52.5342 64.1318C52.5295 65.5678 52.0843 66.9676 51.2589 68.1414C50.8543 68.6343 50.3508 69.0364 49.7811 69.3218C49.2114 69.6073 48.5883 69.7696 47.952 69.7983C43.0392 70.285 29.2308 70.2249 20.1926 66.8988C11.8013 63.8211 11.4272 59.5154 11.4272 50.8396C11.4272 41.265 14.6907 38.7714 19.2067 35.3189C20.4468 34.3662 21.7365 33.3846 23.0531 32.173C23.3962 31.8602 23.731 31.5641 24.0513 31.2803C24.5598 30.8309 25.0372 30.4084 25.4671 29.9859C30.0368 25.4917 36.4688 15.4884 36.4688 7.31174C36.4599 6.95882 36.5907 6.61672 36.8328 6.36019C37.0749 6.10367 37.4084 5.95359 37.7605 5.94276C39.3065 5.73565 42.012 6.96587 43.2128 11.2406C44.1328 14.3619 43.9213 17.7088 42.6155 20.6888L42.6031 20.722C42.2419 21.5709 41.8277 22.3961 41.363 23.1928C40.6887 24.1565 40.2541 25.2678 40.0956 26.434C39.937 27.6002 40.0591 28.7875 40.4515 29.8969ZM70.9061 15.7617C70.9023 19.3972 69.4592 22.8826 66.8937 25.4531C64.3281 28.0235 60.8497 29.469 57.2217 29.4723C54.5367 29.4812 51.9097 28.6899 49.6747 27.1989C47.4397 25.7079 45.6976 23.5846 44.6699 21.0989C46.0275 17.7912 46.2113 14.1169 45.1908 10.6897C45.1122 10.4122 45.0047 10.174 44.9138 9.91302C45.847 7.92648 47.2445 6.19474 48.9878 4.86464C50.7311 3.53454 52.7688 2.64531 54.928 2.27236C57.0873 1.89941 59.3045 2.05374 61.3916 2.72225C63.4787 3.39076 65.3741 4.55375 66.9171 6.11259L56.2689 20.4859L51.4077 13.1335C51.3327 13.0201 51.2361 12.9226 51.1234 12.8466C51.0108 12.7706 50.8843 12.7176 50.7512 12.6906C50.6181 12.6636 50.481 12.6631 50.3477 12.6892C50.2144 12.7152 50.0876 12.7674 49.9744 12.8426C49.8612 12.9178 49.7639 13.0146 49.6881 13.1274C49.6122 13.2403 49.5593 13.3671 49.5323 13.5004C49.5054 13.6338 49.5049 13.7712 49.5309 13.9048C49.5569 14.0383 49.609 14.1654 49.684 14.2789L55.3574 22.8593C55.4483 22.9971 55.5708 23.1111 55.7146 23.1918C55.8584 23.2725 56.0194 23.3176 56.1842 23.3233H56.211C56.3715 23.3233 56.5297 23.2858 56.6732 23.2139C56.8167 23.142 56.9415 23.0376 57.0377 22.909L68.275 7.74253C69.9789 10.0682 70.9003 12.8767 70.9061 15.7617Z" fill="#2A3747"/>
</svg>