<svg width="25" height="30" viewBox="0 0 25 30" fill="none" xmlns="http://www.w3.org/2000/svg">
    <path d="M23.4373 13.6858H22.8629V2.84564C22.8629 2.35661 22.6711 1.88757 22.3296 1.5415C21.9881 1.19542 21.5249 1.00059 21.0415 0.999797H11.2202C11.1886 0.995185 11.1565 0.995185 11.1249 0.999797C11.0916 1.0084 11.0595 1.02157 11.0297 1.03894H11.0029C10.968 1.05967 10.936 1.08498 10.9077 1.11422L2.5982 10.1116C2.56272 10.1491 2.53446 10.193 2.51486 10.2411C2.51315 10.2551 2.51315 10.2692 2.51486 10.2832C2.50338 10.3183 2.49638 10.3547 2.49403 10.3916C2.49403 10.3916 2.49403 10.4097 2.49403 10.4187V13.6858H1.56249C1.14833 13.6866 0.751365 13.8534 0.458511 14.1497C0.165658 14.446 0.000786624 14.8477 0 15.2667V25.053C0.000786624 25.472 0.165658 25.8736 0.458511 26.1699C0.751365 26.4662 1.14833 26.633 1.56249 26.6338H2.47617V27.1608C2.47696 27.6498 2.66952 28.1185 3.01158 28.4641C3.35363 28.8096 3.81722 29.0036 4.30057 29.0036H21.0415C21.5244 29.0028 21.9872 28.8084 22.3286 28.463C22.67 28.1176 22.8622 27.6493 22.8629 27.1608V26.6338H23.4373C23.8515 26.633 24.2485 26.4662 24.5413 26.1699C24.8342 25.8736 24.999 25.472 24.9998 25.053V15.2667C24.999 14.8477 24.8342 14.446 24.5413 14.1497C24.2485 13.8534 23.8515 13.6866 23.4373 13.6858ZM10.7708 2.59571V8.96131C10.77 9.22781 10.665 9.48316 10.4787 9.67159C10.2925 9.86003 10.0401 9.96625 9.77672 9.96704H3.95235L10.7708 2.59571ZM3.36902 10.8704H9.77672C10.2769 10.8696 10.7564 10.6682 11.1101 10.3104C11.4638 9.95251 11.6628 9.46739 11.6636 8.96131V1.90315H21.0415C21.2881 1.90394 21.5242 2.00359 21.6983 2.18026C21.8724 2.35692 21.9701 2.5962 21.9701 2.84564V13.6858H3.36902V10.8704ZM21.9701 27.1608C21.9701 27.41 21.8723 27.6489 21.6981 27.8251C21.524 28.0013 21.2878 28.1003 21.0415 28.1003H4.30057C4.05402 28.1003 3.81753 28.0014 3.64292 27.8253C3.4683 27.6492 3.36981 27.4102 3.36902 27.1608V26.6338H21.9701V27.1608ZM24.107 25.053C24.107 25.2327 24.0364 25.405 23.9108 25.532C23.7853 25.6591 23.6149 25.7305 23.4373 25.7305H1.56249C1.38489 25.7305 1.21457 25.6591 1.08898 25.532C0.963402 25.405 0.892851 25.2327 0.892851 25.053V15.2667C0.892851 15.087 0.963402 14.9147 1.08898 14.7876C1.21457 14.6606 1.38489 14.5892 1.56249 14.5892H23.4373C23.6149 14.5892 23.7853 14.6606 23.9108 14.7876C24.0364 14.9147 24.107 15.087 24.107 15.2667V25.053Z" fill="white"/>
    <path d="M7.38639 19.9189L9.35364 17.0462C9.383 17.0023 9.40038 16.9514 9.40404 16.8985C9.4077 16.8456 9.3975 16.7927 9.37447 16.7451C9.34933 16.696 9.31132 16.6549 9.26459 16.6262C9.21787 16.5975 9.16424 16.5824 9.10959 16.5825H8.55305C8.5048 16.5829 8.45738 16.5952 8.41487 16.6183C8.37235 16.6414 8.33602 16.6746 8.309 16.715L6.74949 19.0276L5.22271 16.718C5.19548 16.6762 5.15835 16.6419 5.11469 16.6182C5.07104 16.5945 5.02224 16.5823 4.97272 16.5825H4.41617C4.36233 16.5827 4.30954 16.5976 4.26342 16.6257C4.2173 16.6538 4.17957 16.694 4.15427 16.7421C4.13037 16.7892 4.11917 16.8418 4.12178 16.8947C4.12439 16.9476 4.14073 16.9988 4.16915 17.0432L6.08283 19.949L4.08284 22.9602C4.05672 23.0059 4.04297 23.0579 4.04297 23.1107C4.04297 23.1636 4.05672 23.2155 4.08284 23.2613C4.10815 23.3094 4.14587 23.3496 4.19199 23.3777C4.23811 23.4058 4.2909 23.4207 4.34475 23.4209H4.90129C4.95031 23.4206 4.99851 23.4081 5.0416 23.3845C5.08469 23.3608 5.12135 23.3268 5.14831 23.2854L6.75247 20.8373L8.37448 23.2854C8.40144 23.3268 8.4381 23.3608 8.48119 23.3845C8.52428 23.4081 8.57248 23.4206 8.6215 23.4209H9.18697C9.24081 23.4207 9.29361 23.4058 9.33973 23.3777C9.38585 23.3496 9.42357 23.3094 9.44888 23.2613C9.47277 23.2142 9.48398 23.1616 9.48137 23.1087C9.47875 23.0558 9.46242 23.0046 9.434 22.9602L7.38639 19.9189Z" fill="white"/>
    <path d="M14.4493 22.385H11.4255V16.8746C11.4255 16.7947 11.3941 16.7182 11.3383 16.6617C11.2825 16.6052 11.2068 16.5735 11.1279 16.5735H10.6487C10.5698 16.5735 10.4941 16.6052 10.4382 16.6617C10.3824 16.7182 10.3511 16.7947 10.3511 16.8746V23.1318C10.3511 23.2117 10.3824 23.2883 10.4382 23.3447C10.4941 23.4012 10.5698 23.4329 10.6487 23.4329H14.36C14.43 23.4342 14.4983 23.4105 14.5527 23.3658C14.6072 23.3212 14.6443 23.2586 14.6576 23.189L14.7469 22.7434C14.7554 22.6996 14.7542 22.6545 14.7434 22.6113C14.7326 22.5681 14.7124 22.5278 14.6844 22.4934C14.6558 22.4586 14.6198 22.4308 14.5791 22.4121C14.5383 22.3933 14.494 22.3841 14.4493 22.385Z" fill="white"/>
    <path d="M17.9341 19.3017C16.7437 19.0006 16.6127 18.7717 16.6127 18.3502C16.6127 17.6757 17.2079 17.5341 17.6931 17.5341C18.4192 17.5341 18.818 17.8352 18.949 18.4375C18.9635 18.506 19.0012 18.5672 19.0555 18.6106C19.1098 18.654 19.1774 18.6769 19.2466 18.6754H19.7407C19.7822 18.6753 19.8232 18.6664 19.8612 18.6493C19.8991 18.6321 19.9331 18.6072 19.9609 18.576C19.9895 18.5446 20.0112 18.5075 20.0245 18.467C20.0379 18.4265 20.0426 18.3836 20.0383 18.3411C19.946 17.4799 19.2883 16.4712 17.7258 16.4712C16.1633 16.4712 15.5115 17.4227 15.5115 18.3652C15.5115 19.5486 16.3508 20.0033 17.6097 20.3195C18.949 20.6537 19.0532 21.0421 19.0532 21.5239C19.0532 22.3098 18.3657 22.4755 17.7883 22.4755C16.9579 22.4755 16.4937 22.1292 16.33 21.3854C16.3148 21.3175 16.2769 21.257 16.2227 21.2141C16.1684 21.1713 16.1011 21.1488 16.0323 21.1505H15.5383C15.4953 21.1505 15.4528 21.16 15.4138 21.1781C15.3747 21.1963 15.3401 21.2229 15.3121 21.2559C15.2847 21.2884 15.2644 21.3264 15.2526 21.3674C15.2408 21.4084 15.2377 21.4515 15.2437 21.4938C15.4133 22.7555 16.3568 23.5053 17.7645 23.5053C19.5293 23.5053 20.1454 22.4182 20.1454 21.4878C20.1573 20.6838 19.8924 19.7955 17.9341 19.3017Z" fill="white"/>
</svg>