<svg width="463" height="269" viewBox="0 0 463 269" fill="none" xmlns="http://www.w3.org/2000/svg">
    <path d="M56.2055 142.067C54.482 141.404 54.2168 143.127 52.3608 143.127C50.5047 143.127 50.2395 144.586 49.0464 145.381C47.8532 146.177 44.141 146.177 44.141 146.972C44.141 147.768 45.5994 149.889 43.7433 150.552C42.0198 151.215 43.4782 153.468 44.0085 155.324C44.5388 157.181 44.141 157.578 43.7433 159.567C43.213 161.688 42.9479 162.881 42.5501 162.484C42.0198 162.086 41.4895 160.893 41.0918 161.953C40.6941 163.014 40.6941 165.4 39.6335 165.268C38.5728 165.135 37.7774 166.726 37.5122 165.798C37.2471 164.87 36.5842 163.809 36.4516 164.34C36.319 165.003 37.6448 166.726 35.9213 165.4C34.1978 164.074 31.944 161.556 30.3531 162.749C28.7622 163.809 28.4971 165.135 27.3039 164.472C26.1107 163.942 24.9175 164.472 24.7849 166.593C24.7849 168.715 25.9781 170.04 23.0614 171.499C20.1448 172.957 20.0122 173.355 19.2167 175.874C18.5538 178.393 18.4213 180.514 15.5046 180.381C12.7205 180.249 11.7925 179.718 11.925 177.995C12.0576 176.271 9.53868 171.234 11.1296 170.438C12.7205 169.643 12.7205 166.593 10.8644 164.605C9.00838 162.616 5.95912 162.616 6.622 161.556C7.28488 160.495 6.22428 154.529 5.42882 152.408C4.50079 150.419 3.97048 152.275 3.8379 149.624C3.70533 146.972 -0.802258 143.525 0.125775 141.802C1.18638 140.078 1.71669 129.605 1.71669 127.351C1.84927 124.965 2.37957 123.771 3.3076 125.495C4.23563 127.218 4.76594 127.086 6.35685 126.953C8.08034 126.688 9.67125 127.483 10.069 128.544C10.4667 129.605 10.997 128.412 11.1296 126.821C11.1296 125.23 9.9364 122.313 11.925 123.904C13.9137 125.495 14.8417 126.688 16.5652 127.881C18.2887 129.074 19.6145 127.749 18.1561 126.555C16.6978 125.362 15.5046 124.567 16.3001 123.904C17.0955 123.241 18.819 122.843 20.0122 123.639C21.2054 124.434 20.0122 124.699 21.7357 125.76C23.3266 126.821 25.5804 127.483 26.641 125.362C27.7016 123.241 27.1713 122.711 28.3645 123.108C29.6902 123.506 32.0766 122.048 33.1372 121.65C34.1978 121.12 33.4024 120.192 32.8721 119.794C32.3418 119.264 32.0766 116.612 31.6789 114.491C31.2812 112.37 29.5577 113.828 30.4857 112.37C31.4137 110.911 32.4743 111.177 30.6183 109.188C28.7622 107.199 28.4971 107.067 28.2319 104.946C28.0993 102.957 25.8455 103.355 27.569 101.764C29.2925 100.173 31.4137 99.5099 30.3531 96.991C29.4251 94.472 28.4971 94.472 30.088 93.544C31.6789 92.7485 31.1486 93.8091 32.6069 92.616C34.0652 91.2902 35.6562 90.6273 34.1978 88.6387C32.7395 86.65 32.6069 84.9265 30.8834 84.6614C29.2925 84.2637 28.3645 83.203 31.5463 80.6841C34.7281 78.1652 34.7281 80.4189 35.7887 81.8773C36.8494 83.3356 42.4176 82.5402 40.8266 80.419C39.2357 78.2977 37.2471 78.2977 39.3683 77.6348C41.4895 77.1045 41.2244 70.8735 44.2736 71.2712C47.3229 71.5364 48.5161 68.8848 47.4554 67.0288C46.3948 65.1727 45.5994 65.8356 46.1297 64.775C46.7926 63.7144 46.66 61.9909 45.8645 60.7977C45.0691 59.6045 46.9251 57.6159 48.516 57.3507C50.107 57.0856 50.6373 54.9643 51.4327 55.4946C52.3608 56.0249 52.7585 54.9643 53.5539 53.7712C54.3494 52.7105 56.6032 51.9151 56.7358 53.1083C56.8683 54.3015 57.929 52.8431 59.2547 51.9151C60.5805 50.9871 61.2434 51.3848 62.0388 50.8545C62.8343 50.3242 63.6297 50.059 64.5578 50.8545C65.6184 51.6499 66.1487 50.3242 66.9441 49.5287C67.7396 48.7333 69.3305 49.7939 69.7282 50.4568C70.126 51.1196 70.7888 52.9757 71.3191 53.7712C71.7169 54.5666 73.1752 54.434 73.0426 53.2409C72.7775 52.0477 71.4517 51.6499 71.5843 50.3242C71.7169 48.9984 74.6335 49.131 73.9707 48.3355C73.3078 47.5401 71.982 46.7446 72.7775 46.4795C73.5729 46.3469 74.501 46.2143 76.4896 47.4075C78.4783 48.4681 82.5881 47.5401 82.8533 48.8658C83.1184 50.3242 84.3116 50.4568 85.2396 49.9265C86.1677 49.3962 90.4101 52.4454 92.2662 50.3242C93.9896 48.203 94.2548 43.8279 96.5086 43.8279C98.7624 43.9605 99.1601 43.1651 99.6904 41.8393C100.221 40.5135 101.016 41.9719 101.546 40.381C102.077 38.9226 106.85 38.5249 108.175 38.1272C109.501 37.862 113.478 32.0287 114.672 31.8961C115.865 31.8961 119.842 32.6916 120.903 31.8961C121.963 31.1006 121.3 28.184 123.952 27.6537C126.736 27.1234 126.073 26.1953 127.001 26.8582C128.062 27.5211 129.785 26.7256 130.315 27.5211C130.846 28.3165 132.569 27.9188 132.702 28.7143C132.702 29.5097 134.425 28.9794 134.293 29.7749C134.293 30.5703 134.823 30.9681 135.353 31.2332C135.884 31.4984 137.077 33.8847 136.149 34.1499C135.221 34.4151 132.967 31.2332 133.63 33.0893C134.293 34.8128 135.088 35.0779 133.762 35.7408C132.437 36.5363 132.304 37.0666 133.63 37.0666C135.088 37.1991 135.088 39.8507 134.823 42.237C134.558 44.6234 135.353 48.4681 134.293 49.7939C133.232 51.1196 133.63 51.7825 134.16 52.578C134.691 53.3734 132.967 54.0363 133.365 55.0969C133.762 56.1575 131.906 57.0856 131.376 57.7484C130.846 58.4113 129.918 60.2674 126.206 60.0022C122.494 59.7371 118.384 54.434 118.516 50.7219C118.649 46.8772 117.588 47.1424 118.384 44.6234C119.047 42.1045 119.975 39.7181 119.047 40.2484C118.251 40.7787 116.925 40.7787 116.66 43.9605C116.395 47.1424 115.865 49.2636 114.009 49.6613C112.153 50.059 111.092 48.203 110.031 49.6613C108.971 51.1196 108.838 52.1802 107.115 53.506C105.391 54.8318 105.126 54.3015 105.656 55.3621C106.187 56.4227 106.319 57.0856 105.789 58.5439C105.126 60.0022 106.054 62.9189 108.175 62.5212C110.297 62.256 108.838 60.9303 108.838 59.4719C108.706 58.1462 109.368 57.0856 110.694 56.5553C112.02 56.025 114.009 56.4227 113.478 57.7484C112.948 59.2068 111.622 60.0022 112.55 60.6651C113.478 61.328 114.539 59.4719 114.141 61.4606C113.876 63.4492 113.478 64.3772 114.274 64.775C115.069 65.1727 114.672 70.6083 114.937 69.8129C115.334 69.0174 114.804 66.3659 116.793 65.1727C118.649 63.9795 117.853 60.6651 119.444 60.6651C121.035 60.6651 121.433 60.7977 124.35 62.1234C127.266 63.3166 129.387 63.1841 129.52 64.9075C129.653 66.631 128.725 68.4871 129.785 68.6197C130.846 68.7523 134.028 67.8242 134.425 65.9682C134.691 64.1121 135.486 64.1121 137.74 62.6538C139.861 61.328 141.187 61.1954 141.319 59.6045C141.452 58.0136 142.115 56.4227 142.38 58.1462C142.645 59.8697 144.103 60.9303 144.103 62.7863C144.103 64.6424 144.766 67.0288 143.175 66.4985C141.717 66.1007 140.524 65.0401 139.198 65.5704C137.872 66.1007 138.005 65.5704 137.607 67.1613C137.209 68.7523 136.281 69.9454 138.005 70.8735C139.728 71.8015 140.922 71.8015 142.513 70.7409C144.103 69.6803 145.297 71.1386 147.55 71.8015C149.804 72.4644 151.13 71.8015 152.191 72.9947C153.251 74.1879 155.24 72.8621 155.24 74.0553C155.24 75.3811 155.903 75.1159 158.024 75.1159C160.013 75.1159 161.869 76.0439 160.543 76.1765C159.217 76.3091 158.687 76.3091 157.759 77.2371C156.831 78.0326 154.444 76.8394 155.107 77.9C155.77 78.9606 156.698 79.8886 158.422 79.6235C160.145 79.3583 162.266 81.0818 162.531 82.4076C162.797 83.6008 163.99 83.9985 164.918 82.8053C165.846 81.6121 169.293 82.6727 168.497 84.2637C167.569 85.722 166.244 84.794 166.641 86.5174C167.039 88.2409 167.437 88.7712 168.232 87.5781C168.895 86.3849 168.763 85.9871 170.088 86.9152C171.414 87.8432 172.74 87.5781 172.607 85.5894C172.475 83.6008 172.342 83.203 173.138 82.5402C173.933 82.0099 173.535 81.6121 173.138 80.6841C172.74 79.7561 172.21 75.9114 174.198 76.4417C176.054 76.972 173.668 81.347 174.198 82.0099C174.728 82.6727 177.115 83.6008 178.971 85.8546C180.827 88.2409 180.164 90.097 181.357 91.8205C182.683 93.544 183.213 97.6538 183.213 99.5099C183.213 101.366 182.816 101.366 184.274 100.438C185.6 99.5099 187.191 99.6425 186.925 98.4493C186.66 97.2561 185.467 97.2561 186.263 95.9304C187.191 94.6046 187.323 93.4114 186.925 92.3508C186.528 91.2902 185.069 92.0857 185.069 91.4228C185.202 90.7599 186.395 89.6993 187.456 89.6993C188.649 89.6993 188.251 89.4341 188.782 88.5061C189.312 87.5781 190.24 86.9152 190.903 86.1197C191.433 85.3243 189.047 85.3243 189.577 84.6614C190.107 83.8659 191.433 82.9379 194.615 82.6727C197.797 82.4076 200.581 76.5742 201.376 76.972C202.304 77.5023 206.944 80.9493 206.547 82.275C206.149 83.6008 205.486 84.794 203.63 85.8546C201.774 86.7826 201.111 86.1197 201.244 87.7106C201.509 89.3016 201.641 91.1576 200.051 93.8091C198.46 96.4607 195.676 99.5099 194.747 101.499C193.819 103.355 193.554 103.222 194.482 105.343C195.41 107.464 192.891 107.199 191.963 108.658C191.035 110.249 191.301 110.514 189.842 110.514C188.384 110.514 187.058 111.972 185.865 112.635C184.672 113.165 183.876 114.358 182.948 113.828C182.02 113.298 182.153 112.237 181.092 112.635C180.032 113.033 181.888 114.756 182.948 115.684C184.009 116.612 183.213 117.275 184.672 116.612C186.13 115.949 187.191 115.817 188.782 115.684C190.24 115.684 191.566 113.696 192.494 113.165C193.422 112.635 195.278 112.9 195.676 111.574C196.073 110.116 196.073 106.669 198.592 106.536C201.111 106.271 202.702 106.669 202.304 107.995C201.907 109.321 203.498 109.586 202.437 111.442C201.509 113.298 199.653 116.082 200.979 115.154C202.437 114.358 202.702 113.033 203.63 112.237C204.558 111.574 205.619 108.923 204.16 106.669C202.702 104.548 201.774 103.355 200.183 103.62C198.725 103.885 198.327 103.355 197.532 102.824C196.736 102.294 197.001 100.968 198.46 99.7751C199.918 98.4493 202.437 95.9304 202.967 94.3394C203.365 92.7485 202.304 88.6387 204.293 88.1084C206.282 87.5781 209.596 87.1803 210.259 84.794C210.922 82.4076 210.789 79.4909 211.717 80.419C212.645 81.347 212.645 85.3243 211.319 86.5174C209.994 87.7106 209.198 87.4455 208.801 88.9038C208.403 90.3622 207.077 90.097 207.342 91.1576C207.607 92.3508 211.054 94.472 211.054 95.6652C211.054 96.991 211.982 96.8584 212.38 95.6652C212.778 94.472 210.789 93.544 210.391 91.4228C210.126 89.3016 210.922 87.4455 211.717 87.8432C212.513 88.3735 213.308 91.5553 214.236 90.6273C215.164 89.6993 213.441 88.5061 213.971 87.8432C214.501 87.1803 212.248 87.3129 213.043 86.5174C213.971 85.8546 216.357 84.9265 215.96 85.9871C215.562 87.0478 214.369 87.8432 215.032 88.1084C215.827 88.3735 217.816 87.0478 218.081 89.3015C218.346 91.5553 219.539 91.1576 219.672 92.8811C219.672 94.7372 221.793 95.1349 222.588 95.0023C223.384 94.7372 221.793 93.4114 222.058 92.4834C222.323 91.4228 219.804 91.025 220.467 89.169C221.13 87.3129 221.926 87.5781 221.926 85.722C221.926 83.9985 222.323 81.7447 224.047 81.7447C225.903 81.7447 227.361 84.3962 230.41 84.2637C233.327 84.1311 231.736 83.2031 233.327 84.1311C234.918 85.0591 235.448 84.9265 235.316 83.8659C235.183 82.8053 233.062 81.6121 233.46 80.9493C233.857 80.2864 235.051 80.5515 234.123 79.2258C233.195 77.9 233.327 76.7068 234.785 77.3697C236.244 78.0326 237.304 76.7068 238.498 77.1046C239.691 77.3697 241.547 75.2485 242.475 75.6462C243.403 76.0439 243.801 74.1879 245.524 74.8508C247.248 75.5136 249.369 75.1159 248.573 74.3204C247.778 73.525 247.513 72.7295 251.755 72.3318C255.998 72.0667 254.804 72.3318 254.804 73.7902C254.672 75.2485 255.998 74.7182 256.926 74.0553C257.854 73.3924 259.312 75.6462 259.312 74.0553C259.179 72.4644 257.191 71.8015 258.517 71.6689C259.975 71.5363 261.036 71.8015 260.903 70.6083C260.77 69.4151 260.373 69.5477 261.301 68.6197C262.096 67.6916 262.892 65.0401 265.278 65.0401C267.664 65.0401 269.123 65.4379 268.46 66.4985C267.797 67.5591 263.952 67.9568 266.604 68.6197C269.255 69.15 272.039 69.0174 270.448 70.4757C268.858 72.0667 269.786 73.2598 271.642 72.0667C273.498 70.7409 276.679 70.4757 278.668 71.9341C280.524 73.3924 281.055 71.9341 281.585 73.6576C282.115 75.3811 282.778 78.9606 280.126 82.1424C277.475 85.3243 271.376 91.4228 270.051 92.7485C268.592 93.9417 269.123 94.472 272.437 93.1462C275.751 91.8205 276.282 91.5553 277.342 90.3622C278.403 89.3016 277.873 88.6387 277.342 89.4341C276.812 90.097 275.221 90.3621 275.089 89.8318C274.956 89.3015 275.619 88.2409 276.945 88.1084C278.403 87.9758 278.536 86.65 278.801 87.4455C279.066 88.2409 278.801 89.3015 280.126 89.169C281.452 89.0364 282.115 88.6387 280.657 87.3129C279.198 86.1197 277.342 85.9872 278.801 85.4569C280.126 84.794 280.789 83.0705 282.115 83.6008C283.441 83.9985 281.585 85.8546 281.585 86.65C281.585 87.4455 283.176 88.6387 283.043 89.5667C282.911 90.4947 283.308 90.8925 284.634 90.097C286.092 89.3016 288.214 88.2409 292.323 88.2409C296.433 88.2409 290.202 90.097 292.058 90.8925C293.914 91.5553 295.373 90.3622 295.638 91.2902C295.77 92.2182 296.698 90.6273 297.229 91.025C297.759 91.5553 300.808 89.9644 302.267 90.097C303.725 90.2296 301.869 87.4455 301.339 86.3849C300.808 85.3243 300.543 85.5894 301.471 84.9265C302.532 84.1311 303.592 83.8659 304.918 84.794C306.244 85.722 307.039 84.9265 307.57 85.3243C308.1 85.8546 308.896 83.6008 309.558 84.5288C310.221 85.4568 313.271 85.4568 313.271 86.9152C313.271 88.3735 313.005 89.0364 312.608 89.3015C312.21 89.6993 314.994 89.9644 314.729 90.8925C314.464 91.8205 311.945 90.8925 311.945 91.4228C311.945 92.0857 314.331 94.0743 314.596 93.6766C314.861 93.2788 314.331 91.9531 315.127 92.4834C315.922 93.0137 316.717 93.4114 315.922 93.8091C315.127 94.2069 315.259 94.472 315.524 94.8697C315.789 95.2675 317.911 95.7978 318.308 96.991C318.574 98.1842 319.104 96.8584 319.767 97.6538C320.43 98.4493 320.827 96.991 321.49 97.919C322.153 98.847 323.479 98.5819 322.683 95.0023C321.888 91.4228 320.297 89.169 322.153 90.2296C324.009 91.2902 323.744 92.0857 326.13 92.0857C328.517 91.9531 327.589 88.6387 329.975 88.6387C332.361 88.6387 334.615 89.169 333.157 88.3735C331.699 87.5781 330.771 87.9758 331.964 87.1803C333.157 86.3849 333.952 84.9265 335.013 85.722C336.074 86.5175 337.665 86.2523 336.206 84.6614C334.615 83.203 333.952 83.6008 334.35 82.5402C334.748 81.347 333.82 80.9493 333.555 81.7447C333.29 82.5402 332.229 82.275 332.229 81.347C332.229 80.419 333.29 78.9606 334.615 78.5629C336.074 78.1651 337.399 76.972 336.604 76.972C335.808 76.972 335.013 77.7674 334.085 77.6348C333.157 77.5023 332.759 76.4417 334.748 76.0439C336.736 75.7788 342.835 71.9341 344.028 72.4644C345.221 72.8621 345.752 73.525 344.824 74.0553C343.896 74.5856 343.1 74.1879 343.63 74.9833C344.293 75.7788 344.691 75.5136 344.161 76.4417C343.63 77.3697 344.558 78.4303 345.221 77.6348C346.017 76.8394 346.149 74.9833 346.017 73.9227C345.752 72.8621 344.956 72.1992 346.149 71.4038C347.343 70.6083 349.729 69.15 351.452 70.4757C353.043 71.6689 350.79 72.0667 350.79 72.9947C350.79 73.7901 351.055 73.9227 351.85 73.1273C352.646 72.3318 352.513 71.9341 352.911 72.8621C353.441 73.7901 353.839 71.6689 354.634 72.7295C355.43 73.6576 355.827 71.9341 356.888 71.9341C357.949 71.9341 358.479 73.2598 359.672 73.1273C360.733 72.9947 364.047 62.3886 370.146 62.5212C376.244 62.6538 375.051 65.8356 376.774 65.8356C378.498 65.8356 377.702 64.2447 379.559 64.9075C381.415 65.5704 383.138 66.1007 381.812 66.631C380.487 67.1613 379.161 67.5591 378.631 67.0288C378.1 66.4985 377.57 66.8962 378.233 67.6916C378.896 68.4871 383.271 67.2939 383.403 66.3659C383.403 65.4378 379.161 64.775 380.221 62.9189C381.149 61.1954 382.078 59.0742 383.934 58.4113C385.79 57.7484 388.839 53.9037 388.309 52.7106C387.778 51.3848 386.453 50.3242 387.248 49.3961C387.911 48.4681 389.502 46.7446 390.297 47.8052C391.093 48.7333 392.816 48.9984 390.96 49.9265C389.104 50.7219 388.176 50.8545 388.574 51.5174C388.971 52.1802 390.032 52.0477 391.225 52.578C392.418 53.1083 392.684 50.059 394.009 50.9871C395.468 51.9151 396.528 51.3848 395.865 49.3961C395.07 47.4075 394.009 46.8772 392.684 47.4075C391.358 47.9378 390.828 47.2749 391.093 46.0817C391.358 44.8886 388.309 46.7446 389.767 44.756C391.225 42.7673 393.877 42.3696 394.142 39.8507C394.407 37.1991 399.445 32.1613 403.422 30.9681C407.4 29.9075 407.665 27.7862 409.918 27.7862C412.172 27.7862 415.487 23.4112 416.812 23.9415C418.271 24.4718 419.597 24.0741 419.066 23.4112C418.403 22.7484 418.403 22.3506 419.066 22.0855C419.729 21.8203 420.127 23.5438 420.525 22.3506C420.922 21.1574 421.32 21.0249 421.983 21.6877C422.646 22.218 427.286 23.5438 427.551 22.6158C427.816 21.6877 422.381 21.1574 423.972 19.434C425.562 17.7105 426.888 14.9264 428.612 14.5286C430.335 14.1309 433.65 10.8165 434.18 12.1423C434.71 13.3355 438.157 14.9264 436.831 15.5892C435.506 16.2521 438.025 17.0476 436.831 17.9756C435.638 18.7711 432.589 20.4946 434.047 20.6271C435.506 20.6271 435.373 19.3014 436.831 20.0968C438.29 20.8923 439.085 19.9643 439.085 21.4226C439.085 22.8809 445.051 22.7484 443.593 24.0741C442.134 25.3999 441.206 27.2559 439.35 27.6537C437.362 28.0514 436.434 30.7029 435.506 30.3052C434.71 29.7749 433.65 28.9794 432.456 30.1726C431.396 31.3658 430.733 34.8128 429.407 35.3431C428.081 35.8734 424.237 32.4264 423.839 33.2219C423.574 34.0173 425.165 35.2105 424.369 35.8734C423.574 36.6688 424.9 38.2598 425.828 37.7294C426.888 37.1991 429.009 37.9946 429.805 39.8507C430.6 41.7067 430.203 43.5628 431.396 44.4908C432.589 45.2863 429.009 46.0817 429.009 47.2749C429.009 48.4681 432.191 49.2636 432.324 47.8052C432.456 46.3469 431.396 45.9492 433.252 46.0817C435.108 46.2143 438.025 46.6121 438.157 48.0704C438.29 49.5287 439.616 46.6121 440.809 47.9378C442.002 49.131 445.714 48.203 446.377 49.9265C447.04 51.6499 443.858 52.1802 442.93 53.7712C442.002 55.3621 439.218 53.1083 440.411 55.0969C441.604 57.0856 442.267 57.7484 441.869 60.2674C441.472 62.7863 443.593 66.1007 442.665 66.631C441.737 67.1613 442.134 67.8242 442.532 68.7523C442.93 69.6803 440.809 69.2826 442.267 71.006C443.593 72.7295 442.002 73.7901 442.93 74.7182C443.858 75.6462 443.991 76.1765 443.858 77.1046C443.725 78.0326 447.04 81.0818 446.509 81.7447C445.979 82.5402 440.146 80.5515 439.218 84.2637C438.157 87.9758 440.013 93.2788 438.953 93.0137C437.892 92.7485 435.903 88.7712 435.771 91.025C435.638 93.1463 435.506 94.2069 436.169 95.7978C436.831 97.3887 436.831 98.9796 436.169 97.7864C435.506 96.7258 435.108 96.1955 434.18 96.4607C433.252 96.8584 434.71 97.1235 433.915 97.6538C432.987 98.3167 432.324 98.4493 432.987 99.6425C433.65 100.836 436.831 103.089 436.831 105.476C436.699 107.862 438.555 112.105 439.881 111.972C441.206 111.839 440.809 108.79 442.93 109.055C445.051 109.321 443.593 112.237 444.786 113.165C445.979 114.093 446.775 114.624 447.703 114.226C448.631 113.696 448.896 112.768 449.161 113.961C449.426 115.021 451.945 114.756 451.547 116.612C451.15 118.468 449.161 118.601 449.161 117.408C449.161 116.214 449.426 115.684 448.896 116.082C448.366 116.612 448.233 117.673 449.161 119.396C450.089 121.12 451.415 124.965 453.669 125.097C455.922 125.23 456.453 127.086 454.862 128.411C453.271 129.737 453.138 131.461 453.403 133.98C453.669 136.499 458.574 137.162 457.381 138.487C456.188 139.813 454.464 141.934 457.116 146.177C459.635 150.419 459.237 150.552 458.706 152.54C458.176 154.529 460.828 159.302 458.441 157.711C456.055 155.987 456.85 154.927 451.282 152.01C445.714 149.093 444.521 146.972 441.604 145.249C438.688 143.525 430.468 137.029 430.07 132.124C429.672 127.218 430.335 127.351 428.612 126.423C427.021 125.495 429.407 124.965 428.479 123.506C427.551 121.915 430.468 122.976 430.203 118.203C430.07 113.43 427.021 110.779 427.949 107.995C428.877 105.211 425.562 102.824 426.756 100.04C427.816 97.3887 427.816 95.6652 427.153 95.4001C426.49 95.1349 427.286 93.0137 425.828 92.8811C424.369 92.7485 424.9 91.5554 423.441 90.097C421.983 88.6387 421.055 87.5781 422.115 86.1197C423.176 84.6614 421.85 83.9985 420.525 85.5894C419.066 87.3129 418.668 89.9644 421.32 91.9531C423.972 93.9417 422.911 93.4114 422.381 94.6046C421.718 95.7978 422.513 100.305 422.115 102.824C421.85 105.343 421.055 104.283 420.657 103.355C420.392 102.294 420.127 105.211 419.066 103.885C417.873 102.559 417.475 99.3773 416.415 98.9796C415.354 98.5819 417.078 101.499 415.089 101.764C413.1 102.029 413.763 102.294 412.835 103.752C411.907 105.211 410.184 105.476 410.051 107.067C409.918 108.658 412.04 109.453 411.244 110.514C410.449 111.707 411.907 112.9 411.509 114.756C410.979 116.612 410.449 121.12 412.04 122.18C413.631 123.241 414.559 123.374 416.547 122.578C418.536 121.783 418.536 124.302 416.812 124.965C415.222 125.627 416.017 126.821 414.426 126.953C412.968 127.086 412.968 127.218 412.835 129.074C412.703 130.93 412.305 130.665 411.377 131.461C410.449 132.256 409.521 134.775 408.46 133.715C407.4 132.654 409.388 131.196 409.521 130.268C409.653 129.34 406.869 128.544 406.339 130.135C405.809 131.726 405.146 131.461 403.29 131.991C401.434 132.521 400.638 132.787 400.638 133.715C400.638 134.51 401.699 134.377 401.301 135.04C400.903 135.703 399.445 135.438 400.506 136.499C401.566 137.559 403.025 138.487 400.638 138.355C398.252 138.222 399.047 136.366 398.252 138.222C397.456 139.946 397.324 139.946 395.865 140.078C394.407 140.211 395.998 141.802 394.937 143.127C393.877 144.453 392.816 141.404 392.021 142.199C391.225 142.995 387.646 143.393 387.381 145.514C387.248 147.635 386.718 146.442 385.524 147.635C384.331 148.828 383.934 150.419 384.331 152.805C384.729 155.192 383.934 154.529 383.271 156.65C382.608 158.771 384.994 159.037 384.331 162.086C383.668 165.135 382.078 163.014 381.812 165.4C381.547 167.787 381.149 167.389 380.752 168.449C380.354 169.51 380.487 170.173 380.619 173.62C380.752 177.067 377.04 181.707 375.846 184.359C374.653 187.01 376.377 189.529 378.763 187.408C381.149 185.419 380.619 183.563 382.475 186.48C384.331 189.397 384.464 190.457 385.392 189.794C386.187 188.999 383.668 188.336 384.729 186.878C385.79 185.419 388.309 183.563 387.381 185.684C386.32 187.806 386.85 188.071 387.381 188.734C387.911 189.397 387.248 191.385 388.706 189.927C390.165 188.468 389.369 185.552 390.032 186.082C390.695 186.612 391.358 190.59 391.49 188.468C391.623 186.347 391.623 185.287 390.43 184.491C389.237 183.696 390.43 183.298 391.756 183.033C393.081 182.768 394.009 180.779 395.335 181.972C396.661 183.165 398.384 183.431 399.975 183.431C401.566 183.563 402.494 184.491 402.362 185.154C402.097 185.817 399.312 186.48 401.036 187.143C402.759 187.806 403.953 189.131 404.881 190.059C405.941 190.855 404.35 194.965 406.339 198.544C408.328 202.124 410.847 203.184 411.377 205.04C411.907 207.029 413.896 205.571 413.498 207.825C413.1 210.078 415.487 214.321 414.028 216.044C412.57 217.768 413.233 221.878 413.365 225.855C413.498 229.832 412.305 240.438 410.979 245.741C409.521 251.044 407.4 256.347 405.278 258.734C403.29 261.12 403.555 261.253 402.627 260.988C401.699 260.722 402.096 261.65 400.108 261.518C398.119 261.385 398.915 258.071 397.987 259.794C397.191 261.518 395.335 256.347 395.6 259.264C395.865 262.181 397.191 263.109 395.865 264.037C394.672 264.965 393.479 266.158 394.275 266.821C395.07 267.484 394.009 268.942 392.418 267.882C390.828 266.821 394.407 265.363 393.877 262.976C393.346 260.59 391.888 254.624 389.634 253.298C387.248 251.972 388.441 251.575 389.634 250.514C390.828 249.453 390.695 244.283 391.756 247.067C392.816 249.851 396.396 254.094 396.396 247.995C396.528 241.897 396.396 239.908 395.865 237.522C395.335 235.135 395.07 233.147 394.805 232.219C394.672 231.158 396.131 230.76 395.335 229.169C394.54 227.446 393.877 226.12 393.214 225.722C392.551 225.457 391.623 225.988 390.828 228.109C390.032 230.23 388.176 228.639 387.778 230.363C387.381 232.086 386.187 233.412 384.729 234.207C383.138 235.003 382.475 234.34 381.282 235.4C380.089 236.461 379.161 236.196 378.631 235.268C378.1 234.34 377.437 233.412 377.835 232.351C378.1 231.291 378.365 228.772 376.774 229.302C375.316 229.832 375.449 231.291 372.93 229.832C370.411 228.241 370.543 227.446 369.483 228.374C368.422 229.302 368.024 229.567 366.831 228.904C365.505 228.109 365.771 231.821 362.987 229.832C360.335 227.844 361.793 229.302 358.214 224.397C354.767 219.491 354.369 220.552 352.38 217.237C350.392 213.923 350.79 211.934 347.608 211.934C344.426 211.934 343.1 212.332 340.581 211.537C338.062 210.741 337.665 210.344 335.146 211.669C332.627 212.995 331.699 213.128 329.577 215.116C327.589 217.105 325.733 218.431 326.528 219.756C327.324 221.082 330.373 219.889 330.505 222.673C330.638 225.457 329.445 225.325 328.119 227.313C326.926 229.302 326.793 230.893 326.793 232.616C326.793 234.34 328.384 237.124 326.13 238.45C323.877 239.775 324.274 243.753 322.683 242.56C321.092 241.366 320.562 241.764 318.706 241.764C316.85 241.764 317.646 240.041 315.127 240.306C312.608 240.571 312.608 244.15 310.221 242.427C307.835 240.836 308.365 238.847 305.714 240.836C303.195 242.825 304.388 243.355 302.93 245.078C301.471 246.669 302.134 246.139 298.952 247.067C295.903 247.995 294.18 247.465 292.589 249.586C290.998 251.707 288.081 251.442 284.899 249.719C281.85 247.995 279.464 249.188 279.331 247.332C279.066 245.476 280.922 244.813 277.608 244.946C274.161 245.078 275.486 243.488 273.763 242.692C272.039 241.897 272.039 243.355 269.52 241.764C267.001 240.173 261.831 245.211 258.251 243.09C254.804 240.969 256.395 239.245 254.804 236.859C253.214 234.472 251.225 236.328 248.043 233.677C244.729 231.025 242.475 228.374 241.414 229.7C240.354 231.025 239.426 231.821 238.1 233.279C236.907 234.87 235.979 235.268 236.642 237.919C237.304 240.571 238.63 241.234 236.509 242.56C234.388 243.885 235.581 245.874 232.929 244.548C230.145 243.355 228.422 242.294 227.494 242.294C226.433 242.294 222.588 242.427 221.793 239.51C220.998 236.594 221.66 236.991 218.346 236.726C214.899 236.461 213.971 231.821 213.176 233.279C212.513 234.738 211.187 233.677 210.126 234.605C209.066 235.533 209.331 234.472 206.679 235.798C204.16 237.124 202.702 237.256 201.641 237.919C200.581 238.582 201.509 240.041 200.183 239.378C198.857 238.715 198.194 240.836 196.604 239.775C195.013 238.715 195.278 238.582 193.554 239.245C191.831 240.041 190.638 240.703 190.107 238.45C189.577 236.328 189.047 236.461 189.577 235.798C190.107 235.003 189.312 234.87 187.986 235.4C186.66 235.931 187.323 236.859 185.467 235.4C183.744 233.942 182.418 234.472 182.418 233.147C182.418 231.821 183.081 229.434 181.755 229.169C180.429 228.904 180.297 229.037 180.429 227.048C180.562 225.059 179.899 222.806 177.115 223.071C174.463 223.336 175.922 225.457 172.872 223.601C169.823 221.745 169.293 221.347 169.558 219.226C169.823 217.105 168.763 217.9 167.437 218.961C166.111 220.022 164.122 221.612 164.52 217.503C165.05 213.26 165.183 202.787 163.592 200.665C162.001 198.544 161.869 196.423 161.073 195.495C160.41 194.567 159.35 193.639 160.675 193.772C162.001 193.904 164.255 192.578 162.797 192.578C161.206 192.446 157.228 191.385 156.3 192.313C155.372 193.109 155.505 192.711 154.444 192.843C153.384 192.976 151.925 193.109 150.865 192.976C149.804 192.843 148.213 193.109 148.744 192.313C149.274 191.518 149.539 190.722 149.274 189.927C149.009 189.131 148.213 189.397 148.081 188.468C147.948 187.54 144.899 189.529 145.694 188.203C146.49 186.878 147.418 185.684 146.357 185.684C145.297 185.684 141.717 185.021 142.38 184.093C142.91 183.165 144.369 181.044 145.031 179.851C145.827 178.79 143.838 177.2 142.91 176.537C141.982 175.874 140.259 172.162 138.668 172.559C137.077 172.957 133.1 172.559 130.448 171.499C127.797 170.438 127.399 169.245 126.206 170.04C125.012 170.836 124.88 171.499 124.217 170.703C123.554 169.908 120.372 169.245 117.323 167.919C114.274 166.593 114.672 163.279 111.622 163.942C108.706 164.605 106.982 165.931 108.573 167.919C110.164 169.908 110.164 171.896 108.44 170.703C106.717 169.51 104.463 167.787 104.198 169.643C103.933 171.499 104.463 172.559 101.679 172.294C98.895 172.029 96.7737 171.764 99.0275 175.078C101.281 178.393 102.475 178.923 100.088 179.718C97.7018 180.514 94.52 182.237 94.3874 179.188C94.2548 176.139 94.2548 176.404 93.0616 176.802C91.8684 177.2 90.1449 176.139 90.4101 174.283C90.6752 172.427 92.929 170.703 90.2775 169.908C87.626 169.112 86.3002 171.101 86.0351 168.98C85.7699 166.859 85.3722 166.461 83.9139 166.593C82.4555 166.726 82.0578 167.654 80.5995 166.063C79.1411 164.472 79.2737 163.809 79.4063 162.484C79.5389 161.025 78.876 159.965 77.9479 161.556C76.8873 163.146 75.8267 164.074 76.2245 162.616C76.6222 161.158 77.0199 159.302 77.4176 157.976C77.6828 156.518 78.4782 155.987 76.8873 155.059C75.2964 154.131 74.3684 154.529 74.8987 153.203C75.429 151.745 76.0919 151.612 74.1032 151.082C72.1146 150.552 71.7169 149.889 71.982 149.226C72.2472 148.563 70.9214 146.177 67.8722 146.309C64.8229 146.574 65.6184 144.851 64.5578 145.779C63.3646 146.707 63.8949 146.707 61.7737 145.779C59.6524 144.851 60.8456 143.658 59.3873 145.249C57.929 146.84 55.6752 149.093 55.1449 147.37C55.0123 145.779 58.0615 142.862 56.2055 142.067Z" fill="#E5E5E5"/>
    <path d="M31.9444 39.5855C30.6187 41.8393 31.4141 42.3696 31.9444 43.2976C32.4747 44.2257 31.5467 44.8886 30.2209 44.756C29.0277 44.6234 29.4255 43.6954 28.0997 44.756C26.774 45.8166 27.0391 45.4189 26.1111 43.0325C25.183 40.6461 25.3156 39.4529 24.9179 37.4643C24.5202 35.4757 23.8573 34.9453 25.0505 34.9453C26.3762 34.9453 26.1111 34.8128 27.0391 34.1499C27.9671 33.487 28.3649 34.2825 29.2929 35.2105C30.2209 36.1385 32.3421 37.4643 31.149 37.4643C29.9558 37.4643 28.8952 36.2711 29.1603 37.4643C29.4255 38.6575 32.6073 38.3923 31.9444 39.5855Z" fill="#E5E5E5"/>
    <path d="M154.179 69.2829C151.13 69.6806 151.395 69.9458 150.467 68.4874C149.539 67.0291 150.069 66.4988 151.262 65.7033C152.323 64.9079 154.179 63.7147 154.709 65.4382C155.372 67.1617 154.974 69.1503 154.179 69.2829Z" fill="#E5E5E5"/>
    <path d="M172.342 73.9231C170.884 73.7905 172.475 73.658 170.751 71.9345C169.028 70.211 167.172 68.7526 167.967 67.692C168.763 66.6314 170.619 66.2337 170.486 64.5102C170.353 62.7867 167.437 61.8587 168.365 60.5329C169.293 59.2072 171.016 57.3511 172.077 58.6769C173.137 60.0026 174.198 60.1352 175.259 58.8094C176.319 57.6163 176.054 56.5556 177.513 56.8208C178.971 57.086 179.501 55.495 181.092 56.2905C182.683 57.086 184.804 57.4837 183.346 56.1579C181.888 54.6996 181.092 54.1693 182.153 54.1693C183.213 54.3019 184.406 54.3019 185.069 54.6996C185.732 54.9647 185.335 54.567 186.13 54.9647C186.925 55.3625 187.456 53.9041 188.119 54.1693C188.781 54.4344 188.251 53.3738 189.71 52.4458C191.168 51.6503 191.698 50.3246 191.963 51.2526C192.096 52.1806 192.626 51.3852 194.085 51.6503C195.41 51.9155 196.736 50.4571 197.797 50.9874C198.857 51.5178 199.653 50.8549 200.448 51.5178C201.244 52.1806 202.172 51.12 202.702 51.5178C203.232 52.0481 203.63 50.8549 204.16 51.7829C204.691 52.5784 205.221 53.639 207.077 53.9041C208.933 54.1693 209.331 53.3738 211.585 53.3738C213.838 53.3738 216.225 58.4117 209.729 58.2791C203.232 58.014 199.653 56.9534 197.929 56.9534C196.338 56.9534 197.797 57.6163 196.206 58.014C194.615 58.4117 194.747 59.7375 193.819 58.942C192.891 58.1466 192.891 57.086 192.494 57.8814C192.096 58.6769 191.3 56.1579 191.168 57.3511C191.035 58.6769 190.505 58.6769 189.444 59.2072C188.384 59.7375 189.047 58.5443 187.986 59.2072C186.925 59.8701 186.925 59.6049 185.6 60.2678C184.141 60.9307 183.478 60.2678 182.153 61.1958C180.827 62.1238 180.429 61.461 179.766 62.5216C179.103 63.5822 178.706 62.9193 176.982 63.9799C175.126 65.0405 174.728 65.0405 174.331 67.1617C173.8 69.283 173.005 69.0178 173.403 70.8739C173.8 72.7299 174.861 72.8625 173.933 73.3928C173.005 73.9231 172.342 73.9231 172.342 73.9231Z" fill="#E5E5E5"/>
    <path d="M202.834 76.5744C203.1 74.3206 205.884 73.9229 206.414 74.7184C206.944 75.5138 206.944 76.3093 206.414 76.707C205.884 77.1047 208.137 77.9002 206.812 78.0328C205.619 78.0328 202.702 77.2373 202.834 76.5744Z" fill="#E5E5E5"/>
    <path d="M218.744 85.4569C220.468 85.0592 219.54 87.8433 218.744 87.7107C217.949 87.5781 217.418 85.722 218.744 85.4569Z" fill="#E5E5E5"/>
    <path d="M229.217 71.9341C228.024 73.525 228.289 74.3205 229.748 74.3205C231.206 74.3205 231.604 72.597 230.808 71.9341C230.013 71.1386 229.217 71.9341 229.217 71.9341Z" fill="#E5E5E5"/>
    <path d="M266.338 55.8926C265.543 55.6274 264.747 56.8206 264.482 56.4229C264.217 56.0251 265.543 55.76 264.88 54.5668C264.217 53.3736 263.819 53.1085 263.156 54.1691C262.361 55.2297 264.217 56.1577 263.952 56.5554C263.687 56.9532 263.156 56.8206 262.228 57.616C261.3 58.4115 261.565 58.9418 261.433 59.6047C261.3 60.2676 259.974 61.3282 259.444 62.1236C258.914 62.9191 258.914 63.582 261.168 62.5214C263.421 61.4608 262.891 61.5933 264.482 61.9911C266.206 62.3888 266.603 61.063 267.796 60.5327C268.99 60.0024 267.531 58.0138 267.001 57.8812C266.471 57.6161 266.868 56.0251 266.338 55.8926Z" fill="#E5E5E5"/>
    <path d="M255.335 48.3356C254.142 48.9985 253.744 50.0591 253.214 50.5894C252.684 51.1197 252.816 53.2409 253.479 54.3015C254.142 55.3621 255.468 55.3621 257.059 56.6879C258.65 58.0137 258.384 57.4833 259.312 55.6273C260.24 53.6386 261.831 52.7106 261.831 51.1197C261.831 49.5288 260.24 48.4682 259.71 49.3962C259.18 50.3242 259.18 49.5288 258.517 48.7333C257.854 47.8053 255.998 47.9379 255.335 48.3356Z" fill="#E5E5E5"/>
    <path d="M258.516 39.8508C257.058 40.116 257.323 41.9721 255.467 42.2372C253.744 42.6349 255.069 42.5024 253.611 43.9607C252.153 45.419 251.622 45.9493 252.815 47.1425C254.009 48.3357 253.876 47.5403 255.467 47.2751C257.058 47.1425 257.853 48.2031 258.384 47.0099C258.914 45.8168 258.251 45.2865 259.047 44.8887C259.842 44.491 260.107 44.7562 259.312 43.2978C258.781 42.1046 258.914 39.8508 258.516 39.8508Z" fill="#E5E5E5"/>
    <path d="M250.297 47.6731C252.948 47.408 253.744 48.2034 253.479 48.9989C253.214 49.7943 253.214 50.7224 252.286 50.5898C251.358 50.4572 249.501 47.8057 250.297 47.6731Z" fill="#E5E5E5"/>
    <path d="M270.316 61.4606C269.123 61.5931 267.93 61.5931 268.858 62.5212C269.786 63.4492 270.449 64.775 270.846 63.7143C271.244 62.5212 270.714 61.328 270.316 61.4606Z" fill="#E5E5E5"/>
    <path d="M254.407 67.5592C252.551 67.4266 251.888 68.3546 252.949 69.0175C254.009 69.6804 254.937 70.6084 255.335 69.2827C255.733 67.9569 255.07 67.5592 254.407 67.5592Z" fill="#E5E5E5"/>
    <path d="M331.699 69.6804C329.577 70.741 330.638 72.1994 330.108 73.1274C329.71 74.0554 327.854 74.8509 328.517 75.9115C329.18 76.9721 330.24 74.9834 331.036 73.9228C331.831 72.8622 333.82 74.0554 334.615 72.3319C335.411 70.6084 333.157 69.0175 331.699 69.6804Z" fill="#E5E5E5"/>
    <path d="M329.842 58.4114C328.649 57.0856 326.528 56.953 325.865 57.8811C325.202 58.8091 324.141 58.2788 323.611 58.2788C322.153 58.2788 320.429 57.2182 321.225 58.9417C322.02 60.5326 324.539 62.1235 322.948 61.9909C321.357 61.7258 319.104 59.8697 318.043 60.7977C316.85 61.7258 316.32 66.1008 318.838 67.8243C321.49 69.5478 323.479 69.6803 323.876 68.3546C324.274 67.0288 327.058 63.9796 327.456 64.5099C327.854 65.0402 329.577 63.4493 330.24 62.2561C331.035 60.9303 331.035 59.7371 329.842 58.4114ZM326.926 62.2561C325.202 61.328 324.539 60.2674 325.202 59.6046C325.467 59.3394 327.191 60.7977 328.384 62.2561C329.445 63.5818 328.649 63.1841 326.926 62.2561Z" fill="#E5E5E5"/>
    <path d="M335.278 55.6274C334.615 56.9532 333.157 56.8206 332.759 57.3509C332.362 57.8812 330.505 56.0251 331.434 57.8812C332.362 59.7373 333.29 60.0024 334.085 59.3395C334.881 58.6767 336.074 60.4001 337.93 58.5441C339.918 56.8206 340.449 56.0251 339.256 54.9645C338.195 53.7713 335.411 55.2297 335.278 55.6274Z" fill="#E5E5E5"/>
    <path d="M314.729 65.5703C315.79 65.3052 317.911 66.1006 317.38 67.4264C316.85 68.7522 315.259 69.1499 315.259 67.8241C315.127 66.4984 314.066 65.8355 314.729 65.5703Z" fill="#E5E5E5"/>
    <path d="M328.119 69.4151C329.312 69.0174 330.373 70.4758 329.577 71.5364C328.914 72.4644 327.721 73.2599 327.456 71.9341C327.191 70.6083 327.456 69.6803 328.119 69.4151Z" fill="#E5E5E5"/>
    <path d="M320.032 74.5854C322.551 74.718 323.214 75.3809 322.816 75.9112C322.418 76.4415 321.092 76.3089 320.297 75.9112C319.502 75.646 319.369 74.5854 320.032 74.5854Z" fill="#E5E5E5"/>
    <path d="M393.081 27.7866C390.562 27.654 387.911 22.2184 390.165 20.4949C392.418 18.7714 395.998 18.2411 395.733 20.8926C395.6 23.4116 392.418 23.0138 393.081 24.8699C393.744 26.8585 393.877 27.7866 393.081 27.7866Z" fill="#E5E5E5"/>
    <path d="M403.687 181.973C406.206 181.31 404.748 179.189 403.422 177.863C402.096 176.404 401.831 176.139 403.157 175.874C404.483 175.609 413.498 183.564 412.305 184.226C411.111 184.889 409.255 186.215 415.221 189.397C421.055 192.579 423.706 199.34 427.286 200.136C430.865 200.931 431.13 202.655 429.407 202.124C427.816 201.594 424.767 199.605 422.645 201.859C420.524 203.98 424.104 206.764 424.899 209.814C425.695 212.995 429.274 213.393 430.335 214.454C431.395 215.382 431.661 216.442 432.191 215.514C432.721 214.586 435.24 217.105 435.108 218.431C435.108 219.757 434.047 217.636 432.721 217.636C431.395 217.636 431.661 218.564 430.467 218.166C429.274 217.768 429.009 217.901 429.407 219.757C429.805 221.48 432.191 224.397 429.805 223.336C427.286 222.143 426.888 220.155 425.827 217.768C424.767 215.382 424.899 215.249 423.971 214.719C423.043 214.189 423.176 212.2 421.717 210.344C420.259 208.488 419.464 212.067 417.608 205.173C415.752 198.28 412.967 199.208 412.835 196.291C412.702 193.374 409.123 193.242 407.664 190.988C406.073 188.867 406.206 188.204 405.676 186.348C405.145 184.094 402.096 182.37 403.687 181.973Z" fill="#E5E5E5"/>
    <path d="M439.616 99.6425C437.76 97.5213 439.351 101.101 438.29 102.294C437.23 103.355 438.423 103.355 439.483 104.813C440.544 106.271 440.014 104.813 440.411 103.089C440.809 101.366 440.809 100.836 439.616 99.6425Z" fill="#E5E5E5"/>
    <path d="M458.972 166.461C457.513 166.461 457.116 164.737 457.513 163.942C457.911 163.146 457.116 160.76 457.911 160.495C458.707 160.23 458.972 160.362 459.635 161.29C460.297 162.218 461.226 162.218 460.43 163.014C459.635 163.809 459.237 164.34 459.104 165.135C459.104 166.063 459.502 166.461 458.972 166.461Z" fill="#E5E5E5"/>
    <path d="M456.319 161.158C455.524 161.423 455.391 162.483 455.922 162.616C456.585 162.749 457.38 162.881 456.982 161.821C456.717 160.893 456.452 161.025 456.319 161.158Z" fill="#E5E5E5"/>
    <path d="M459.634 159.169C458.706 159.567 458.706 159.964 459.369 160.495C460.031 160.893 460.827 161.025 460.562 160.097C460.429 159.302 460.031 159.036 459.634 159.169Z" fill="#E5E5E5"/>
    <path d="M460.298 169.113C459.37 169.113 459.104 169.775 459.502 170.571C459.9 171.234 459.9 171.897 460.563 171.234C461.358 170.571 461.756 170.173 460.961 169.908C460.43 169.643 460.563 169.113 460.298 169.113Z" fill="#E5E5E5"/>
    <path d="M461.093 174.283C459.634 174.681 460.562 177.862 460.695 176.669C460.96 175.343 461.49 174.15 461.093 174.283Z" fill="#E5E5E5"/>
    <path d="M460.828 180.514C460.165 180.779 460.43 182.37 461.358 181.707C462.154 181.045 461.756 180.249 460.828 180.514Z" fill="#E5E5E5"/>
    <path d="M462.551 188.601C461.49 187.54 461.225 188.203 461.358 189.794C461.49 191.385 462.021 192.711 462.551 191.12C463.214 189.662 463.081 188.999 462.551 188.601Z" fill="#E5E5E5"/>
    <path d="M460.562 198.942C460.164 197.218 459.104 197.484 458.971 200.533C458.971 203.582 457.645 204.775 458.971 204.775C460.429 204.775 460.96 200.4 460.562 198.942Z" fill="#E5E5E5"/>
    <path d="M457.248 205.836C456.452 204.908 456.585 208.62 455.657 209.548C454.729 210.609 454.066 209.416 454.199 211.272C454.331 213.128 452.74 218.829 454.331 217.901C455.922 216.973 455.922 214.719 455.259 213.658C454.596 212.73 454.994 212.465 456.055 211.404C457.115 210.344 458.176 208.355 458.176 207.427C457.911 206.366 457.513 206.101 457.248 205.836Z" fill="#E5E5E5"/>
    <path d="M452.475 225.855C451.15 226.253 450.487 222.408 450.752 220.685C451.017 219.094 452.608 218.298 453.006 219.226C453.403 220.287 453.536 220.685 452.741 221.215C451.945 221.745 452.078 221.745 452.078 222.806C452.078 224.132 452.608 225.855 452.475 225.855Z" fill="#E5E5E5"/>
    <path d="M456.453 220.287C455.392 220.685 454.596 221.347 455.127 222.01C455.79 222.806 456.718 222.408 456.85 221.48C456.983 220.419 456.85 220.154 456.453 220.287Z" fill="#E5E5E5"/>
    <path d="M366.5 119C361.252 119 357 123.186 357 128.351C357 133.517 366.5 145 366.5 145C366.5 145 376 133.517 376 128.351C376 123.186 371.748 119 366.5 119ZM366.5 132.623C364.047 132.623 362.057 130.664 362.057 128.249C362.057 125.835 364.047 123.875 366.5 123.875C368.953 123.875 370.943 125.835 370.943 128.249C370.943 130.671 368.953 132.623 366.5 132.623Z" fill="#E2342B"/>
    <path d="M283 176C276.924 176 272 180.83 272 186.79C272 192.75 283 206 283 206C283 206 294 192.75 294 186.79C294 180.83 289.076 176 283 176ZM283 191.719C280.16 191.719 277.855 189.458 277.855 186.672C277.855 183.887 280.16 181.626 283 181.626C285.84 181.626 288.145 183.887 288.145 186.672C288.145 189.467 285.84 191.719 283 191.719Z" fill="#E2342B"/>
    <path d="M294.5 113C290.357 113 287 116.059 287 119.834C287 123.608 294.5 132 294.5 132C294.5 132 302 123.608 302 119.834C302 116.059 298.643 113 294.5 113ZM294.5 122.955C292.564 122.955 290.992 121.523 290.992 119.759C290.992 117.995 292.564 116.563 294.5 116.563C296.436 116.563 298.008 117.995 298.008 119.759C298.008 121.529 296.436 122.955 294.5 122.955Z" fill="#E2342B"/>
    <path d="M255 106C252.79 106 251 107.771 251 109.956C251 112.142 255 117 255 117C255 117 259 112.142 259 109.956C259 107.771 257.21 106 255 106ZM255 111.764C253.967 111.764 253.129 110.935 253.129 109.913C253.129 108.892 253.967 108.063 255 108.063C256.033 108.063 256.871 108.892 256.871 109.913C256.871 110.938 256.033 111.764 255 111.764Z" fill="#E2342B"/>
    <path d="M409.5 53C407.014 53 405 55.0929 405 57.6756C405 60.2584 409.5 66 409.5 66C409.5 66 414 60.2584 414 57.6756C414 55.0929 411.986 53 409.5 53ZM409.5 59.8116C408.338 59.8116 407.395 58.8318 407.395 57.6247C407.395 56.4175 408.338 55.4377 409.5 55.4377C410.662 55.4377 411.605 56.4175 411.605 57.6247C411.605 58.8357 410.662 59.8116 409.5 59.8116Z" fill="#E2342B"/>
    <path d="M326.5 146C323.462 146 321 148.415 321 151.395C321 154.375 326.5 161 326.5 161C326.5 161 332 154.375 332 151.395C332 148.415 329.538 146 326.5 146ZM326.5 153.86C325.08 153.86 323.927 152.729 323.927 151.336C323.927 149.943 325.08 148.813 326.5 148.813C327.92 148.813 329.073 149.943 329.073 151.336C329.073 152.733 327.92 153.86 326.5 153.86Z" fill="#E2342B"/>
    <path d="M68 98C64.1333 98 61 101.059 61 104.834C61 108.608 68 117 68 117C68 117 75 108.608 75 104.834C75 101.059 71.8667 98 68 98ZM68 107.955C66.1928 107.955 64.7259 106.523 64.7259 104.759C64.7259 102.995 66.1928 101.563 68 101.563C69.8072 101.563 71.2741 102.995 71.2741 104.759C71.2741 106.529 69.8072 107.955 68 107.955Z" fill="#E2342B"/>
    <path d="M33 132C30.2381 132 28 134.254 28 137.035C28 139.817 33 146 33 146C33 146 38 139.817 38 137.035C38 134.254 35.7619 132 33 132ZM33 139.336C31.7091 139.336 30.6614 138.28 30.6614 136.98C30.6614 135.68 31.7091 134.625 33 134.625C34.2909 134.625 35.3386 135.68 35.3386 136.98C35.3386 138.285 34.2909 139.336 33 139.336Z" fill="#E2342B"/>
    <path d="M91 67C88.2381 67 86 69.0929 86 71.6756C86 74.2584 91 80 91 80C91 80 96 74.2584 96 71.6756C96 69.0929 93.7619 67 91 67ZM91 73.8116C89.7091 73.8116 88.6614 72.8318 88.6614 71.6247C88.6614 70.4175 89.7091 69.4377 91 69.4377C92.2909 69.4377 93.3386 70.4175 93.3386 71.6247C93.3386 72.8357 92.2909 73.8116 91 73.8116Z" fill="#E2342B"/>
    <path d="M214 187C210.142 187 207 190.058 207 193.836C207 197.604 214 206 214 206C214 206 221 197.614 221 193.836C221 190.058 217.868 187 214 187ZM214 196.955C212.199 196.955 210.735 195.526 210.735 193.766C210.735 192.007 212.199 190.578 214 190.578C215.801 190.578 217.265 192.007 217.265 193.766C217.275 195.526 215.811 196.955 214 196.955Z" fill="#E2342B"/>
    <path d="M363.555 187C359.942 187 357 189.932 357 193.555C357 197.168 363.555 205.217 363.555 205.217C363.555 205.217 370.11 197.177 370.11 193.555C370.11 189.932 367.177 187 363.555 187ZM363.555 196.545C361.868 196.545 360.498 195.174 360.498 193.488C360.498 191.801 361.868 190.431 363.555 190.431C365.241 190.431 366.612 191.801 366.612 193.488C366.621 195.174 365.251 196.545 363.555 196.545Z" fill="#E2342B"/>
    <path d="M385 82C381.693 82 379 84.7365 379 88.1168C379 91.4882 385 99 385 99C385 99 391 91.4971 391 88.1168C391 84.7365 388.316 82 385 82ZM385 90.9069C383.456 90.9069 382.202 89.6281 382.202 88.0542C382.202 86.4803 383.456 85.2015 385 85.2015C386.544 85.2015 387.798 86.4803 387.798 88.0542C387.807 89.6281 386.553 90.9069 385 90.9069Z" fill="#E2342B"/>
    <path d="M176.3 32.4464C176.2 32.1464 175.8 32.0464 175.5 32.2464C173.7 34.3464 173.3 37.5464 172.7 40.2464C171.9 43.3464 171 46.5464 170.8 49.7464C170.7 50.6464 172 50.6464 172.3 49.9464C173.5 46.8464 174.1 43.3464 174.9 40.1464C175.6 37.6464 176.7 35.0464 176.3 32.4464Z" fill="#593D2D"/>
    <path d="M208.1 38.0463C204.3 32.8463 197 30.4463 190.2 29.9463C181.2 29.3463 176.4 32.0463 175.4 33.1463C174.3 31.5463 165.8 26.3463 159.2 24.9463C153.5 23.7463 146.4 25.0463 142.7 26.9463C142.7 26.4463 142.8 25.9463 142.9 25.3463C144.7 11.8463 158.9 -1.55366 180.5 0.146338C197.9 1.54634 208.3 17.8463 208.9 31.2463C208.9 33.3463 208.5 36.1463 208.1 38.0463Z" fill="#E2342B"/>
    <path d="M208.1 38.0463C204.3 32.8463 197 30.4463 190.2 29.9463C181.2 29.3463 176.4 32.0463 175.4 33.1463C174.3 31.5463 165.8 26.3463 159.2 24.9463C153.5 23.7463 146.4 25.0463 142.7 26.9463C142.7 26.9463 145.8 19.0463 152.4 17.9463C158.9 16.7463 164 19.5463 165.1 22.3463C165.1 22.3463 169.9 18.0463 176.8 17.5463C183.7 17.0463 191 21.9463 191.5 26.0463C191.5 26.0463 197.1 21.3464 201.7 22.7464C206.3 23.9464 208.5 32.4463 208.1 38.0463Z" fill="#851F1A"/>
    <path d="M207.5 37.9463C201 39.4463 194.6 41.2463 188.2 43.0463C183.5 44.4463 178.4 45.5463 173.8 47.4463C180.9 41.3463 187 32.9463 192.3 25.4463C192.9 24.6463 191.6 23.9463 191 24.6463C187.5 29.2463 184 33.7463 180.2 38.0463C177.5 41.1463 174.5 43.9463 171.9 47.1463C171.3 43.0463 170.4 38.9463 169.4 34.9463C168.3 30.4463 167.3 25.5463 165 21.5463C164.7 20.9463 163.9 21.3463 164 21.9463C164.7 26.4463 166.6 30.9463 167.8 35.3463C168.9 39.1463 169.7 43.0463 170.6 46.8463C167.7 43.5463 164.1 41.0463 160.5 38.4463C154.8 34.3463 149.3 29.7463 143.1 26.3463C142.5 26.0463 141.9 26.7463 142.4 27.2463C150.7 35.1463 161.3 40.1463 169.3 48.3463C162 52.1463 155.1 57.0463 148.3 61.4463C141.6 65.7463 135.1 70.2463 129.8 76.3463C128.7 77.6463 130.8 79.2463 132 77.9463C142.6 65.7463 158.2 59.6463 170.9 49.9463C171.1 50.1463 171.3 50.1463 171.6 50.1463C180.5 60.7463 187.6 72.2463 193.9 84.6463C194.5 85.8463 196.4 85.0463 195.8 83.7463C190.5 71.3463 182.7 59.7463 174 49.3463C179.3 48.1463 184.5 46.1463 189.7 44.6463C195.8 42.9463 201.9 41.3463 208 39.7463C209.1 39.4463 208.7 37.6463 207.5 37.9463Z" fill="#75513B"/>
    <path d="M102 139.146C119.3 147.046 146.3 158.646 164.6 166.946C170.6 166.146 176.3 165.046 181.8 163.946C187.1 162.846 192.2 161.646 197.1 160.346C205.1 158.346 212.7 156.246 219.8 154.346C200.5 146.446 172.6 136.346 152 128.846C137.1 129.246 114.8 134.446 102 139.146Z" fill="#AA7445"/>
    <path d="M116.5 135.446C120.7 137.246 124.6 138.946 128.6 141.046C132.3 140.046 136 138.146 139.7 137.146C137 135.646 133.8 133.746 131 132.246C125.9 132.646 121.4 134.046 116.5 135.446Z" fill="#875B37"/>
    <path d="M102 139.146C106.7 137.946 111.6 136.646 116.5 135.446C121.3 134.246 126.2 133.146 131.1 132.146C138.1 130.746 145.2 129.546 152.1 128.946C155 109.546 158.1 90.8464 158.4 69.5464C151.9 70.9464 145.2 72.5464 138.4 74.1464C133.4 75.3464 128.3 76.5464 123.3 77.7464C118.6 78.8464 113.9 79.9464 109.4 80.8464C107.5 100.046 103.8 119.846 102 139.146Z" fill="#CC955D"/>
    <path d="M152 128.946C154.4 108.346 156.2 91.0464 158.3 69.5464C181 78.1464 203.1 87.5464 225.7 96.1464C226 115.146 221.8 138.346 219.7 154.446C194.4 146.246 176.5 138.046 152 128.946Z" fill="#FECB94"/>
    <path d="M122.3 86.2464C124 85.8464 132.6 84.7464 137.2 83.2464C137.6 80.1464 138 77.1464 138.4 74.0464C133.4 75.2464 128.3 76.4464 123.3 77.6464C122.9 80.3464 122.7 82.7464 122.3 86.2464Z" fill="#B3804F"/>
    <path d="M116.5 135.446C121.3 134.246 126.2 133.146 131.1 132.146C131.5 129.346 132 126.646 132.4 123.846C127.4 124.246 122.6 124.846 117.7 125.346C117.1 128.446 116.7 132.046 116.5 135.446Z" fill="#B3804F"/>
    <path d="M173.6 159.746C175.6 160.946 179.6 162.546 181.8 163.846C187.1 162.746 192.2 161.546 197.1 160.246C193.7 158.746 188.5 157.046 185 155.646C180.1 156.946 177.2 158.746 173.6 159.746Z" fill="#875B37"/>
    <path d="M210.7 143.246C211.7 141.846 213.4 140.246 215 138.946C215.8 140.946 216.3 142.846 216.4 144.846C215.9 144.746 215.4 144.746 214.9 144.646C214.7 145.746 214.4 146.846 214.2 147.946C213.2 147.646 212.2 147.346 211.2 146.946C211.5 145.946 211.9 144.946 212.3 143.946C211.8 143.646 211.3 143.446 210.7 143.246Z" fill="#875B37"/>
    <path d="M205.1 135.746C204.7 136.646 204.2 137.846 204.1 138.946C204.1 139.946 204.6 141.146 205.6 141.446C206.7 141.846 207.9 141.146 208.5 140.246C209.1 139.346 209.3 138.146 209.4 137.046C208 136.646 206.4 136.146 205.1 135.746Z" fill="#875B37"/>
    <path d="M203.5 143.746C203.9 143.846 204.2 143.946 204.6 144.046C204.8 143.046 205.1 142.146 205.3 141.146C205.4 140.646 206.2 140.946 206 141.446C205.8 142.346 205.5 143.346 205.3 144.246C205.6 144.346 205.9 144.446 206.2 144.546C206.7 144.646 206.4 145.446 205.9 145.246C205 144.946 204 144.646 203.1 144.446C202.7 144.346 203 143.546 203.5 143.746Z" fill="#875B37"/>
    <path d="M127.7 131.346C137.9 137.646 148.4 142.946 159.3 147.846C159.3 147.846 159.3 147.846 159.4 147.846C160.1 147.646 160.8 147.346 161.5 147.146C168.5 144.546 176.3 141.346 183.8 140.746C184.5 140.646 184.9 141.746 184.2 142.046C177.3 145.046 169.5 146.546 162.4 149.146C162.4 149.146 162.3 149.146 162.3 149.246C171.5 153.346 180.8 157.346 189.5 162.546C190.2 162.946 189.5 164.246 188.8 163.846C179.3 159.046 169.6 154.646 159.9 150.246C153.7 152.746 147.6 156.146 141.3 158.046C140.5 158.246 139.6 157.246 140.4 156.646C145.2 153.246 151.2 150.946 157 148.946C156.9 148.946 156.9 148.846 156.8 148.846C146.5 144.246 136 139.446 126.7 133.046C125.5 132.146 126.6 130.746 127.7 131.346Z" fill="#593D2D"/>
    <path d="M185.6 126.646C186.7 121.746 187.7 116.746 188.7 111.846C189.7 106.946 190.6 101.946 191.4 96.9464C192.2 92.2464 192.6 87.2464 194 82.6464C194.2 81.8464 195.3 82.2464 195.3 82.9464C195.4 88.1464 194.1 93.5464 193.3 98.7464C192.5 103.746 191.6 108.646 190.6 113.646C189.6 118.546 188.6 123.546 187.5 128.446C186.5 132.946 185.9 138.346 183.8 142.546C183.4 143.346 182.3 143.046 182.3 142.146C182.4 137.046 184.4 131.646 185.6 126.646Z" fill="#6B4A36"/>
    <path d="M131.4 75.9463C131.5 75.5463 132.2 75.6463 132.2 76.0463C132.6 85.1463 130.8 94.5463 130.1 103.646C129.7 108.346 129.4 113.046 129.2 117.746C128.9 122.646 129.1 127.846 128.3 132.646C128.2 133.446 126.8 133.646 126.8 132.646C125.9 123.346 127.4 113.446 128.1 104.146C128.8 94.9463 128.9 84.8463 131.4 75.9463Z" fill="#614331"/>
    <path d="M142.8 121.546C143.8 121.046 145.1 121.146 146.2 121.146C147.5 121.046 148.9 120.846 150.2 121.046C150.5 121.146 150.5 121.646 150.2 121.646C148.9 122.046 147.6 121.946 146.3 122.046C145.2 122.146 143.9 122.346 142.9 121.946C142.7 121.846 142.6 121.546 142.8 121.546Z" fill="#8C663F"/>
    <path d="M136.8 121.846C137.5 121.646 138.3 121.546 139.1 121.546C139.8 121.546 140.5 121.346 141.1 121.646C141.2 121.746 141.2 121.846 141.1 121.946C140.5 122.346 139.8 122.246 139.1 122.246C138.3 122.246 137.6 122.346 136.8 122.146C136.7 122.146 136.7 121.946 136.8 121.846Z" fill="#8C663F"/>
    <path d="M148.2 123.446C148.6 123.446 149 123.446 149.4 123.346C149.7 123.346 149.9 123.346 150.1 123.446C150.1 123.446 150.1 123.446 150.2 123.446C150.5 123.446 150.5 123.946 150.2 123.946C150.2 123.946 150.2 123.946 150.1 123.946C149.9 124.146 149.7 124.146 149.4 124.146C149 124.146 148.6 124.246 148.2 124.246C147.7 124.446 147.6 123.546 148.2 123.446Z" fill="#8C663F"/>
    <path d="M137.4 124.346C138.9 124.046 140.5 123.846 142.1 123.746C143.6 123.646 145.3 123.346 146.8 123.746C147.1 123.846 147.1 124.246 146.8 124.246C145.3 124.746 143.7 124.646 142.1 124.746C140.5 124.846 139 124.846 137.4 124.646C137.2 124.746 137.2 124.446 137.4 124.346Z" fill="#8C663F"/>
    <path d="M144.6 126.146C146.4 126.146 148.2 125.846 150 126.046C150.3 126.046 150.3 126.646 150 126.746C148.3 127.246 146.3 127.046 144.6 127.046C144.1 127.046 144 126.146 144.6 126.146Z" fill="#8C663F"/>
    <path d="M141.6 126.146C141.8 126.146 142 126.146 142.3 126.146C142.4 126.146 142.5 126.146 142.6 126.146C142.7 126.146 142.8 126.246 142.9 126.246C143.2 126.246 143.2 126.746 142.9 126.846C142.8 126.846 142.7 126.946 142.6 126.946C142.5 126.946 142.4 127.046 142.3 127.046C142.1 127.046 141.9 127.046 141.6 127.046C141.1 127.146 141 126.146 141.6 126.146Z" fill="#8C663F"/>
    <path d="M191.4 25.9464C194.3 17.3464 191.6 0.546361 179.8 0.146361C168 -0.253639 165 22.3464 165 22.3464C165 22.3464 169.8 18.0464 176.7 17.5464C183.6 16.9464 190.9 21.8464 191.4 25.9464Z" fill="#E2C4C2"/>
    <path d="M264.686 151.663C264.31 153.861 264.144 155.992 263.979 158.123C261.288 153.831 257.688 149.83 254.384 146.273C249.843 141.267 244.831 136.719 239.228 132.976C228.968 126.034 217.073 121.694 204.639 121.452C202.85 121.411 202.955 124.147 204.745 124.189C216.899 124.521 228.607 128.997 238.516 136.052C243.424 139.556 247.885 143.588 251.944 148.057C255.982 152.455 259.126 157.68 262.975 162.216C259.979 162.023 256.96 161.761 254.073 162.149C253.025 162.254 252.751 163.804 253.932 164.117C257.595 164.943 261.55 164.751 265.221 164.881C265.918 164.888 266.462 164.175 266.423 163.572C266.283 159.769 266.491 156.086 267.142 152.337C267.582 150.58 265.008 150.02 264.686 151.663Z" fill="#2A3747"/>
</svg>