<svg width="23" height="15" viewBox="0 0 23 15" fill="none" xmlns="http://www.w3.org/2000/svg">
    <path d="M14.3926 1.49759H8.26562V12.5078H14.3926V1.49759Z" fill="#FF5F00"/>
    <path d="M8.65493 7.0022C8.65397 5.94184 8.89425 4.89514 9.3576 3.94137C9.82095 2.9876 10.4952 2.15174 11.3294 1.49707C10.2964 0.685137 9.05583 0.180205 7.74946 0.0399915C6.44309 -0.100222 5.12362 0.129934 3.94188 0.704165C2.76013 1.27839 1.76378 2.17353 1.06672 3.28725C0.369653 4.40096 0 5.68833 0 7.0022C0 8.31608 0.369653 9.60344 1.06672 10.7172C1.76378 11.8309 2.76013 12.726 3.94188 13.3002C5.12362 13.8745 6.44309 14.1046 7.74946 13.9644C9.05583 13.8242 10.2964 13.3193 11.3294 12.5073C10.4952 11.8527 9.82096 11.0168 9.35761 10.063C8.89426 9.10926 8.65397 8.06257 8.65493 7.0022Z" fill="#EB001B"/>
    <path d="M22.6581 7.0022C22.6582 8.31606 22.2886 9.60342 21.5915 10.7171C20.8945 11.8309 19.8982 12.726 18.7165 13.3002C17.5347 13.8745 16.2153 14.1046 14.9089 13.9644C13.6026 13.8242 12.362 13.3193 11.3291 12.5073C12.1625 11.852 12.8363 11.016 13.2995 10.0624C13.7628 9.10876 14.0035 8.0624 14.0035 7.0022C14.0035 5.942 13.7628 4.89564 13.2995 3.94201C12.8363 2.98839 12.1625 2.1524 11.3291 1.49707C12.362 0.685134 13.6026 0.180202 14.9089 0.0399897C16.2153 -0.100222 17.5347 0.129944 18.7165 0.704181C19.8982 1.27842 20.8945 2.17355 21.5915 3.28727C22.2886 4.40099 22.6582 5.68835 22.6581 7.0022Z" fill="#F79E1B"/>
</svg>
