<svg width="49" height="14" viewBox="0 0 49 14" fill="none" xmlns="http://www.w3.org/2000/svg">
    <path fill-rule="evenodd" clip-rule="evenodd" d="M35.354 6.26794V13.874H39.5796V9.3667H44.3686C46.3841 9.35173 48.0963 8.06422 48.7419 6.26794H35.354Z" fill="#37A72E"/>
    <path fill-rule="evenodd" clip-rule="evenodd" d="M34.7905 0C35.0367 3.10893 37.9779 5.56367 41.57 5.56367C41.5817 5.56367 48.9174 5.56367 48.9174 5.56367C48.9716 5.27855 49 4.98426 49 4.68335C49 2.10799 46.9222 0.019052 44.3518 0.00012958L34.7905 0Z" fill="url(#paint0_linear_1367_981)"/>
    <path fill-rule="evenodd" clip-rule="evenodd" d="M28.5364 5.48969L28.5398 5.4826L28.5402 5.48271C28.5835 5.40497 28.6665 5.3524 28.7618 5.3524C28.8995 5.3524 29.0115 5.46211 29.0153 5.59886L29.0154 5.59889V13.8035H33.2409V0H29.0154C28.4795 0.0178355 27.8741 0.411049 27.649 0.893728L24.2863 8.10516C24.278 8.13463 24.265 8.16215 24.2482 8.18686L24.247 8.18927L24.2466 8.18913C24.1957 8.26236 24.111 8.3103 24.0151 8.3103C23.8595 8.3103 23.7334 8.18417 23.7334 8.02859V0H19.5078V13.8035H23.7334V13.802C24.2634 13.7743 24.8546 13.3855 25.0764 12.9098L28.5278 5.50829C28.5304 5.50196 28.5333 5.49575 28.5364 5.48969Z" fill="#37A72E"/>
    <path fill-rule="evenodd" clip-rule="evenodd" d="M12.7579 5.72565L10.2883 13.8035H7.2485L4.77734 5.72074C4.75351 5.59131 4.64008 5.49325 4.50376 5.49325C4.35012 5.49325 4.22557 5.61779 4.22557 5.77143C4.22557 5.77261 4.22558 5.77378 4.2256 5.77495L4.22557 13.8035H0V0H3.62695H4.70713C5.48465 0 6.29943 0.603399 6.52664 1.34657L8.58312 8.07301C8.68544 8.40768 8.85145 8.40732 8.95366 8.07301L11.0101 1.34657C11.2375 0.60288 12.052 0 12.8296 0L13.9095 0H17.5361V13.8035H13.3106V5.77495C13.3106 5.77378 13.3106 5.77261 13.3106 5.77143C13.3106 5.61779 13.186 5.49325 13.0324 5.49325C12.8943 5.49325 12.7798 5.59379 12.7579 5.72565Z" fill="#37A72E"/>
    <defs>
        <linearGradient id="paint0_linear_1367_981" x1="34.7905" y1="2.78184" x2="49" y2="2.78184" gradientUnits="userSpaceOnUse">
            <stop stop-color="#00A0E5"/>
            <stop offset="1" stop-color="#0077C3"/>
        </linearGradient>
    </defs>
</svg>