<svg width="44" height="14" viewBox="0 0 44 14" fill="none" xmlns="http://www.w3.org/2000/svg">
    <path d="M18.6536 13.7305H15.1665L17.3476 0.244476H20.8344L18.6536 13.7305Z" fill="#00579F"/>
    <path d="M31.2942 0.574154C30.6064 0.301283 29.5155 0 28.1666 0C24.723 0 22.2981 1.8363 22.2832 4.46165C22.2546 6.39863 24.0194 7.47448 25.3393 8.12033C26.6884 8.78029 27.147 9.21105 27.147 9.79931C27.1333 10.7028 26.0569 11.1192 25.0529 11.1192C23.6607 11.1192 22.9147 10.9045 21.7811 10.4019L21.3219 10.1864L20.834 13.2137C21.6518 13.5863 23.1586 13.917 24.723 13.9315C28.3819 13.9315 30.7639 12.1236 30.7921 9.32584C30.8061 7.79064 29.8742 6.6143 27.8651 5.65305C26.6455 5.036 25.8986 4.61992 25.8986 3.98856C25.9129 3.4146 26.5303 2.82672 27.9071 2.82672C29.0407 2.79792 29.8736 3.07041 30.5046 3.34309L30.82 3.4863L31.2942 0.574154Z" fill="#00579F"/>
    <path d="M35.9287 8.95288C36.2159 8.17813 37.3209 5.1796 37.3209 5.1796C37.3064 5.20839 37.6075 4.39055 37.7797 3.88847L38.0234 5.05051C38.0234 5.05051 38.6838 8.27862 38.8272 8.95288C38.2822 8.95288 36.6175 8.95288 35.9287 8.95288ZM40.2331 0.244476H37.5358C36.7041 0.244476 36.0721 0.488172 35.7133 1.36342L30.5337 13.7303H34.1926C34.1926 13.7303 34.7949 12.0658 34.9244 11.7073C35.3258 11.7073 38.8851 11.7073 39.4015 11.7073C39.5016 12.1808 39.8176 13.7303 39.8176 13.7303H43.0463L40.2331 0.244476Z" fill="#00579F"/>
    <path d="M12.2538 0.244476L8.8388 9.44065L8.46563 7.57556C7.83427 5.42349 5.85419 3.0853 3.64453 1.9227L6.77253 13.7162H10.46L15.9411 0.244476H12.2538Z" fill="#00579F"/>
    <path d="M5.66774 0.244476H0.057396L0 0.516965C4.37642 1.6361 7.27483 4.33372 8.46566 7.57613L7.24604 1.3781C7.04525 0.516775 6.42819 0.272888 5.66774 0.244476Z" fill="#FAA61A"/>
</svg>
